<svg xmlns="http://www.w3.org/2000/svg" width="168.194" height="40.798" viewBox="0 0 168.194 40.798">
  <g id="Grupo_35" data-name="Grupo 35" transform="translate(0 0)">
    <path id="Trazado_64" data-name="Trazado 64" d="M1337.187,1438.219c0,.156-.009.313-.009.469q0,7.984,0,15.968v.42a21.388,21.388,0,0,1-3.43.034c-.071-.529.01-1.075-.047-1.626-.147-.006-.188.116-.253.193a4.977,4.977,0,0,1-1.289,1.114,4.721,4.721,0,0,1-2.945.569,5.608,5.608,0,0,1-4.906-4.807,7.836,7.836,0,0,1,.412-4.577,5.282,5.282,0,0,1,3.967-3.327,4.79,4.79,0,0,1,4.74,1.444,2.282,2.282,0,0,1,.174.243l.076-.041a.53.53,0,0,0,.041-.142q0-2.9,0-5.8a.674.674,0,0,0-.025-.13Zm-3.414,10.754a3.883,3.883,0,0,0-.343-1.694,2.883,2.883,0,0,0-2.546-1.8,2.767,2.767,0,0,0-2.7,1.437,3.88,3.88,0,0,0,0,4.083,2.784,2.784,0,0,0,2.429,1.446,2.827,2.827,0,0,0,2.535-1.313A3.748,3.748,0,0,0,1333.773,1448.973Z" transform="translate(-1168.993 -1438.219)" fill="#fff"/>
    <path id="Trazado_71" data-name="Trazado 71" d="M1295.744,1458.765h-8.595a.831.831,0,0,0-.008.162,2.842,2.842,0,0,0,2.422,2.285,4.033,4.033,0,0,0,3.262-.891c.121-.1.241-.2.391-.321l1.975,1.745c-.1.12-.182.223-.271.319a5.972,5.972,0,0,1-3.613,1.89,7.091,7.091,0,0,1-4.342-.641,5.689,5.689,0,0,1-2.881-3.225,6.867,6.867,0,0,1,.374-5.776,5.729,5.729,0,0,1,4.5-3.122,6.287,6.287,0,0,1,3.23.374,5.478,5.478,0,0,1,3.171,3.442,8.66,8.66,0,0,1,.46,3.367,1.916,1.916,0,0,1-.029.232A1.4,1.4,0,0,1,1295.744,1458.765Zm-8.638-2.191c.374.083,5.057.066,5.315-.021a2.96,2.96,0,0,0-.258-1.024,2.513,2.513,0,0,0-2.469-1.615A2.758,2.758,0,0,0,1287.106,1456.574Z" transform="translate(-1142.002 -1446.826)" fill="#fff"/>
    <g id="Grupo_93" data-name="Grupo 93" transform="translate(57.957)">
      <path id="Trazado_63" data-name="Trazado 63" d="M1098.122,1438.219c0,.145-.012.29-.012.436q0,8,0,16.005v.419a21.534,21.534,0,0,1-3.464.021v-1.632c-.191-.009-.231.13-.3.214a4.353,4.353,0,0,1-2.213,1.506,5.258,5.258,0,0,1-5.185-1.311,5.761,5.761,0,0,1-1.724-3.268,8.048,8.048,0,0,1,.28-4.331,5.325,5.325,0,0,1,4.1-3.631,4.777,4.777,0,0,1,4.715,1.431,2.225,2.225,0,0,1,.191.273l.087-.052a1.077,1.077,0,0,0,.04-.208q0-2.935,0-5.872Zm-3.452,11.037a3.972,3.972,0,0,0-.7-2.6,2.933,2.933,0,0,0-5,.471,3.937,3.937,0,0,0,.019,3.677,2.817,2.817,0,0,0,2.653,1.633,2.861,2.861,0,0,0,2.645-1.7A3.517,3.517,0,0,0,1094.669,1449.256Z" transform="translate(-1067.604 -1438.219)" fill="#fff"/>
      <path id="Trazado_66" data-name="Trazado 66" d="M1191.259,1513.1v-1.516h3.447c.008.089.025.185.025.28q0,4.85,0,9.7a8.495,8.495,0,0,1-.3,2.221,4.848,4.848,0,0,1-3.588,3.59,10.961,10.961,0,0,1-2.923.36,11.869,11.869,0,0,1-5.21-1.09c-.1-.047-.2-.1-.3-.153-.017-.01-.027-.033-.064-.08l1.155-2.528c.1.042.186.066.261.106a8.215,8.215,0,0,0,2.623.891,6.927,6.927,0,0,0,2.57-.028,2.755,2.755,0,0,0,2.3-2.547c.041-.354.04-.714.054-1.071a2.048,2.048,0,0,0-.03-.258c-.105.094-.173.154-.24.216-.321.295-.622.615-.966.88a4.384,4.384,0,0,1-2.563.872,5.606,5.606,0,0,1-2.555-.448,5.216,5.216,0,0,1-3.152-4.1,6.429,6.429,0,0,1,.458-3.97,5.2,5.2,0,0,1,4.057-3.01,5.7,5.7,0,0,1,2.037.036,4.838,4.838,0,0,1,2.518,1.39c.1.1.2.2.3.3Zm-3.136,1.112a5.769,5.769,0,0,0-.6.078,2.817,2.817,0,0,0-2.185,1.826,2.981,2.981,0,0,0-.158,1.287,2.718,2.718,0,0,0,1.231,2.159,3.09,3.09,0,0,0,1.374.493,2.967,2.967,0,0,0,3.5-2.67,2.77,2.77,0,0,0-1.285-2.664A3.384,3.384,0,0,0,1188.123,1514.211Z" transform="translate(-1132.03 -1486.974)" fill="#fff"/>
      <path id="Trazado_68" data-name="Trazado 68" d="M1045.022,1516.79h-12.257c-.081-.244-.106-15.684-.031-16.127.258-.079,11.791-.093,12.16-.009v3.039c-.148.011-.3.031-.449.031q-3.864,0-7.728,0h-.448a20.184,20.184,0,0,0-.025,3.35c.621.012,1.255,0,1.889,0s1.277,0,1.915,0h3.779a20.388,20.388,0,0,1,0,3.132h-7.562a23.416,23.416,0,0,0-.027,3.436c.13.007.271.022.411.022q3.982,0,7.963,0h.413Z" transform="translate(-1032.689 -1479.81)" fill="#fff"/>
      <path id="Trazado_69" data-name="Trazado 69" d="M1050.035,1456.408c-.177.01-.276.02-.375.02q-1.462,0-2.923,0c-.378,0-.379,0-.529-.366-.406-.993-.82-1.983-1.212-2.981a.426.426,0,0,0-.472-.31q-3.125.014-6.249,0a.43.43,0,0,0-.466.32c-.4,1.008-.814,2.01-1.223,3.013-.131.322-.132.324-.489.325q-1.428,0-2.856,0c-.1,0-.2-.01-.281-.015a.3.3,0,0,1-.035-.042.056.056,0,0,1-.007-.032.7.7,0,0,1,.034-.129q3.424-8.035,6.855-16.084h3.29Zm-8.6-12.027c-.248.353-2.143,5.02-2.151,5.268a.66.66,0,0,0,.128.026q1.981.005,3.962,0a.9.9,0,0,0,.209-.061Z" transform="translate(-1032.841 -1439.491)" fill="#fff"/>
      <path id="Trazado_70" data-name="Trazado 70" d="M1174.944,1456.9a2,2,0,0,0-1.142-2.235,3.47,3.47,0,0,0-1.238-.27,8.72,8.72,0,0,0-3.261.508c-.116.041-.233.076-.352.11a.386.386,0,0,1-.1-.007l-.847-2.574a2.724,2.724,0,0,1,.246-.136,11.064,11.064,0,0,1,3.638-.847,10.571,10.571,0,0,1,2.738.151,4.312,4.312,0,0,1,3.6,3.789,11.7,11.7,0,0,1,.118,1.6c.013,2.169.006,4.338,0,6.508,0,.132-.011.265-.017.387a19.815,19.815,0,0,1-3.354.007v-1.247a2.76,2.76,0,0,0-.253.188,4.779,4.779,0,0,1-3.368,1.357,5.239,5.239,0,0,1-2.166-.37,3.571,3.571,0,0,1-2.25-3.839,4.635,4.635,0,0,1,.136-.791,3.317,3.317,0,0,1,1.788-2.151,5.961,5.961,0,0,1,2.389-.6,9.261,9.261,0,0,1,3.51.415C1174.816,1456.875,1174.87,1456.884,1174.944,1456.9Zm.1,2.592c0-.045,0-.089,0-.134-.011-.4.094-.386-.4-.564a5.6,5.6,0,0,0-2.343-.3,2.919,2.919,0,0,0-1.126.3,1.544,1.544,0,0,0-.873,1.628,1.413,1.413,0,0,0,1.1,1.251,3.26,3.26,0,0,0,2.353-.179A2.029,2.029,0,0,0,1175.044,1459.494Z" transform="translate(-1122.192 -1447.025)" fill="#fff"/>
      <path id="Trazado_72" data-name="Trazado 72" d="M1127.274,1518.985h-8.613a.947.947,0,0,0,0,.21,2.848,2.848,0,0,0,2.5,2.24,4.048,4.048,0,0,0,3.217-.941l.155-.129.19-.154,1.965,1.735c-.061.084-.106.158-.162.221a5.935,5.935,0,0,1-3.667,1.989,7.1,7.1,0,0,1-4.105-.5,5.878,5.878,0,0,1-3.51-4.708,6.8,6.8,0,0,1,.865-4.685,5.733,5.733,0,0,1,4.29-2.851,6.044,6.044,0,0,1,4.191.819,5.737,5.737,0,0,1,2.378,3.267,8.9,8.9,0,0,1,.34,3.317A1.362,1.362,0,0,1,1127.274,1518.985Zm-3.346-2.222a3.179,3.179,0,0,0-.383-1.294,2.568,2.568,0,0,0-4.338-.287,3.745,3.745,0,0,0-.576,1.346c-.018.082-.024.168-.036.249C1118.961,1516.86,1123.641,1516.848,1123.928,1516.763Z" transform="translate(-1087.674 -1486.974)" fill="#fff"/>
      <path id="Trazado_73" data-name="Trazado 73" d="M1087.318,1523.965h-3.432c-.012-.164-.033-.315-.033-.466,0-2.013,0-4.026-.006-6.039a6.724,6.724,0,0,0-.1-1.3,1.979,1.979,0,0,0-2.384-1.632,2.021,2.021,0,0,0-1.868,1.886,6.4,6.4,0,0,0-.057.836q-.007,3.12,0,6.24v.42a23.627,23.627,0,0,1-3.454.021v-12.3a26.769,26.769,0,0,1,3.443-.027c.007.542.014,1.091.022,1.718.119-.111.179-.166.238-.223a13.647,13.647,0,0,1,1.018-.969,3.689,3.689,0,0,1,2.278-.773,5.082,5.082,0,0,1,1.527.175,3.662,3.662,0,0,1,2.63,2.825,6.413,6.413,0,0,1,.193,1.491c.019,2.595.01,5.189.009,7.784C1087.339,1523.735,1087.327,1523.833,1087.318,1523.965Z" transform="translate(-1061.555 -1486.988)" fill="#fff"/>
      <path id="Trazado_74" data-name="Trazado 74" d="M1208.076,1451.38a24.367,24.367,0,0,1,3.425.012c.034.53-.012,1.074.026,1.612l.074.025c.085-.1.171-.191.255-.289a4.353,4.353,0,0,1,5.628-1.064,3.55,3.55,0,0,1,1.708,2.35,6.307,6.307,0,0,1,.211,1.488c.021,2.639.011,5.278.011,7.917,0,.077-.009.154-.017.265a13.323,13.323,0,0,1-1.7.038c-.568.01-1.136,0-1.736,0-.01-.186-.025-.327-.025-.468,0-2.069,0-4.138-.006-6.207a5.768,5.768,0,0,0-.115-1.2,1.958,1.958,0,0,0-2.32-1.588,2.041,2.041,0,0,0-1.937,2c-.027.289-.042.58-.042.87q-.005,3.053,0,6.106c0,.142-.012.284-.019.417a25.762,25.762,0,0,1-3.4.026C1208.018,1463.46,1208,1451.729,1208.076,1451.38Z" transform="translate(-1149.599 -1446.799)" fill="#fff"/>
      <path id="Trazado_75" data-name="Trazado 75" d="M1237.715,1512.069c-.108.289-.2.528-.287.767q-2.223,5.914-4.45,11.827a12.836,12.836,0,0,1-.748,1.645,5.368,5.368,0,0,1-.782,1.04,2.8,2.8,0,0,1-1.652.827,5.875,5.875,0,0,1-3.888-.688,1.629,1.629,0,0,1-.136-.1l1.148-2.475c.153.07.281.134.413.19a2.5,2.5,0,0,0,1.466.235,1.1,1.1,0,0,0,.829-.709.64.64,0,0,0-.064-.411c-.561-1.448-1.129-2.894-1.695-4.34q-1.46-3.73-2.919-7.461c-.04-.1-.07-.208-.115-.343h3.667q1.4,4.178,2.812,8.386h.089l2.7-8.391Z" transform="translate(-1160.807 -1487.46)" fill="#fff"/>
      <path id="Trazado_77" data-name="Trazado 77" d="M1136.176,1464.3h-3.143l-4.881-12.47c.132-.013.227-.029.322-.029q1.512,0,3.023,0c.332,0,.334,0,.443.327q1.25,3.733,2.5,7.466a1.518,1.518,0,0,0,.234.477c.046-.118.1-.234.137-.353q.972-2.873,1.942-5.746c.214-.635.435-1.268.64-1.906a.319.319,0,0,1,.354-.269c1.041.01,2.082,0,3.124.005a1.331,1.331,0,0,1,.162.02C1141.007,1452.081,1136.452,1463.791,1136.176,1464.3Z" transform="translate(-1096.34 -1447.273)" fill="#fff"/>
      <path id="Trazado_78" data-name="Trazado 78" d="M1258.73,1453.2l-2.111,2.266c-.2-.177-.365-.338-.542-.489a3.39,3.39,0,0,0-2.339-.854,2.779,2.779,0,0,0-1.99.833,3.608,3.608,0,0,0-1.024,2.911,3.519,3.519,0,0,0,.561,1.77,3.03,3.03,0,0,0,3.028,1.387,3.585,3.585,0,0,0,1.888-.8c.184-.144.362-.3.507-.414l2.061,2c-.066.075-.135.16-.211.239a5.967,5.967,0,0,1-3.638,1.91,6.434,6.434,0,0,1-6.543-2.705,6.534,6.534,0,0,1,3.368-9.82,7.035,7.035,0,0,1,3.086-.247,5.935,5.935,0,0,1,2.915,1.1A5.6,5.6,0,0,1,1258.73,1453.2Z" transform="translate(-1175.765 -1446.827)" fill="#fff"/>
      <path id="Trazado_79" data-name="Trazado 79" d="M1164.838,1511.4v3.564c-.2.02-.386.043-.573.056a3.263,3.263,0,0,0-3.171,2.657,7.21,7.21,0,0,0-.2,1.523c-.027,1.464-.011,2.93-.012,4.4v.318a24.516,24.516,0,0,1-3.453.013V1511.6h3.445v2.362l.078.021c.051-.09.106-.178.152-.271a4.738,4.738,0,0,1,.978-1.393,3.458,3.458,0,0,1,2.638-.948A.573.573,0,0,1,1164.838,1511.4Z" transform="translate(-1115.862 -1486.989)" fill="#fff"/>
      <path id="Trazado_81" data-name="Trazado 81" d="M1256.07,1547.833a1.481,1.481,0,0,1-1.471-1.5,1.5,1.5,0,0,1,1.5-1.481,1.52,1.52,0,0,1,1.48,1.513A1.5,1.5,0,0,1,1256.07,1547.833Zm.016-2.761a1.275,1.275,0,1,0,1.278,1.273A1.264,1.264,0,0,0,1256.086,1545.072Z" transform="translate(-1180.651 -1509.315)" fill="#fff"/>
      <path id="Trazado_82" data-name="Trazado 82" d="M1258.6,1548.589c-.24.077-.29-.112-.368-.227-.124-.184-.259-.3-.513-.2l-.046.4c-.129.067-.187.013-.188-.1,0-.4,0-.8,0-1.224a2.735,2.735,0,0,1,.781-.012.39.39,0,0,1,.341.282.415.415,0,0,1-.12.456,2.034,2.034,0,0,1-.178.135Zm-.909-1.188.032.535a3.006,3.006,0,0,0,.432,0c.182-.03.272-.144.255-.29a.263.263,0,0,0-.272-.239C1258,1547.393,1257.874,1547.4,1257.687,1547.4Z" transform="translate(-1182.572 -1510.893)" fill="#fff"/>
    </g>
    <g id="Grupo_92" data-name="Grupo 92" transform="translate(0 0.634)">
      <path id="Trazado_65" data-name="Trazado 65" d="M859.427,1476.5l19.112-36.261a2.375,2.375,0,0,1,.149.214c1.038,1.969,2.07,3.94,3.117,5.9a.516.516,0,0,1-.027.552q-2.726,5.162-5.443,10.328-3.4,6.456-6.8,12.913c-.065.124-.121.253-.2.418h18.433c-.08-.167-.135-.3-.2-.419q-2.353-4.467-4.708-8.933c-.6-1.147-1.206-2.3-1.818-3.441a.5.5,0,0,1-.016-.529q1.567-2.947,3.118-5.9c.035-.066.08-.126.151-.238l13.359,25.347a.422.422,0,0,1-.029.062.045.045,0,0,1-.025.017,1.617,1.617,0,0,1-.2.021q-18.919,0-37.838-.006A.656.656,0,0,1,859.427,1476.5Z" transform="translate(-859.427 -1440.202)" fill="#fff"/>
      <path id="Trazado_67" data-name="Trazado 67" d="M931,1440.121h24.851v5.908c-.08.012-.164.03-.249.036s-.179,0-.269,0q-10.367,0-20.734,0c-.584,0-.441.065-.7-.431q-1.367-2.579-2.724-5.163C931.123,1440.375,931.078,1440.274,931,1440.121Z" transform="translate(-907.151 -1440.121)" fill="#fff"/>
      <path id="Trazado_76" data-name="Trazado 76" d="M971.879,1485.671v5.947H958.15l-3.118-5.916c.1-.022.169-.043.24-.052a1.84,1.84,0,0,1,.2,0h15.963C971.579,1485.65,971.722,1485.663,971.879,1485.671Z" transform="translate(-923.173 -1470.477)" fill="#fff"/>
      <path id="Trazado_80" data-name="Trazado 80" d="M979.071,1531.365h8.8c.065.257.084,5.464.02,5.925a2.684,2.684,0,0,1-.281.029c-1.712,0-3.425,0-5.138.005a.406.406,0,0,1-.417-.249q-1.42-2.719-2.853-5.43C979.161,1531.569,979.127,1531.487,979.071,1531.365Z" transform="translate(-939.202 -1500.96)" fill="#fff"/>
    </g>
  </g>
</svg>
