<svg xmlns="http://www.w3.org/2000/svg" width="123.747" height="45.703" viewBox="0 0 123.747 45.703">
  <g id="Grupo_36" data-name="Grupo 36" transform="translate(0 0)">
    <g id="Grupo_95" data-name="Grupo 95" transform="translate(120.171 35.389)">
      <path id="Trazado_90" data-name="Trazado 90" d="M1932.394,1532.888a1.776,1.776,0,0,1-1.763-1.8,1.794,1.794,0,0,1,1.8-1.776,1.823,1.823,0,0,1,1.775,1.814A1.8,1.8,0,0,1,1932.394,1532.888Zm.02-3.309a1.528,1.528,0,1,0,1.533,1.526A1.516,1.516,0,0,0,1932.413,1529.579Z" transform="translate(-1930.631 -1529.308)" fill="#fff"/>
      <path id="Trazado_91" data-name="Trazado 91" d="M1935.6,1533.94c-.287.093-.347-.134-.44-.272-.149-.221-.31-.363-.615-.234-.018.156-.037.324-.055.483-.154.08-.224.016-.225-.118-.005-.479,0-.958,0-1.467a3.29,3.29,0,0,1,.937-.015.467.467,0,0,1,.409.338.5.5,0,0,1-.144.547,2.3,2.3,0,0,1-.214.162Zm-1.09-1.424.038.641a3.519,3.519,0,0,0,.517,0c.219-.035.327-.173.306-.347a.315.315,0,0,0-.326-.287C1934.89,1532.506,1934.733,1532.516,1934.509,1532.516Z" transform="translate(-1933.109 -1531.345)" fill="#fff"/>
    </g>
    <g id="Grupo_94" data-name="Grupo 94" transform="translate(87.91 0)">
      <path id="Trazado_83" data-name="Trazado 83" d="M1853.113,1461.241h6.094c-.64.683-1.209,1.262-1.741,1.873a2.215,2.215,0,0,0-.5.852,13.105,13.105,0,0,1-8.411,9.5c-.149.058-.287.145-.56.286.427.194.741.343,1.061.479a12.864,12.864,0,0,1,7.75,8.779,3.5,3.5,0,0,0,.969,1.72c.457.426.857.914,1.278,1.378.026.028.019.086.044.218-1.574,0-3.13,0-4.687,0-1.267,0-1.267,0-1.466-1.253a8.936,8.936,0,0,0-17.732.55c-.039.445-.128.718-.665.712-1.808-.023-3.617-.009-5.624-.009.627-.675,1.181-1.216,1.665-1.814a3.5,3.5,0,0,0,.69-1.216,13.139,13.139,0,0,1,8.113-9.174c.235-.1.469-.2.9-.374-.4-.175-.628-.278-.857-.37a13.048,13.048,0,0,1-8.129-9.149,3.522,3.522,0,0,0-.681-1.229c-.464-.577-1-1.094-1.588-1.718a5.019,5.019,0,0,1,.571-.08c1.641,0,3.281.006,4.922-.011.428,0,.638.075.684.575a8.927,8.927,0,0,0,17.764.388C1853.011,1461.873,1853.059,1461.589,1853.113,1461.241Z" transform="translate(-1828.923 -1447.396)" fill="#fff"/>
      <path id="Trazado_88" data-name="Trazado 88" d="M1863.293,1429.185a17,17,0,0,0-3.022-5.364c-.035.6-.06,1.04-.093,1.617a10.525,10.525,0,0,0-8.881-5.014l1.4,1.109a13.1,13.1,0,0,0-8.605,1.807c.224.012.448.029.673.036a2.628,2.628,0,0,1,.656.067,9.53,9.53,0,0,0-4.854,5.592,4.013,4.013,0,0,1,.118-2.921c.319-.917.784-1.783,1.209-2.728h-1.7c2.3-3.082,5.458-3.99,8.986-4.433l-1.345-1.076a13.238,13.238,0,0,1,12.418,4.227v-1.921C1862.152,1421.53,1863.761,1426.332,1863.293,1429.185Z" transform="translate(-1836.624 -1417.663)" fill="#fff"/>
      <path id="Trazado_89" data-name="Trazado 89" d="M1870.167,1463.943a3.089,3.089,0,1,1,0,6.179,3.089,3.089,0,0,1,0-6.179Z" transform="translate(-1854.987 -1449.273)" fill="#fff"/>
    </g>
    <g id="Grupo_188" data-name="Grupo 188" transform="translate(50.2 14.665)">
      <path id="Trazado_87" data-name="Trazado 87" d="M1768.213,1463.926h3.9v1.753c0,1.231,0,2.461,0,3.691.008,1.447-.12,1.241,1.219,1.25,1.3.009,2.6,0,3.941,0v2.685h-3.6c-1.57,0-1.576,0-1.566,1.552.016,2.46-.01,4.922.075,7.38.077,2.236,1.225,3.273,3.45,3.291.526,0,1.053,0,1.631,0v2.769c-1.862-.08-3.7-.03-5.5-.271-1.97-.263-3.158-1.727-3.416-3.86a20.94,20.94,0,0,1-.111-2.382c-.014-2.533-.005-5.067-.005-7.6v-.843h-3.387v-2.707h3.361Z" transform="translate(-1747.475 -1463.926)" fill="#fff"/>
      <path id="Trazado_85" data-name="Trazado 85" d="M1713.114,1509.325h-3.809v-24.239c.04-.021.1-.082.161-.082,3.183,0,6.376-.146,9.548.045,4.679.281,7.271,2.991,7.691,7.724a9.622,9.622,0,0,1-2.037,7.394c-1.569,1.866-3.7,2.341-5.973,2.4-1.615.044-3.232.036-4.848.005-.563-.01-.755.148-.745.73C1713.134,1505.283,1713.114,1507.26,1713.114,1509.325Zm0-15.55c0,1.737,0,3.474,0,5.211,0,.37.011.662.518.648,1.422-.036,2.851.032,4.267-.074,2.768-.209,4.288-1.615,4.621-4.29a13.323,13.323,0,0,0,.009-3.172,4.042,4.042,0,0,0-4.072-4.012c-1.6-.154-3.228-.073-4.842-.118-.525-.014-.5.317-.5.668Q1713.117,1491.2,1713.114,1493.775Z" transform="translate(-1709.305 -1478.287)" fill="#fff"/>
    </g>
    <path id="Trazado_84" data-name="Trazado 84" d="M1617.952,1485.048h.771c5.911,0,11.821-.006,17.732.01a14.313,14.313,0,0,1,2.374.2c3.1.531,4.54,2.1,4.632,5.238.095,3.23.036,6.465.044,9.7,0,.791,0,1.581,0,2.415h-3.91v-.928q0-4.777,0-9.553c0-3.214-.8-4.01-4.029-4.021-.959,0-1.918,0-2.956,0v14.5h-3.967v-14.443h-6.817v14.42h-3.875Z" transform="translate(-1596.709 -1463.688)" fill="#fff"/>
    <path id="Trazado_86" data-name="Trazado 86" d="M1568.9,1502.732h-.86q-5.753,0-11.505-.006a10.232,10.232,0,0,1-1.514-.09q-4.223-.641-4.077-4.927c.012-.361.032-.724.075-1.083a3.885,3.885,0,0,1,3.048-3.691,18.039,18.039,0,0,1,3.569-.458c2.168-.072,4.341-.036,6.512-.014.523.005.711-.133.713-.688.009-2.314-.853-3.472-3.152-3.69-1.962-.186-3.949-.107-5.925-.131-1.175-.015-2.351,0-3.566,0v-2.711c.056-.035.1-.081.137-.081,3.688.023,7.376.04,11.063.088a5.667,5.667,0,0,1,1.415.277,5.114,5.114,0,0,1,3.939,4.492,11.851,11.851,0,0,1,.123,1.729c.011,3.377.005,6.753.005,10.13Zm-8.081-2.721v0c1.156,0,2.313-.013,3.47.006.419.007.614-.11.607-.566-.02-1.253-.013-2.506,0-3.759,0-.37-.083-.588-.519-.582-2.312.034-4.627-.01-6.936.095a2.291,2.291,0,0,0-2.435,2.612c.037,1.444.819,2.13,2.562,2.184C1558.647,1500.039,1559.732,1500.011,1560.816,1500.011Z" transform="translate(-1550.936 -1463.764)" fill="#fff"/>
  </g>
</svg>
