<svg id="Grupo_33" data-name="Grupo 33" xmlns="http://www.w3.org/2000/svg" width="116.916" height="36.128" viewBox="0 0 116.916 36.128">
  <path id="Trazado_51" data-name="Trazado 51" d="M642.728,1742.139c.342-.878.681-1.757,1.027-2.632q1.06-2.684,2.129-5.364a.427.427,0,0,0-.006-.347q-3.786-9.345-7.567-18.69c-.1-.24-.1-.24.15-.24,1.841,0,3.681,0,5.522,0a.283.283,0,0,1,.31.215q2.324,5.679,4.659,11.353l.083.2c.135-.326.26-.624.383-.923q2.182-5.318,4.361-10.637a.283.283,0,0,1,.311-.214c1.833.009,3.666.005,5.5.005.274,0,.274,0,.173.247q-5.322,13-10.641,26.01a6.993,6.993,0,0,0-.391,1.016Z" transform="translate(-560.929 -1706.011)" fill="#fff"/>
  <path id="Trazado_52" data-name="Trazado 52" d="M500.564,1716.017a7.969,7.969,0,0,1,1.983-1.963,8.169,8.169,0,0,1,4.108-1.313,8.871,8.871,0,0,1,3.12.3,5.7,5.7,0,0,1,3.943,3.953,13.121,13.121,0,0,1,.583,4.171c.007,3.96,0,7.92.007,11.88,0,.174-.045.213-.215.212q-2.876-.01-5.752,0c-.19,0-.236-.043-.236-.234q.009-5.7,0-11.4a7.213,7.213,0,0,0-.253-2.15,2.56,2.56,0,0,0-2.488-1.928,4.538,4.538,0,0,0-2.5.483,4.045,4.045,0,0,0-2.071,3.139,6.992,6.992,0,0,0-.055,1.027q0,5.436,0,10.873c0,.2-.044.266-.259.265q-2.853-.014-5.706,0c-.195,0-.236-.055-.236-.242q.008-9.819,0-19.639c0-.178.043-.226.224-.225q2.8.01,5.591,0c.167,0,.217.033.214.209C500.559,1714.3,500.564,1715.157,500.564,1716.017Z" transform="translate(-459.37 -1704.495)" fill="#fff"/>
  <path id="Trazado_53" data-name="Trazado 53" d="M394.32,1684.705l-1.02,2.5q-5.307,13.024-10.617,26.047c-.184.453-.06.363-.552.364q-3.62.005-7.24,0c-.3,0-.3,0-.188-.274q5.807-14.227,11.614-28.454c.048-.117.087-.2.252-.2q3.814.01,7.629.005C394.228,1684.694,394.258,1684.7,394.32,1684.705Z" transform="translate(-374.636 -1684.689)" fill="#fff"/>
  <path id="Trazado_54" data-name="Trazado 54" d="M581.254,1733.61a19.115,19.115,0,0,1-6.275-.954,12.177,12.177,0,0,1-2.818-1.391c-.121-.081-.154-.144-.1-.288q.762-1.943,1.5-3.893c.062-.162.113-.163.248-.076a13.643,13.643,0,0,0,5.376,2.061,9.132,9.132,0,0,0,3.437.013,2.6,2.6,0,0,0,1.091-.5,1.413,1.413,0,0,0-.192-2.365,6.952,6.952,0,0,0-1.835-.61c-1.54-.369-3.105-.635-4.623-1.1a8.932,8.932,0,0,1-1.8-.771,4.716,4.716,0,0,1-2.5-3.6,5.569,5.569,0,0,1,1.2-4.6,7.026,7.026,0,0,1,2.481-1.834,11.663,11.663,0,0,1,5.372-.979,13.513,13.513,0,0,1,7.293,2.359.22.22,0,0,1,.1.324q-.755,1.847-1.484,3.7c-.071.182-.124.168-.261.074a11.9,11.9,0,0,0-4.253-1.887,7.39,7.39,0,0,0-3.381-.025,2.756,2.756,0,0,0-.852.376,1.517,1.517,0,0,0-.694,1.6,1.181,1.181,0,0,0,.646.866,6.235,6.235,0,0,0,1.669.6c1.053.245,2.1.508,3.163.719a11.734,11.734,0,0,1,3.2,1.1,4.82,4.82,0,0,1,2.705,3.556,5.659,5.659,0,0,1-1.153,4.9,6.929,6.929,0,0,1-3.208,2.023A13.309,13.309,0,0,1,581.254,1733.61Z" transform="translate(-514.135 -1704.496)" fill="#fff"/>
  <path id="Trazado_55" data-name="Trazado 55" d="M714.7,1727.165a13.542,13.542,0,0,0,3.5,1.681,12.366,12.366,0,0,0,4.849.6,3.071,3.071,0,0,0,1.719-.611,1.409,1.409,0,0,0-.2-2.361,7.276,7.276,0,0,0-1.969-.641c-1.387-.324-2.788-.586-4.162-.967a9.416,9.416,0,0,1-2.128-.874,4.778,4.778,0,0,1-2.533-3.942,5.5,5.5,0,0,1,1.9-4.912,8.259,8.259,0,0,1,3.806-1.842,13.62,13.62,0,0,1,10.356,1.823c.174.108.42.206.476.364.05.141-.114.36-.187.543-.443,1.108-.891,2.214-1.328,3.325-.065.167-.106.2-.271.09a11.924,11.924,0,0,0-4.186-1.871,7.4,7.4,0,0,0-3.47-.029,2.673,2.673,0,0,0-1.03.524,1.424,1.424,0,0,0,.26,2.37,10.614,10.614,0,0,0,2.15.681c1.421.34,2.866.588,4.257,1.051a7.261,7.261,0,0,1,2.931,1.674,4.078,4.078,0,0,1,1.276,2.822c.016.518-.021,1.039.008,1.556a4.162,4.162,0,0,1-1,2.843,6.808,6.808,0,0,1-3.412,2.229,13.6,13.6,0,0,1-4.268.572,19.247,19.247,0,0,1-4.936-.615,13.014,13.014,0,0,1-3.871-1.7.239.239,0,0,1-.116-.344c.51-1.294,1.008-2.594,1.51-3.891C714.65,1727.271,714.669,1727.229,714.7,1727.165Z" transform="translate(-613.817 -1704.676)" fill="#fff"/>
  <path id="Trazado_56" data-name="Trazado 56" d="M438.684,1687.889l.75,1.75,11.128,26c.1.234.1.235-.149.235q-4.01,0-8.02.005a.3.3,0,0,1-.328-.225q-3.667-8.913-7.349-17.819a.557.557,0,0,1,0-.472q1.937-4.618,3.862-9.239C438.605,1688.063,438.636,1688,438.684,1687.889Z" transform="translate(-417.056 -1686.95)" fill="#fff"/>
</svg>
