<svg xmlns="http://www.w3.org/2000/svg" width="105.47" height="81.018" viewBox="0 0 105.47 81.018">
  <g id="Grupo_63" data-name="Grupo 63" transform="translate(0 0)">
    <g id="Grupo_62" data-name="Grupo 62" transform="translate(0 70.715)">
      <path id="Trazado_223" data-name="Trazado 223" d="M-96.3,2262.421h1.75v9.961H-96.3Z" transform="translate(96.303 -2262.25)" fill="#fff"/>
      <path id="Trazado_224" data-name="Trazado 224" d="M-71.737,2262.421h1.622l5.336,6.887v-6.887h1.722v9.961h-1.466l-5.493-7.086v7.086h-1.722Z" transform="translate(79.509 -2262.25)" fill="#fff"/>
      <path id="Trazado_225" data-name="Trazado 225" d="M-26.654,2262.421h7.414v1.594H-24.9v2.718h5.024v1.593H-24.9v4.056h-1.75Z" transform="translate(48.688 -2262.25)" fill="#fff"/>
      <path id="Trazado_226" data-name="Trazado 226" d="M12.713,2262.421h1.75v9.961h-1.75Z" transform="translate(21.775 -2262.25)" fill="#fff"/>
      <path id="Trazado_227" data-name="Trazado 227" d="M37.639,2262.421h1.622l5.336,6.887v-6.887h1.722v9.961H44.854l-5.493-7.086v7.086H37.639Z" transform="translate(4.735 -2262.25)" fill="#fff"/>
      <path id="Trazado_228" data-name="Trazado 228" d="M82.362,2262.421h7.385v1.565H84.112v2.59h4.995v1.565H84.112v2.676h5.706v1.565H82.362Z" transform="translate(-25.84 -2262.25)" fill="#fff"/>
      <path id="Trazado_229" data-name="Trazado 229" d="M122.407,2262.421h4.44a4.014,4.014,0,0,1,2.874,1,3.011,3.011,0,0,1,.825,2.149v.028a2.989,2.989,0,0,1-2.376,3.017l2.69,3.771H128.8l-2.447-3.472h-2.192v3.472h-1.75Zm4.312,4.938c1.252,0,2.049-.655,2.049-1.665v-.028c0-1.068-.769-1.651-2.064-1.651h-2.547v3.344Z" transform="translate(-53.216 -2262.25)" fill="#fff"/>
      <path id="Trazado_230" data-name="Trazado 230" d="M163.081,2267.061v-.028a5.075,5.075,0,0,1,5.137-5.151,5.38,5.38,0,0,1,3.828,1.352l-1.11,1.323a3.9,3.9,0,0,0-2.789-1.067,3.37,3.37,0,0,0-3.231,3.515v.028a3.327,3.327,0,0,0,3.387,3.557,4.065,4.065,0,0,0,2.4-.754v-1.864h-2.547v-1.523h4.24v4.184a6.348,6.348,0,0,1-4.155,1.552A4.943,4.943,0,0,1,163.081,2267.061Z" transform="translate(-81.023 -2261.881)" fill="#fff"/>
      <path id="Trazado_231" data-name="Trazado 231" d="M210.455,2268.454l-3.956-6.033h2.063l2.789,4.411,2.817-4.411h2.006l-3.956,5.991v3.97h-1.764Z" transform="translate(-110.705 -2262.25)" fill="#fff"/>
    </g>
    <g id="Grupo_61" data-name="Grupo 61" transform="translate(0.182 39.11)">
      <path id="Trazado_218" data-name="Trazado 218" d="M-95.726,2172.388h9.475a7.63,7.63,0,0,1,5.522,1.871,4.733,4.733,0,0,1,1.418,3.5v.06a5.028,5.028,0,0,1-3.017,4.707c2.474.845,4.194,2.263,4.194,5.13v.061c0,3.771-3.108,5.793-7.815,5.793h-9.776Zm8.72,8.9c2.384,0,3.983-.936,3.983-2.867v-.06c0-1.66-1.327-2.686-3.712-2.686h-5.34v5.612Zm1.086,8.931c2.535,0,4.073-1,4.073-2.9v-.061c0-1.78-1.418-2.836-4.345-2.836h-5.884v5.794Z" transform="translate(95.726 -2172.237)" fill="#fff"/>
      <path id="Trazado_219" data-name="Trazado 219" d="M-24.351,2171.911h3.439l9.294,21.272h-3.923l-2.142-5.1h-9.988l-2.172,5.1h-3.8Zm5.31,12.885-3.651-8.449-3.621,8.449Z" transform="translate(53.285 -2171.911)" fill="#fff"/>
      <path id="Trazado_220" data-name="Trazado 220" d="M45.224,2172.388h3.44l11.316,14.6v-14.6H63.63v21.122H60.522l-11.647-15.026v15.026H45.224Z" transform="translate(-0.633 -2172.237)" fill="#fff"/>
      <path id="Trazado_221" data-name="Trazado 221" d="M117.988,2172.388h8.328c4.918,0,8.026,2.806,8.026,7.061v.06c0,4.737-3.8,7.212-8.449,7.212H121.7v6.789h-3.712Zm8.026,10.983c2.806,0,4.556-1.569,4.556-3.771v-.06c0-2.474-1.78-3.772-4.556-3.772H121.7v7.6Z" transform="translate(-50.378 -2172.237)" fill="#fff"/>
      <path id="Trazado_222" data-name="Trazado 222" d="M179.6,2184.548v-12.16h3.712v12.01c0,3.922,2.022,6.034,5.341,6.034,3.289,0,5.31-1.991,5.31-5.884v-12.16h3.712v11.979c0,6.307-3.561,9.475-9.082,9.475C183.1,2193.842,179.6,2190.674,179.6,2184.548Z" transform="translate(-92.495 -2172.237)" fill="#fff"/>
    </g>
    <g id="Grupo_105" data-name="Grupo 105" transform="translate(33.513)">
      <path id="Trazado_232" data-name="Trazado 232" d="M9.632,2088.505s1.889-6.252,11.353-11.372c7.788-4.214,9.723-13.342,7.994-21.738-1.906,3.312-4.039,6.213-9.951,9.347s-9.4,7.334-9.4,14.39c0,0,1.016-4.138,7.419-7.98,4.622-2.773,5.717-3.455,8.442-6.849-.8,2.032-2.652,4.051-10.194,9.4C9.71,2077.673,9.632,2082.586,9.632,2088.505Z" transform="translate(-9.632 -2055.395)" fill="#fff"/>
      <path id="Trazado_233" data-name="Trazado 233" d="M67.454,2088.505s1.889-6.252,11.353-11.372c7.789-4.214,9.723-13.342,7.994-21.738-1.906,3.312-4.039,6.213-9.951,9.347s-9.4,7.334-9.4,14.39c0,0,1.016-4.138,7.419-7.98,4.623-2.773,5.718-3.455,8.442-6.849-.8,2.032-2.652,4.051-10.194,9.4C67.532,2077.673,67.454,2082.586,67.454,2088.505Z" transform="translate(-49.162 -2055.395)" fill="#fff"/>
    </g>
  </g>
</svg>
