<svg xmlns="http://www.w3.org/2000/svg" width="172.806" height="52.74" viewBox="0 0 172.806 52.74">
  <g id="Grupo_56" data-name="Grupo 56" transform="translate(0 0)">
    <g id="Grupo_99" data-name="Grupo 99" transform="translate(122.438 0.153)">
      <path id="Trazado_190" data-name="Trazado 190" d="M1248.218,2092.282a25.153,25.153,0,1,0,25.038,25.164A25.171,25.171,0,0,0,1248.218,2092.282Zm-.137,48.946a23.792,23.792,0,1,1,23.8-23.792A23.9,23.9,0,0,1,1248.081,2141.228Z" transform="translate(-1222.887 -2092.282)" fill="#fff"/>
      <g id="Grupo_55" data-name="Grupo 55" transform="translate(3.701 3.665)">
        <path id="Trazado_191" data-name="Trazado 191" d="M1275.91,2121.608a19.424,19.424,0,0,0-3.255-8.817,27.25,27.25,0,0,0-4.15-4.676,19.653,19.653,0,0,0-24.154-2.87,27.358,27.358,0,0,0-5.044,4.139,20.06,20.06,0,0,0-6.066,11.879,19.352,19.352,0,0,0,2.623,12.641,25.874,25.874,0,0,0,4.031,4.978c4.7,4.776,10.317,7.054,17.046,6.313a19.429,19.429,0,0,0,9.148-3.575,27.853,27.853,0,0,0,3.907-3.538A19.8,19.8,0,0,0,1275.91,2121.608Zm-7.455-3.334a21.126,21.126,0,0,0,.74,2.156,9.77,9.77,0,0,1,.785,4.538,10.136,10.136,0,0,1-1,3.383c-.091.186-.181.373-.325.668.284-.116.464-.2.652-.264.781-.269,1.55-.583,2.349-.783.879-.219,1.418.419,1.038,1.244a3.324,3.324,0,0,1-.95,1.172,16.354,16.354,0,0,0-3.933,4.318,6.16,6.16,0,0,0-.6,1.317c-.139.43.136.688.561.536a2.679,2.679,0,0,0,.946-.541c.8-.774,1.562-1.592,2.337-2.395a.553.553,0,0,1,.276-.192c-.082.132-.158.269-.248.4a25.749,25.749,0,0,1-3.42,4.063,1.8,1.8,0,0,1-2.016.3,1.608,1.608,0,0,1-.942-1.555,3.924,3.924,0,0,1,.673-2.033,13.578,13.578,0,0,1,5.495-5.118,6.044,6.044,0,0,0,.81-.485,1.485,1.485,0,0,0,.279-.413c-.17-.033-.358-.13-.5-.087a10.755,10.755,0,0,0-1.444.513,12.636,12.636,0,0,0-6.277,6.164,2.749,2.749,0,0,0-.2,2.468,2.965,2.965,0,0,0,1.88,1.624c.137.043.279.074.512.135a18.059,18.059,0,0,1-22.74-.005,3.2,3.2,0,0,0,2-1.1,2.332,2.332,0,0,0,.532-2.162,9.236,9.236,0,0,0-2.2-3.82,12.134,12.134,0,0,0-5.243-3.651,4.116,4.116,0,0,0-.8-.2c-.1-.015-.224.088-.338.136.051.1.079.228.158.289a4.3,4.3,0,0,0,.631.4,13.96,13.96,0,0,1,5.249,4.427,7.071,7.071,0,0,1,1.189,2.295,1.815,1.815,0,0,1-.485,1.919,1.912,1.912,0,0,1-1.933.3.618.618,0,0,1-.234-.137,22,22,0,0,1-3.925-4.759c.625.669,1.238,1.351,1.879,2a9.981,9.981,0,0,0,1.073.924,1.923,1.923,0,0,0,.635.3c.4.113.655-.086.554-.485a4.609,4.609,0,0,0-.51-1.225,15.367,15.367,0,0,0-3.838-4.293,8.217,8.217,0,0,1-.931-.9,1.216,1.216,0,0,1-.225-.412.883.883,0,0,1,1.1-1.283c.884.289,1.758.612,2.635.921.072.025.141.056.3.12-.167-.361-.3-.648-.433-.937a9.152,9.152,0,0,1-.928-4.191,11.651,11.651,0,0,1,.917-3.649,17.334,17.334,0,0,0,.652-1.936,1.163,1.163,0,0,0-1-1.535,13.009,13.009,0,0,0-2.268.072,6.366,6.366,0,0,1-.955.08c.28-.145.555-.3.838-.431a16.747,16.747,0,0,1,4.858-1.675,5.576,5.576,0,0,1,4.963,1.653,28.3,28.3,0,0,1,2.185,2.43,2.009,2.009,0,0,0,2.258.739,2.1,2.1,0,0,0,1.686-1.357,3.846,3.846,0,0,0,.281-2.457,2.3,2.3,0,0,0-.407-.841,13.858,13.858,0,0,0-6.753-4.57,7.854,7.854,0,0,0-6.076.633,19.563,19.563,0,0,1,12-6.6c6.854-.878,12.619,2.182,16.639,6.628a.916.916,0,0,1-.17-.041,8.039,8.039,0,0,0-7.364-.126,15.916,15.916,0,0,0-4.849,3.452,3.275,3.275,0,0,0-.7,3.762c.5,1.458,1.749,1.609,2.964,1.573a.944.944,0,0,0,.563-.32c.664-.709,1.3-1.442,1.952-2.166a6.718,6.718,0,0,1,3.524-2.324,6.454,6.454,0,0,1,3.61.242c1.4.5,2.76,1.144,4.136,1.727.055.023.1.063.242.148-.795-.113-1.486-.24-2.183-.3a4.052,4.052,0,0,0-1.246.077A1.178,1.178,0,0,0,1268.455,2118.274Z" transform="translate(-1233.063 -2102.359)" fill="#fff"/>
        <path id="Trazado_192" data-name="Trazado 192" d="M1288.7,2175.832a12.394,12.394,0,0,0-2.783-3.831,1.254,1.254,0,0,0-2.074.017,18.708,18.708,0,0,0-1.868,2.229,10.649,10.649,0,0,0-1.111,2.242,1.771,1.771,0,0,0,.348,1.951,3.024,3.024,0,0,0,2.557.973c.919-.1,1.192-.661.645-1.418a1.8,1.8,0,0,0-.73-.5,5.474,5.474,0,0,0-.8-.2.623.623,0,0,1-.389-.936.669.669,0,0,1,.872-.335c.525.178,1.028.421,1.625.671a.856.856,0,0,1,.234-.177,10.171,10.171,0,0,1,1.385-.511.663.663,0,0,1,.752.586.65.65,0,0,1-.534.714c-.166.042-.336.061-.5.1a1.408,1.408,0,0,0-1.208,1.23c-.058.427.058.614.474.71a3.063,3.063,0,0,0,2.811-.757,1.756,1.756,0,0,0,.6-1.665A4.612,4.612,0,0,0,1288.7,2175.832Z" transform="translate(-1263.385 -2146.326)" fill="#fff"/>
        <path id="Trazado_193" data-name="Trazado 193" d="M1302.888,2156.6a1.648,1.648,0,0,0-1.644.629,8.279,8.279,0,0,0-.479.721,3.836,3.836,0,0,1-1.4,1.353.936.936,0,0,0-.592,1.193,7.476,7.476,0,0,0,.966,2.853,8.921,8.921,0,0,1,1.333,2.922c.107.6.14,1.216.209,1.855.039-.028.08-.044.1-.073a16.385,16.385,0,0,0,3.036-7.517,6.379,6.379,0,0,0-.186-2.806A1.6,1.6,0,0,0,1302.888,2156.6Zm.58,2.357a.829.829,0,0,1-.756.6,1.462,1.462,0,0,0-1.237.843,2.888,2.888,0,0,1-.381.459,2.961,2.961,0,0,1,1.411-3.1.582.582,0,0,1,.738.171A1.044,1.044,0,0,1,1303.468,2158.961Z" transform="translate(-1274.852 -2136.857)" fill="#fff"/>
        <path id="Trazado_194" data-name="Trazado 194" d="M1274.071,2163.941a11.111,11.111,0,0,0,.742-1.387,5.381,5.381,0,0,0,.554-2.55.707.707,0,0,0-.254-.515,4.671,4.671,0,0,1-2.016-1.982,1.74,1.74,0,0,0-1.852-.906,1.709,1.709,0,0,0-1.412,1.448,8.046,8.046,0,0,0-.014,3.05,14.092,14.092,0,0,0,2,5.386c.321.561.673,1.1,1.011,1.656l.09-.034a1.724,1.724,0,0,0,.017-.218A6.837,6.837,0,0,1,1274.071,2163.941Zm-1.4-3.548a1.514,1.514,0,0,0-1.234-.845.9.9,0,0,1-.68-1.388.657.657,0,0,1,1.093-.291,3.028,3.028,0,0,1,1.267,2.049,5.056,5.056,0,0,1,.007.826l-.126.043A2.069,2.069,0,0,1,1272.673,2160.393Z" transform="translate(-1256.359 -2136.854)" fill="#fff"/>
        <path id="Trazado_195" data-name="Trazado 195" d="M1258.222,2148.967a.861.861,0,0,0-1.089.8,5.611,5.611,0,0,0,.135,1.134c-.116-.035-.233-.066-.346-.11a4.193,4.193,0,0,0-3.47.253,1.159,1.159,0,0,0-.375,1.99,4.567,4.567,0,0,0,1.877,1.26,1.794,1.794,0,0,1,1.044.852,6.445,6.445,0,0,1,.7,2.239c.129,1.053.259,2.108.448,3.151a3.094,3.094,0,0,0,.827,1.585c0-.34.017-.57,0-.8q-.178-2-.374-3.995a4.792,4.792,0,0,0-.643-2.088,1.488,1.488,0,0,1-.1-.249l.391-.022c.526-.025.665-.261.428-.743a1.293,1.293,0,0,0-.87-.743,5.535,5.535,0,0,0-1.053-.111,2.971,2.971,0,0,1-1.589-.514,1.761,1.761,0,0,1-.487-.59.358.358,0,0,1,.207-.545,2.482,2.482,0,0,1,1.946-.167,4.075,4.075,0,0,1,.78.521.98.98,0,0,0,1.44-.112,3.619,3.619,0,0,0,.822-2.052C1258.911,2149.327,1258.689,2149.023,1258.222,2148.967Z" transform="translate(-1245.534 -2132.007)" fill="#fff"/>
        <path id="Trazado_196" data-name="Trazado 196" d="M1317.046,2150.763c-.161.061-.33.1-.547.17a1.587,1.587,0,0,0,.195-1.457.913.913,0,0,0-1.083-.509c-.386.066-.583.331-.592.8a3.64,3.64,0,0,0,.672,1.985.986.986,0,0,0,1.628.272,2.261,2.261,0,0,1,2.38-.447c.66.192.759.6.269,1.09a.813.813,0,0,1-.279.214c-.518.17-1.037.342-1.566.47-.3.073-.631.03-.936.093a1.309,1.309,0,0,0-1.059,1.081c-.018.269.067.433.366.432.177,0,.354.015.6.028a4.926,4.926,0,0,0-.795,2.621c-.063.994-.213,1.981-.313,2.974-.047.463-.069.928-.1,1.392l.155.051a2.813,2.813,0,0,0,.356-.591,19.557,19.557,0,0,0,.6-2.19c.163-.862.18-1.75.342-2.613a3.042,3.042,0,0,1,2.075-2.582,4.176,4.176,0,0,0,1.453-1.1,1.106,1.106,0,0,0-.325-1.86A4.192,4.192,0,0,0,1317.046,2150.763Z" transform="translate(-1285.208 -2132.001)" fill="#fff"/>
        <path id="Trazado_197" data-name="Trazado 197" d="M1289.746,2194.078a1.343,1.343,0,0,0-.233.033c-.823.04-1.647.1-2.47.1-.416,0-.831-.113-1.249-.149-.124-.01-.335.041-.364.119a.638.638,0,0,0,.054.439.721.721,0,0,0,.274.274,3.619,3.619,0,0,0,4.268-.014c.238-.161.466-.393.309-.679C1290.272,2194.09,1289.951,2194.106,1289.746,2194.078Z" transform="translate(-1266.369 -2160.708)" fill="#fff"/>
      </g>
    </g>
    <g id="Grupo_98" data-name="Grupo 98" transform="translate(0)">
      <path id="Trazado_175" data-name="Trazado 175" d="M1044.494,2140.668a5.728,5.728,0,0,0,5.551-1.134,4.676,4.676,0,0,0,.409-.442,3.456,3.456,0,0,0,3.012,1.834,4.9,4.9,0,0,0,2.53-.5c.864-.457,1.668-1.025,2.436-1.506a13.976,13.976,0,0,0,1.269,1.494,2.237,2.237,0,0,0,2,.494,3.4,3.4,0,0,0,2.553-2.238l-.358.1a.882.882,0,0,1-1.245-.708,3.411,3.411,0,0,1-.077-.781c-.006-2.262-.027-4.525.006-6.787a3.551,3.551,0,0,0-1.379-2.916,6.863,6.863,0,0,0-8.006-.343,5.294,5.294,0,0,0-2.377,4.082c.427-.436.806-.892,1.252-1.269a4.432,4.432,0,0,1,4.859-.793,2.2,2.2,0,0,1,1.359,1.538,1.1,1.1,0,0,1-.821,1.462c-.3.095-.6.18-.907.273-1.357.417-2.729.794-4.068,1.263a3.541,3.541,0,0,0-2.517,3.492c.029.713.029.713-.665.9q-.132.037-.268.065a1.876,1.876,0,0,1-2.418-1.438,5.9,5.9,0,0,1-.194-1.517c-.012-2.459,0-4.919.014-7.379,0-.114.019-.226.033-.384h4.337v-1.437h-4.348c0-.185,0-.328,0-.471q0-2.8.009-5.6c0-.54,0-.54-.634-.585-.388,3.152-1.78,5.568-5.067,6.549,0-.135,0-.262,0-.39.007-1.881.009-3.762.028-5.643a.487.487,0,0,0-.125-.377h.125v-.548c-.27-.042-.492-.07-.71-.112a1.672,1.672,0,0,1-1.559-1.743c-.044-2-.074-4,0-5.993a2.389,2.389,0,0,1,3.053-2.231,5.213,5.213,0,0,1,2.774,1.847c.108.124.209.252.354.427.338-1.777.664-3.475.972-5.177a.446.446,0,0,0-.165-.379,9.088,9.088,0,0,0-1.774-.818,2.276,2.276,0,0,0-2.539.817c-.767.969-1.587,1.9-2.384,2.84-.084.1-.176.193-.342.374v-3.751h-6.939v.488c.341.041.656.064.965.118a1.475,1.475,0,0,1,1.378,1.39,3.938,3.938,0,0,1,.05.627q0,4.437,0,8.874a5.75,5.75,0,0,1-.077.9,1.564,1.564,0,0,1-.554,1.023,12.252,12.252,0,0,0-3.19.717,6.234,6.234,0,0,0-4.184,6,5.991,5.991,0,0,0,2.444,4.581q2.828,2.311,5.658,4.618a4.754,4.754,0,0,1,1.856,4.595,4.188,4.188,0,0,1-4.281,3.736,6.754,6.754,0,0,1-5.386-2.844c-.088-.111-.172-.225-.264-.346l-.744.4a8.976,8.976,0,0,0,4.4,4.1c3.478,1.448,6.652.671,9.564-1.506a5.114,5.114,0,0,0,2.1-3.581,10.189,10.189,0,0,0,.016-2.666,7.813,7.813,0,0,0-3.022-5.261c-2.133-1.629-4.231-3.3-6.337-4.969a3.209,3.209,0,0,1-.406-4.949,4.3,4.3,0,0,1,6.6.086,7.809,7.809,0,0,1,1.7,3.472c.2.906.305,1.835.461,2.8h1.59v.509c0,2.565-.019,5.13.012,7.7a9.8,9.8,0,0,0,.267,2.221A3.465,3.465,0,0,0,1044.494,2140.668Zm10.955-6.248q1.38-.629,2.761-1.257c.021-.01.05,0,.111,0,0,1.308.049,2.6-.015,3.878a1.878,1.878,0,0,1-1.98,1.877,2.132,2.132,0,0,1-2.277-1.9A2.222,2.222,0,0,1,1055.449,2134.42Z" transform="translate(-974.974 -2100.056)" fill="#fff"/>
      <path id="Trazado_176" data-name="Trazado 176" d="M1133.518,2130.781a8.953,8.953,0,0,0,8.9,1.42,6.534,6.534,0,0,0,3.984-3.912c.2-.506.19-.541-.265-.8-.522.582-1.015,1.182-1.561,1.729a5.007,5.007,0,0,1-3.036,1.454,4.318,4.318,0,0,1-4.421-1.969,7.131,7.131,0,0,1-1.164-2.985c-.068-.458-.081-.924-.122-1.434h10.139c-.109-.594-.177-1.141-.313-1.671a5.572,5.572,0,0,0-4.217-4.436,9.378,9.378,0,0,0-3.532-.1,8.237,8.237,0,0,0-4.44,1.882,7.494,7.494,0,0,0-1.586,8.846c.153.283.133.45-.115.615a7.658,7.658,0,0,1-1.056.678,1.721,1.721,0,0,1-2.49-1.1,4.891,4.891,0,0,1-.231-1.469c-.024-2.564-.014-5.129-.016-7.694,0-.138.013-.275.022-.457h4.319v-1.407h-4.342v-.513c0-1.867-.008-3.735.013-5.6a.667.667,0,0,0-.09-.389c2.033,0,4.066,0,6.1,0,.114,0,.228-.013.333-.02.118-.355.044-.537-.326-.654a2.2,2.2,0,0,1-1.717-2.377q0-7.989,0-15.979c0-.163-.014-.327-.021-.476h-6.689c.009.159.015.285.023.433.3.026.575.047.849.076,1.117.114,1.441.46,1.484,1.58.007.171.006.342,0,.513q-.023,1.755-.049,3.511c0,.1-.016.2-.026.321-.366-.248-.682-.5-1.035-.693a6.521,6.521,0,0,0-7.507,1.047,7.684,7.684,0,0,0-2.137,7.567,5.884,5.884,0,0,0,4.572,4.75,12.812,12.812,0,0,0,2.962.384c.9.014,1.792.012,2.688.016-.019.084-.035.169-.053.253a7.379,7.379,0,0,1-3.618,5.29c-.66.369-1.4.594-2.1.9-.112.049-.271.158-.278.249-.03.4-.013.806-.013,1.247.519,0,.991.024,1.46-.008.363-.025.435.111.433.448q-.019,4.084,0,8.167a5.958,5.958,0,0,0,.145,1.406,4.713,4.713,0,0,0,7.464,2.384,17.606,17.606,0,0,0,1.761-1.873A11.388,11.388,0,0,0,1133.518,2130.781Zm2.818-9.39a3.338,3.338,0,0,1,1.449-1.857,1.878,1.878,0,0,1,2.419.278,3.913,3.913,0,0,1,1.056,3.069h-5.3C1136.09,2122.36,1136.176,2121.863,1136.335,2121.391Zm-13.211-12.559a7.748,7.748,0,0,1-.974-8.458,3.26,3.26,0,0,1,3.545-1.929,2.293,2.293,0,0,1,2.238,2.468c.015,1.3,0,2.6,0,3.906s0,2.6,0,3.906a1.543,1.543,0,0,1-1.739,1.677A4.237,4.237,0,0,1,1123.124,2108.832Z" transform="translate(-1033.341 -2091.925)" fill="#fff"/>
      <path id="Trazado_177" data-name="Trazado 177" d="M919.117,2099.207a9.146,9.146,0,0,0-11.847-.238,6.5,6.5,0,0,0-2.417,6.605,1.488,1.488,0,0,1-.689,1.81c-.054.036-.1.085-.151.127a8.14,8.14,0,0,1-4.718,2,5.716,5.716,0,0,1-5.531-3.129,10.134,10.134,0,0,1-.321-9.722,5.586,5.586,0,0,1,5.053-3.426c2.866-.123,4.99,1.057,5.884,4.012.114.377.2.762.288,1.146.063.264.114.53.17.793.706-.125.7-.125.7-.789q-.02-2.091-.037-4.182c0-.682,0-1.365,0-2.062-.394-.081-.622-.089-.778.28a.881.881,0,0,1-1.156.465q-.774-.232-1.553-.45a13.044,13.044,0,0,0-8.107.119c-4.233,1.511-6.653,4.642-6.8,8.914a9.725,9.725,0,0,0,1.765,6.37,10.723,10.723,0,0,0,11.316,3.435,12.359,12.359,0,0,0,5.041-3.351,2.208,2.208,0,0,0,.253-.436c.306.432.49.72.7.988a9.061,9.061,0,0,0,13.082.772A6.764,6.764,0,0,0,919.117,2099.207Zm-2.928,8.92a5.788,5.788,0,0,1-1.134,1.449,2.933,2.933,0,0,1-4.11.031,6.476,6.476,0,0,1-2.024-4.038c-.071-.44-.086-.888-.126-1.333a7.761,7.761,0,0,1,1.1-4.1,5.825,5.825,0,0,1,1.121-1.309,2.955,2.955,0,0,1,4,.03,6.025,6.025,0,0,1,1.919,3.495A8.219,8.219,0,0,1,916.189,2108.127Z" transform="translate(-887.09 -2091.862)" fill="#fff"/>
      <path id="Trazado_178" data-name="Trazado 178" d="M1080.6,2109.766a4.719,4.719,0,0,1,5.163-.986,2.231,2.231,0,0,1,1.429,1.572,1.078,1.078,0,0,1-.8,1.43c-1.208.367-2.422.711-3.626,1.091a14.773,14.773,0,0,0-2.22.8,3.392,3.392,0,0,0-1.826,3.659,3.49,3.49,0,0,0,2.851,3.035,5.9,5.9,0,0,0,4.3-.915c.519-.329.993-.729,1.511-1.114.617,1.394,1.6,2.341,3.243,2.119a3.286,3.286,0,0,0,2.677-2.251c-.173.052-.282.086-.392.117a.893.893,0,0,1-1.245-.718,3.8,3.8,0,0,1-.078-.822c-.006-2.249-.031-4.5.008-6.746a3.4,3.4,0,0,0-1.4-2.9,6.9,6.9,0,0,0-6.535-1.122,5.4,5.4,0,0,0-4.113,4.85C1079.907,2110.483,1080.225,2110.1,1080.6,2109.766Zm6.641,6.668a1.944,1.944,0,0,1-1.9,2.026,2.184,2.184,0,0,1-2.45-1.7,2.286,2.286,0,0,1,1.372-2.8c.88-.346,1.728-.772,2.591-1.16.1-.047.214-.08.4-.148C1087.246,2113.965,1087.278,2115.2,1087.236,2116.434Z" transform="translate(-1008.987 -2100.638)" fill="#fff"/>
      <path id="Trazado_179" data-name="Trazado 179" d="M1014.277,2107.964a9.164,9.164,0,0,0-12.17.232,6.74,6.74,0,0,0,.022,9.91,8.5,8.5,0,0,0,5.816,2.417,9.224,9.224,0,0,0,5.61-1.624A6.826,6.826,0,0,0,1014.277,2107.964Zm-3.333,9.8a4.72,4.72,0,0,1-.647.688,2.962,2.962,0,0,1-4.056.022,6.23,6.23,0,0,1-2-3.752,7.943,7.943,0,0,1,.662-5.257,6.409,6.409,0,0,1,1.324-1.738,2.94,2.94,0,0,1,4.14.049,6.29,6.29,0,0,1,1.882,3.687c.1.527.128,1.068.167,1.407A8.041,8.041,0,0,1,1010.943,2117.767Z" transform="translate(-958.897 -2100.708)" fill="#fff"/>
      <path id="Trazado_180" data-name="Trazado 180" d="M1165.648,2107.922a6.777,6.777,0,0,0,.068,10.5,8.306,8.306,0,0,0,5.054,2.1,9.747,9.747,0,0,0,6.151-1.707,6.807,6.807,0,0,0,.811-10.652A9.173,9.173,0,0,0,1165.648,2107.922Zm8.833,9.419a5.6,5.6,0,0,1-1.125,1.252,2.887,2.887,0,0,1-3.682.036,5.215,5.215,0,0,1-1.73-2.352,8.4,8.4,0,0,1,.071-6.561,5.069,5.069,0,0,1,1.656-2.167,2.945,2.945,0,0,1,3.694.028,5.922,5.922,0,0,1,2.083,3.652c.127.6.162,1.221.24,1.832A8.06,8.06,0,0,1,1174.48,2117.341Z" transform="translate(-1062.763 -2100.71)" fill="#fff"/>
      <path id="Trazado_181" data-name="Trazado 181" d="M984.724,2109.129a8.549,8.549,0,0,1-.039-.946q0-7.87,0-15.741v-.508h-6.9v.542c.093.016.144.028.2.033,1.7.169,2.058.565,2.058,2.268q0,6.649,0,13.3a10.654,10.654,0,0,1-.059,1.18,1.475,1.475,0,0,1-1.239,1.479c-.279.062-.566.085-.855.126v.568h9.01v-.546c-.236-.038-.444-.064-.65-.106A1.657,1.657,0,0,1,984.724,2109.129Z" transform="translate(-944.796 -2091.908)" fill="#fff"/>
      <path id="Trazado_182" data-name="Trazado 182" d="M1093.927,2210.829c.16-.026.158-.1.129-.22h-1.964c0,.037,0,.064,0,.091s.005.06.008.1l.1.018a.512.512,0,0,1,.479.688,2.313,2.313,0,0,1-.181.5c-.27.559-.55,1.112-.826,1.667-.013.026-.03.05-.053.087-.019-.033-.031-.05-.04-.069q-.539-1.05-1.075-2.1a1.058,1.058,0,0,1-.073-.173.409.409,0,0,1,.3-.576c.15-.042.151-.118.122-.234h-5.228v.175c.116.011.219.017.322.031a.518.518,0,0,1,.491.515c.009.112.015.225.015.337q0,1.411,0,2.822a3.089,3.089,0,0,1-.019.35.533.533,0,0,1-.5.5.6.6,0,0,1-.633-.435,2.639,2.639,0,0,1-.052-.509c-.005-.716.005-1.431,0-2.147a1.637,1.637,0,0,0-1.986-1.625,2.1,2.1,0,0,0-1.407,1c-.028.042-.054.085-.081.128l-.036-.011V2210.6h-2.24v.176c.1.011.184.02.272.032a.491.491,0,0,1,.482.5c.009.107.012.216.012.323q0,1.128,0,2.255c0,.293,0,.586-.01.877a.544.544,0,0,1-.517.57.6.6,0,0,1-.725-.542,2.545,2.545,0,0,1-.01-.27q0-2.734,0-5.469v-.153H1076.8l.007.159c.124.017.231.025.336.049a.449.449,0,0,1,.4.428,2.382,2.382,0,0,1,.018.337q0,1.9,0,3.808c0,.538,0,.539-.413.894a2.079,2.079,0,0,1-1.007.52,1.154,1.154,0,0,1-1.365-.785,2.146,2.146,0,0,1-.077-.585c-.006-1.553,0-3.106,0-4.658v-.166h-2.257v.168l.1.007c.469.026.635.2.64.668,0,.041,0,.081,0,.122q0,.971,0,1.944c0,.595-.007,1.188,0,1.782a2.015,2.015,0,0,0,.963,1.808,2.566,2.566,0,0,0,2.7-.131c.2-.166.395-.342.592-.513l.108-.093v.878h4.9v-.16a.662.662,0,0,0-.067-.016.657.657,0,0,1-.636-.728q-.008-1.194-.014-2.389a.173.173,0,0,1,.016-.078,1.449,1.449,0,0,1,.9-.787.817.817,0,0,1,1.052.465,1.944,1.944,0,0,1,.117.63c.016.5.006,1,0,1.5,0,.233,0,.468-.008.7a.586.586,0,0,1-.507.635c-.074.014-.148.023-.223.035v.192h5.662v-.177l-.192-.017a.592.592,0,0,1-.613-.647c0-.04,0-.08,0-.121q0-1.809,0-3.618c0-.048,0-.095.007-.147a.934.934,0,0,1,.7.393,5.347,5.347,0,0,1,.415.677q.884,1.766,1.749,3.543a.209.209,0,0,0,.213.134c.118,0,.153-.057.194-.142.577-1.194,1.152-2.388,1.738-3.578a4.63,4.63,0,0,1,.4-.64A.9.9,0,0,1,1093.927,2210.829Z" transform="translate(-1005.02 -2166.333)" fill="#fff"/>
      <path id="Trazado_183" data-name="Trazado 183" d="M1180.959,2209.547c-.038.145,0,.215.148.257a.58.58,0,0,1,.473.718,2.521,2.521,0,0,1-.176.62c-.258.608-.534,1.208-.8,1.812a.682.682,0,0,1-.039.065c-.02-.034-.034-.055-.046-.078-.371-.734-.744-1.467-1.11-2.2a2.724,2.724,0,0,1-.182-.491.319.319,0,0,1,.218-.418c.086-.035.177-.055.265-.082v-.208h-.164c-1.122,0-2.244,0-3.365,0-.127,0-.169-.029-.168-.162.008-.648,0-1.3.008-1.944,0-.142-.053-.191-.187-.195a2.455,2.455,0,0,1-2.022,2.3v.479h.579v.182c0,.954-.006,1.908,0,2.862a1.579,1.579,0,0,0,1.87,1.536,1.789,1.789,0,0,0,1.267-.922c.117-.19.11-.213-.046-.326a4.407,4.407,0,0,1-.582.353.563.563,0,0,1-.774-.333,1.411,1.411,0,0,1-.1-.5c-.012-.914-.007-1.828-.012-2.741,0-.1.039-.115.121-.108a2.62,2.62,0,0,1,.927.223,1.349,1.349,0,0,1,.662.611q.985,1.972,1.964,3.948a.182.182,0,0,1,0,.146,9.76,9.76,0,0,1-.55.926,1.64,1.64,0,0,1-1.713.664c-.122-.02-.243-.049-.37-.076-.108.509-.213,1.008-.326,1.544.2,0,.375,0,.549,0A2.021,2.021,0,0,0,1179.1,2217a7.175,7.175,0,0,0,.378-.7c.6-1.3,1.2-2.614,1.8-3.92q.441-.954.9-1.9a1.256,1.256,0,0,1,.844-.682c.171-.047.169-.052.134-.251Z" transform="translate(-1069.519 -2165.272)" fill="#fff"/>
      <path id="Trazado_184" data-name="Trazado 184" d="M1135.016,2216.771c-.126.152-.247.308-.38.455a1.856,1.856,0,0,1-1.194.647,1.478,1.478,0,0,1-1.5-.668,2.432,2.432,0,0,1-.4-1.007c-.025-.163-.03-.327-.047-.508h3.472c-.038-.208-.061-.391-.106-.569a1.855,1.855,0,0,0-1.347-1.493,3.159,3.159,0,0,0-2.6.41,2.334,2.334,0,0,0-1.033,2.083,2.193,2.193,0,0,0,1.04,1.947,3.07,3.07,0,0,0,2.791.343,2.29,2.29,0,0,0,1.406-1.35A.2.2,0,0,0,1135.016,2216.771Zm-2.8-2.741a.625.625,0,0,1,.7.06,1.275,1.275,0,0,1,.431,1.114h-1.771A1.323,1.323,0,0,1,1132.217,2214.03Z" transform="translate(-1041.566 -2169.264)" fill="#fff"/>
      <path id="Trazado_185" data-name="Trazado 185" d="M1147.905,2213.527a3.733,3.733,0,0,0-.573-.26.789.789,0,0,0-.892.281c-.263.331-.544.648-.818.971-.027.031-.057.06-.109.116v-1.282h-2.374v.172c.113.013.216.021.319.038a.516.516,0,0,1,.488.492,1.21,1.21,0,0,1,.011.188q0,1.532,0,3.064a1.768,1.768,0,0,1-.029.309.5.5,0,0,1-.421.433c-.1.021-.212.03-.327.046v.2h3.124v-.188l-.148-.025c-.461-.075-.63-.256-.636-.718-.008-.621-.013-1.242,0-1.863a.842.842,0,0,1,1.173-.809,1.894,1.894,0,0,1,.84.613l.109.131c.115-.6.223-1.174.334-1.747A.131.131,0,0,0,1147.905,2213.527Z" transform="translate(-1050.005 -2169.083)" fill="#fff"/>
      <path id="Trazado_186" data-name="Trazado 186" d="M1159.867,2215.8a5.021,5.021,0,0,0-.786-.413c-.312-.139-.638-.245-.953-.378a1.458,1.458,0,0,1-.37-.218.435.435,0,0,1,.071-.75,1.16,1.16,0,0,1,.731-.137,1.641,1.641,0,0,1,1.324.966c.067.13.137.188.3.14,0-.323-.006-.646,0-.969a.173.173,0,0,0-.141-.2,5.506,5.506,0,0,0-1.93-.258,1.671,1.671,0,0,0-1.149.5,1.269,1.269,0,0,0,.186,1.967,2.679,2.679,0,0,0,.436.242c.356.152.721.281,1.075.437a2.821,2.821,0,0,1,.6.332.626.626,0,0,1-.066,1.062.921.921,0,0,1-.282.122,1.415,1.415,0,0,1-1.217-.294,2.85,2.85,0,0,1-.793-.995.221.221,0,0,0-.3-.13v1.539a1,1,0,0,0,.1.032,8.689,8.689,0,0,0,1.9.239,1.956,1.956,0,0,0,1.473-.624A1.44,1.44,0,0,0,1159.867,2215.8Z" transform="translate(-1058.558 -2169.308)" fill="#fff"/>
      <path id="Trazado_187" data-name="Trazado 187" d="M1169.066,2217.661c0-.05,0-.1,0-.148v-3.939h-2.314v.176c.122.012.23.018.336.034a.527.527,0,0,1,.49.533c0,.077.006.153.006.229q0,1.493,0,2.984c0,.072,0,.144-.007.216a.55.55,0,0,1-.491.555c-.087.018-.176.029-.263.043v.172h3.056v-.175l-.153-.015A.609.609,0,0,1,1169.066,2217.661Z" transform="translate(-1065.028 -2169.302)" fill="#fff"/>
      <path id="Trazado_188" data-name="Trazado 188" d="M1168.7,2205.923a.809.809,0,0,0,.8,1.093.827.827,0,0,0,.87-.618.8.8,0,0,0-.845-.988A.845.845,0,0,0,1168.7,2205.923Z" transform="translate(-1066.234 -2164.108)" fill="#fff"/>
      <path id="Trazado_189" data-name="Trazado 189" d="M1110.6,2205.952a.807.807,0,0,0,.82,1.072.826.826,0,0,0,.849-.594.808.808,0,0,0-.911-1.008A.8.8,0,0,0,1110.6,2205.952Z" transform="translate(-1029.271 -2164.112)" fill="#fff"/>
    </g>
  </g>
</svg>
