<svg xmlns="http://www.w3.org/2000/svg" width="132.134" height="44.05" viewBox="0 0 132.134 44.05">
  <g id="Grupo_34" data-name="Grupo 34" transform="translate(0 0)">
    <path id="Trazado_62" data-name="Trazado 62" d="M1738.361,1762.738l-.772,4.688s-3.467-1.945-5.454-1.686-2.095,1.755-1,2.575c1.313.985,5.04.95,7.033,3.456,1.756,2.208,1.051,5.679,0,7.1a7.454,7.454,0,0,1-6.342,2.713c-2.644-.052-6.774-1.123-7.362-1.762l1.089-4.459a18.7,18.7,0,0,0,5.5,1.625c2.427.255,2.965-.675,2.955-1.313s-.046-1.352-2.828-1.957c-3.11-.676-6.192-2.864-6.313-5.387s.847-6.1,5.747-6.752C1733.936,1761.137,1738.361,1762.738,1738.361,1762.738Z" transform="translate(-1607.1 -1749.546)" fill="#fff"/>
    <path id="Trazado_61" data-name="Trazado 61" d="M1691.667,1762.738l-.772,4.688s-3.467-1.945-5.455-1.686-2.1,1.755-1,2.575c1.313.985,5.04.95,7.033,3.456,1.756,2.208,1.051,5.679,0,7.1a7.455,7.455,0,0,1-6.342,2.713c-2.644-.052-6.774-1.123-7.361-1.762l1.089-4.459a18.7,18.7,0,0,0,5.5,1.625c2.426.255,2.964-.675,2.955-1.313s-.047-1.352-2.829-1.957c-3.11-.676-6.192-2.864-6.313-5.387s.847-6.1,5.747-6.752C1687.242,1761.137,1691.667,1762.738,1691.667,1762.738Z" transform="translate(-1576.35 -1749.546)" fill="#fff"/>
    <path id="Trazado_60" data-name="Trazado 60" d="M1643.972,1762.738l-.772,4.688s-3.468-1.945-5.455-1.686-2.1,1.755-1,2.575c1.313.985,5.04.95,7.033,3.456,1.756,2.208,1.051,5.679,0,7.1a7.454,7.454,0,0,1-6.342,2.713c-2.644-.052-6.774-1.123-7.361-1.762l1.089-4.459a18.7,18.7,0,0,0,5.5,1.625c2.426.255,2.964-.675,2.955-1.313s-.047-1.352-2.829-1.957c-3.11-.676-6.192-2.864-6.313-5.387s.846-6.1,5.747-6.752C1639.547,1761.137,1643.972,1762.738,1643.972,1762.738Z" transform="translate(-1544.942 -1749.546)" fill="#fff"/>
    <path id="Trazado_59" data-name="Trazado 59" d="M1598.9,1761.729v4.523h-7.225v2.813h5.239l.662,4.412h-5.9v3.53h7.225v4.3H1585.66v-19.579Z" transform="translate(-1515.694 -1749.695)" fill="#fff"/>
    <path id="Trazado_57" data-name="Trazado 57" d="M1470.218,1726.488v5.528l21.887,10.214v5.7l-21.887-9.285v6.5l21.887,9.153-21.887,9.949v6.288l27.458-12.125v-19.764Z" transform="translate(-1439.464 -1726.488)" fill="#fff"/>
    <path id="Trazado_58" data-name="Trazado 58" d="M1408.222,1770.537v-5.528l-21.887-10.214v-5.7l21.887,9.285v-6.5l-21.887-9.152,21.887-9.949v-6.288l-27.458,12.125v19.764Z" transform="translate(-1380.764 -1726.488)" fill="#fff"/>
  </g>
</svg>
