<svg xmlns="http://www.w3.org/2000/svg" width="187.869" height="33.327" viewBox="0 0 187.869 33.327">
  <g id="Grupo_49" data-name="Grupo 49" transform="translate(0 0)">
    <g id="Grupo_48" data-name="Grupo 48" transform="translate(35.33 0)">
      <g id="Grupo_46" data-name="Grupo 46" transform="translate(15.133 25.858)">
        <path id="Trazado_123" data-name="Trazado 123" d="M-110.808,1853.463a2.579,2.579,0,0,1-1.676-.482,1.849,1.849,0,0,1-.65-1.376h.842a1.444,1.444,0,0,0,.173.568,1.076,1.076,0,0,0,.33.356,1.317,1.317,0,0,0,.452.188,2.512,2.512,0,0,0,.549.056,1.409,1.409,0,0,0,.934-.249.785.785,0,0,0,.284-.614.807.807,0,0,0-.076-.371.631.631,0,0,0-.244-.249,1.687,1.687,0,0,0-.426-.172q-.259-.071-.624-.152-.386-.081-.741-.173a2.206,2.206,0,0,1-.624-.259,1.288,1.288,0,0,1-.432-.441,1.36,1.36,0,0,1-.163-.7,1.284,1.284,0,0,1,.482-1.051,2.194,2.194,0,0,1,1.406-.391,2.172,2.172,0,0,1,1.478.437,1.837,1.837,0,0,1,.584,1.209h-.843a1.091,1.091,0,0,0-.355-.757,1.384,1.384,0,0,0-.883-.238,1.207,1.207,0,0,0-.812.218.688.688,0,0,0-.244.533.619.619,0,0,0,.092.351.693.693,0,0,0,.274.228,2,2,0,0,0,.447.152q.264.061.6.132.4.081.747.177a2.159,2.159,0,0,1,.62.274,1.253,1.253,0,0,1,.421.462,1.563,1.563,0,0,1,.153.741,1.513,1.513,0,0,1-.153.7,1.374,1.374,0,0,1-.426.5,1.985,1.985,0,0,1-.655.3A3.256,3.256,0,0,1-110.808,1853.463Z" transform="translate(113.134 -1846.05)" fill="#fff"/>
        <path id="Trazado_124" data-name="Trazado 124" d="M-86.676,1853.424a2.527,2.527,0,0,1-1.071-.218,2.335,2.335,0,0,1-.8-.594,2.642,2.642,0,0,1-.5-.879,3.268,3.268,0,0,1-.172-1.071,3.192,3.192,0,0,1,.177-1.071,2.652,2.652,0,0,1,.508-.878,2.443,2.443,0,0,1,.787-.594,2.326,2.326,0,0,1,1.016-.218,2.367,2.367,0,0,1,1.041.218,2.118,2.118,0,0,1,.756.609,2.746,2.746,0,0,1,.462.934,4.283,4.283,0,0,1,.157,1.193h-4.062a2.631,2.631,0,0,0,.143.742,1.9,1.9,0,0,0,.335.6,1.487,1.487,0,0,0,.518.4,1.647,1.647,0,0,0,.7.142,1.556,1.556,0,0,0,.945-.269,1.409,1.409,0,0,0,.508-.808h.8a2.165,2.165,0,0,1-.771,1.31A2.349,2.349,0,0,1-86.676,1853.424Zm-.051-4.874a1.569,1.569,0,0,0-.65.127,1.367,1.367,0,0,0-.482.355,1.934,1.934,0,0,0-.325.538,2.492,2.492,0,0,0-.167.665h3.158a1.981,1.981,0,0,0-.432-1.239A1.387,1.387,0,0,0-86.726,1848.55Z" transform="translate(98.82 -1846.021)" fill="#fff"/>
        <path id="Trazado_125" data-name="Trazado 125" d="M-63.523,1848.046h.822v.751h.02a1.942,1.942,0,0,1,.645-.629,1.688,1.688,0,0,1,.9-.244,1.475,1.475,0,0,1,.843.239,1.407,1.407,0,0,1,.528.7h.02a1.735,1.735,0,0,1,.685-.7,1.87,1.87,0,0,1,.919-.239,1.583,1.583,0,0,1,1.147.432,1.664,1.664,0,0,1,.447,1.254v3.686h-.822v-3.645a1.009,1.009,0,0,0-.284-.762.948.948,0,0,0-.68-.274,1.164,1.164,0,0,0-.488.107,1.313,1.313,0,0,0-.411.294,1.454,1.454,0,0,0-.284.447,1.473,1.473,0,0,0-.106.564v3.269h-.823v-3.645a1.093,1.093,0,0,0-.249-.762.844.844,0,0,0-.655-.274,1.174,1.174,0,0,0-.482.107,1.486,1.486,0,0,0-.432.294,1.526,1.526,0,0,0-.314.447,1.308,1.308,0,0,0-.122.564v3.269h-.822Z" transform="translate(83.445 -1846.036)" fill="#fff"/>
        <path id="Trazado_126" data-name="Trazado 126" d="M-31.966,1843.221h.822v1.015h-.822Zm0,2.01h.822v5.25h-.822Z" transform="translate(64.561 -1843.221)" fill="#fff"/>
        <path id="Trazado_127" data-name="Trazado 127" d="M-13.853,1853.424a2.466,2.466,0,0,1-1.056-.218,2.39,2.39,0,0,1-.8-.594,2.664,2.664,0,0,1-.508-.879,3.2,3.2,0,0,1-.177-1.071,3.2,3.2,0,0,1,.177-1.071,2.66,2.66,0,0,1,.508-.878,2.4,2.4,0,0,1,.8-.594,2.466,2.466,0,0,1,1.056-.218,2.275,2.275,0,0,1,1.518.492,2.146,2.146,0,0,1,.726,1.335h-.832a1.356,1.356,0,0,0-.452-.843,1.438,1.438,0,0,0-.96-.3,1.61,1.61,0,0,0-.736.162,1.517,1.517,0,0,0-.533.447,1.976,1.976,0,0,0-.32.66,2.949,2.949,0,0,0-.107.813,2.95,2.95,0,0,0,.107.812,1.923,1.923,0,0,0,.32.655,1.534,1.534,0,0,0,.533.442,1.6,1.6,0,0,0,.736.162,1.425,1.425,0,0,0,1.01-.345,1.409,1.409,0,0,0,.422-.954h.812a2.109,2.109,0,0,1-.67,1.472A2.3,2.3,0,0,1-13.853,1853.424Z" transform="translate(55.24 -1846.021)" fill="#fff"/>
        <path id="Trazado_128" data-name="Trazado 128" d="M10.751,1853.424a2.467,2.467,0,0,1-1.056-.218,2.4,2.4,0,0,1-.8-.594,2.664,2.664,0,0,1-.508-.879,3.328,3.328,0,0,1,0-2.142,2.66,2.66,0,0,1,.508-.878,2.411,2.411,0,0,1,.8-.594,2.67,2.67,0,0,1,2.112,0,2.411,2.411,0,0,1,.8.594,2.587,2.587,0,0,1,.5.878,3.408,3.408,0,0,1,0,2.142,2.591,2.591,0,0,1-.5.879,2.4,2.4,0,0,1-.8.594A2.468,2.468,0,0,1,10.751,1853.424Zm0-.69a1.574,1.574,0,0,0,.732-.162,1.546,1.546,0,0,0,.528-.442,1.923,1.923,0,0,0,.32-.655,3.131,3.131,0,0,0,0-1.625,1.976,1.976,0,0,0-.32-.66,1.529,1.529,0,0,0-.528-.447,1.583,1.583,0,0,0-.732-.162,1.611,1.611,0,0,0-.736.162,1.521,1.521,0,0,0-.533.447,1.992,1.992,0,0,0-.32.66,3.143,3.143,0,0,0,0,1.625,1.938,1.938,0,0,0,.32.655,1.538,1.538,0,0,0,.533.442A1.6,1.6,0,0,0,10.751,1852.733Z" transform="translate(40.517 -1846.021)" fill="#fff"/>
        <path id="Trazado_129" data-name="Trazado 129" d="M35.181,1848.737h.02a2.14,2.14,0,0,1,.686-.594,2.028,2.028,0,0,1,.98-.218,1.846,1.846,0,0,1,1.295.432,1.615,1.615,0,0,1,.472,1.254v3.686h-.823v-3.615a.994.994,0,0,0-.315-.792,1.288,1.288,0,0,0-.873-.274,1.533,1.533,0,0,0-.579.107,1.4,1.4,0,0,0-.457.294,1.3,1.3,0,0,0-.3.457,1.607,1.607,0,0,0-.106.594v3.229h-.822v-5.25h.822Z" transform="translate(24.87 -1846.036)" fill="#fff"/>
        <path id="Trazado_130" data-name="Trazado 130" d="M60.782,1850.634a2.346,2.346,0,0,1-.97-.193,1.984,1.984,0,0,1-.731-.554,2.541,2.541,0,0,1-.462-.873,3.766,3.766,0,0,1-.163-1.142,3.6,3.6,0,0,1,.177-1.168,2.536,2.536,0,0,1,.488-.868,2.11,2.11,0,0,1,.731-.538,2.2,2.2,0,0,1,.909-.188,1.894,1.894,0,0,1,.975.244,2.036,2.036,0,0,1,.67.619h.02v-2.752h.822v7.26h-.822v-.64h-.02a2.065,2.065,0,0,1-.68.589A2,2,0,0,1,60.782,1850.634Zm.03-.69a1.671,1.671,0,0,0,.752-.158,1.43,1.43,0,0,0,.518-.432,1.851,1.851,0,0,0,.3-.65,3.3,3.3,0,0,0,.1-.822,3.081,3.081,0,0,0-.107-.838,1.858,1.858,0,0,0-.32-.655,1.466,1.466,0,0,0-.528-.427,1.633,1.633,0,0,0-.721-.152,1.315,1.315,0,0,0-.655.157,1.372,1.372,0,0,0-.467.437,2.09,2.09,0,0,0-.284.66,3.522,3.522,0,0,0,0,1.64,2.029,2.029,0,0,0,.284.65,1.372,1.372,0,0,0,.472.432A1.342,1.342,0,0,0,60.812,1849.944Z" transform="translate(10.45 -1843.221)" fill="#fff"/>
        <path id="Trazado_131" data-name="Trazado 131" d="M87.948,1853.478v-.721h-.02a2.412,2.412,0,0,1-.645.615,1.737,1.737,0,0,1-.939.228,1.786,1.786,0,0,1-1.289-.457,1.687,1.687,0,0,1-.477-1.28v-3.636H85.4v3.615a1.018,1.018,0,0,0,.31.8,1.25,1.25,0,0,0,.868.279,1.393,1.393,0,0,0,.569-.111,1.252,1.252,0,0,0,.432-.31,1.413,1.413,0,0,0,.274-.462,1.677,1.677,0,0,0,.1-.579v-3.23h.822v5.25Z" transform="translate(-5.182 -1846.217)" fill="#fff"/>
        <path id="Trazado_132" data-name="Trazado 132" d="M111.086,1853.424a2.466,2.466,0,0,1-1.056-.218,2.394,2.394,0,0,1-.8-.594,2.664,2.664,0,0,1-.508-.879,3.328,3.328,0,0,1,0-2.142,2.66,2.66,0,0,1,.508-.878,2.407,2.407,0,0,1,.8-.594,2.466,2.466,0,0,1,1.056-.218,2.275,2.275,0,0,1,1.518.492,2.146,2.146,0,0,1,.726,1.335H112.5a1.356,1.356,0,0,0-.452-.843,1.438,1.438,0,0,0-.96-.3,1.61,1.61,0,0,0-.736.162,1.517,1.517,0,0,0-.533.447,1.976,1.976,0,0,0-.32.66,3.132,3.132,0,0,0,0,1.625,1.923,1.923,0,0,0,.32.655,1.534,1.534,0,0,0,.533.442,1.6,1.6,0,0,0,.736.162,1.425,1.425,0,0,0,1.01-.345,1.408,1.408,0,0,0,.422-.954h.812a2.11,2.11,0,0,1-.669,1.472A2.3,2.3,0,0,1,111.086,1853.424Z" transform="translate(-19.526 -1846.021)" fill="#fff"/>
        <path id="Trazado_133" data-name="Trazado 133" d="M133.05,1845.761h.761v-1.655h.822v1.655h1.016v.67h-1.016v3.412a.456.456,0,0,0,.137.381.625.625,0,0,0,.391.106,1.141,1.141,0,0,0,.244-.026c.081-.017.145-.032.193-.046h.03v.711c-.094.02-.2.038-.309.051a3,3,0,0,1-.351.02,1.418,1.418,0,0,1-.833-.228.9.9,0,0,1-.324-.787v-3.595h-.761Z" transform="translate(-34.189 -1843.751)" fill="#fff"/>
        <path id="Trazado_134" data-name="Trazado 134" d="M154.805,1853.424a2.464,2.464,0,0,1-1.056-.218,2.4,2.4,0,0,1-.8-.594,2.664,2.664,0,0,1-.508-.879,3.32,3.32,0,0,1,0-2.142,2.66,2.66,0,0,1,.508-.878,2.409,2.409,0,0,1,.8-.594,2.669,2.669,0,0,1,2.112,0,2.408,2.408,0,0,1,.8.594,2.587,2.587,0,0,1,.5.878,3.409,3.409,0,0,1,0,2.142,2.591,2.591,0,0,1-.5.879,2.394,2.394,0,0,1-.8.594A2.467,2.467,0,0,1,154.805,1853.424Zm0-.69a1.571,1.571,0,0,0,.731-.162,1.551,1.551,0,0,0,.528-.442,1.938,1.938,0,0,0,.32-.655,3.143,3.143,0,0,0,0-1.625,1.992,1.992,0,0,0-.32-.66,1.533,1.533,0,0,0-.528-.447,1.58,1.58,0,0,0-.731-.162,1.609,1.609,0,0,0-.736.162,1.522,1.522,0,0,0-.533.447,1.991,1.991,0,0,0-.32.66,3.142,3.142,0,0,0,0,1.625,1.937,1.937,0,0,0,.32.655,1.539,1.539,0,0,0,.533.442A1.6,1.6,0,0,0,154.805,1852.733Z" transform="translate(-45.689 -1846.021)" fill="#fff"/>
        <path id="Trazado_135" data-name="Trazado 135" d="M179.235,1849.01h.02a2.145,2.145,0,0,1,.635-.66,1.608,1.608,0,0,1,.929-.274.871.871,0,0,1,.182.016,1.023,1.023,0,0,1,.153.045v.792h-.031a.962.962,0,0,0-.167-.041,1.6,1.6,0,0,0-.2-.01,1.516,1.516,0,0,0-.579.111,1.545,1.545,0,0,0-.487.315,1.419,1.419,0,0,0-.335.5,1.751,1.751,0,0,0-.122.665v2.915h-.822v-5.25h.822Z" transform="translate(-61.335 -1846.127)" fill="#fff"/>
      </g>
      <g id="Grupo_47" data-name="Grupo 47">
        <path id="Trazado_136" data-name="Trazado 136" d="M-88.631,1803.125h-15.91a6.923,6.923,0,0,0,6.773,6.326,6.606,6.606,0,0,0,6.262-4.122h2.364a9.156,9.156,0,0,1-8.594,6.134,9.128,9.128,0,0,1-9.1-9.137,9.2,9.2,0,0,1,9.073-9.2,9.314,9.314,0,0,1,9.17,9.361C-88.6,1802.709-88.631,1802.9-88.631,1803.125Zm-9.105-7.987a6.908,6.908,0,0,0-6.805,5.974H-90.9A6.941,6.941,0,0,0-97.736,1795.138Z" transform="translate(124.501 -1787.384)" fill="#fff"/>
        <path id="Trazado_137" data-name="Trazado 137" d="M-28.436,1809.448V1799.32c0-3.1-1.31-5.782-4.76-5.782s-4.76,2.684-4.76,5.782v10.128h-2.237V1799.32c0-3.1-1.31-5.782-4.76-5.782s-4.761,2.684-4.761,5.782v10.128H-51.95v-17.475h2.236v2.012a5.463,5.463,0,0,1,4.761-2.46,6.531,6.531,0,0,1,5.878,3.355,6.667,6.667,0,0,1,5.879-3.355c4.473,0,7,3.259,7,7.54v10.384Z" transform="translate(91.653 -1786.426)" fill="#fff"/>
        <path id="Trazado_138" data-name="Trazado 138" d="M23.388,1782.855v-4.026h2.236v4.026Zm0,19.616V1785h2.236v17.475Z" transform="translate(46.568 -1778.829)" fill="#fff"/>
        <path id="Trazado_139" data-name="Trazado 139" d="M46.307,1787.864v8.525c0,2.313.154,4.831,4.723,4.831,5.482,0,4.974-6.537,4.974-6.537l1.956.02s.558,8.752-6.573,8.752c-6.464,0-7.317-3.605-7.317-7.067v-16.7h2.236v6.167H57.96v2.012Z" transform="translate(34.191 -1779.341)" fill="#fff"/>
        <path id="Trazado_140" data-name="Trazado 140" d="M105.56,1803.212H89.649a6.922,6.922,0,0,0,6.773,6.326,6.607,6.607,0,0,0,6.262-4.121h2.364a9.119,9.119,0,1,1-8.626-12.2,9.314,9.314,0,0,1,9.169,9.361C105.591,1802.8,105.56,1802.989,105.56,1803.212Zm-9.106-7.987a6.909,6.909,0,0,0-6.8,5.974h13.642A6.941,6.941,0,0,0,96.454,1795.225Z" transform="translate(8.293 -1787.437)" fill="#fff"/>
        <path id="Trazado_141" data-name="Trazado 141" d="M148.689,1811.463a9.192,9.192,0,0,1-9.393-9.137,9.422,9.422,0,0,1,18.083-3.482h-2.46a6.9,6.9,0,0,0-6.166-3.706,7.157,7.157,0,1,0,0,14.313,6.739,6.739,0,0,0,6.166-3.546h2.46C155.59,1809.419,152.746,1811.463,148.689,1811.463Z" transform="translate(-22.794 -1787.384)" fill="#fff"/>
        <path id="Trazado_142" data-name="Trazado 142" d="M203.9,1802.558v-9.616a6.676,6.676,0,0,0-1.661-4.792,5.563,5.563,0,0,0-7.6,0,6.455,6.455,0,0,0-1.63,4.632v9.776h-2.236v-23.642H193v8.4h.064a6.337,6.337,0,0,1,5.367-2.684c5.016,0,7.7,3.482,7.7,8.307v9.616Z" transform="translate(-53.596 -1778.881)" fill="#fff"/>
        <path id="Trazado_143" data-name="Trazado 143" d="M-143.01,1811.239c-4.555,0-7.808-2.288-7.808-5.446v-.193h3.254c.046,2.03,1.441,3.609,4.555,3.609,2.881,0,4.741-1.128,4.741-3.158,0-4.672-11.805-2.513-11.805-8.41,0-2.9,3.114-4.9,7.25-4.9,3.9,0,6.925,2.094,6.925,4.8h-3.254c-.139-1.515-1.487-2.771-3.811-2.771-2.184,0-3.858,1.128-3.858,2.642,0,4.028,11.805,1.933,11.805,8.442C-135.016,1809.241-138.223,1811.239-143.01,1811.239Z" transform="translate(150.818 -1787.156)" fill="#fff"/>
      </g>
    </g>
    <g id="Grupo_45" data-name="Grupo 45" transform="translate(0 3.384)">
      <path id="Trazado_121" data-name="Trazado 121" d="M-232.333,1807.4h-5.279a10.548,10.548,0,0,0,3.29,7.347c1.2,1.158,5.063,2.453,5.063,2.453h-7.485a2.052,2.052,0,0,1-2.053-2.053v-25.837a2.052,2.052,0,0,1,2.053-2.053h7.1a21.749,21.749,0,0,0-3.668,1.837,8.059,8.059,0,0,0-3.384,6.732q0,3.53,3.595,5.526a23.282,23.282,0,0,0,6.269,2.079l4.437.99a24.117,24.117,0,0,1,4.779,1.395,3.1,3.1,0,0,1,1.9,2.874,3.89,3.89,0,0,1-2.368,3.679,12.054,12.054,0,0,1-5.485,1.19q-5.235,0-7.358-2.379A6.637,6.637,0,0,1-232.333,1807.4Z" transform="translate(238.797 -1787.256)" fill="#fff"/>
      <path id="Trazado_122" data-name="Trazado 122" d="M-197.4,1789.309v25.837a2.049,2.049,0,0,1-2.053,2.053H-207.2s3.727-1.237,5.011-2.327a8.614,8.614,0,0,0,3.353-6.763,6.391,6.391,0,0,0-3.205-5.937q-2.053-1.2-8.084-2.49l-3.705-.795a13.972,13.972,0,0,1-3.669-1.2,3.431,3.431,0,0,1-2.158-3.053,3.226,3.226,0,0,1,1.642-2.811,8.961,8.961,0,0,1,4.826-1.063q4.784,0,6.721,1.932a5.3,5.3,0,0,1,1.342,3.021h5.19a7.8,7.8,0,0,0-2.01-5.306c-1.248-1.463-5.079-3.153-5.079-3.153h7.579A2.049,2.049,0,0,1-197.4,1789.309Z" transform="translate(227.346 -1787.256)" fill="#fff"/>
    </g>
  </g>
</svg>
