<svg xmlns="http://www.w3.org/2000/svg" width="208.55" height="27.24" viewBox="0 0 208.55 27.24">
  <g id="Grupo_68" data-name="Grupo 68" transform="translate(0 0)">
    <g id="Grupo_64" data-name="Grupo 64" transform="translate(141.833 1.872)">
      <path id="Trazado_234" data-name="Trazado 234" d="M2028.267,2478.129v-10.942l.2-4.227-1.778,3.516-3.99,6.518h-2.33l-4.029-6.518-1.778-3.555.2,4.266v10.942h-4.463v-23.267h3.832l7.387,12.522,7.387-12.522h3.792v23.267Z" transform="translate(-2010.294 -2454.586)" fill="#fff"/>
      <path id="Trazado_235" data-name="Trazado 235" d="M2091.146,2477.96a28.982,28.982,0,0,1-8.019-1.185v-4.227a27.516,27.516,0,0,0,7.98,1.383c3.91,0,4.74-.83,4.74-3.081,0-4.661-13.233-.909-13.233-10.033,0-4.108,3-6.715,8.691-6.715a24.825,24.825,0,0,1,7.229,1.067v4.187a27.91,27.91,0,0,0-7.189-1.185c-3.594,0-4.424.75-4.424,2.646,0,4.9,13.233.671,13.233,10.033C2100.153,2475.432,2097.506,2477.96,2091.146,2477.96Z" transform="translate(-2056.346 -2454.101)" fill="#fff"/>
      <path id="Trazado_236" data-name="Trazado 236" d="M2150.9,2478.129l-2.251-6.557h-7.822l-2.212,6.557h-4.78l8.809-23.267h4.148l8.888,23.267Zm-4.859-13.47-1.343-4.108-1.383,4.108-.987,2.883h4.7Z" transform="translate(-2088.964 -2454.586)" fill="#fff"/>
    </g>
    <g id="Grupo_66" data-name="Grupo 66" transform="translate(111.866 0)">
      <path id="Trazado_242" data-name="Trazado 242" d="M1956.427,2457.337l-.073.819a1.818,1.818,0,0,1-1.215,1.559l-7.493,2.6-10.857-3.856v-9.517l18.206,6.458A2.142,2.142,0,0,1,1956.427,2457.337Z" transform="translate(-1936.788 -2448.946)" fill="#fff"/>
      <path id="Trazado_243" data-name="Trazado 243" d="M1956.755,2473.256v9.9c0,.03,0,.06,0,.089a2.143,2.143,0,0,1-1.433,1.934l-18.532,6.488v-9.516l11.184-3.887,7.493-2.605a1.819,1.819,0,0,0,1.215-1.559l.073-.819Z" transform="translate(-1936.788 -2464.427)" fill="#fff"/>
    </g>
    <g id="Grupo_67" data-name="Grupo 67" transform="translate(88.899 0)">
      <path id="Trazado_244" data-name="Trazado 244" d="M1876.887,2492.106l.073-.819a1.821,1.821,0,0,1,1.215-1.559l7.493-2.6,10.857,3.857v9.517l-18.206-6.457A2.143,2.143,0,0,1,1876.887,2492.106Z" transform="translate(-1876.559 -2473.257)" fill="#fff"/>
      <path id="Trazado_245" data-name="Trazado 245" d="M1875.983,2467.356v-9.9c0-.03,0-.06,0-.089a2.145,2.145,0,0,1,1.433-1.934l18.532-6.488v9.517l-11.184,3.887-7.492,2.605a1.821,1.821,0,0,0-1.216,1.559l-.073.819Z" transform="translate(-1875.983 -2448.946)" fill="#fff"/>
    </g>
    <g id="Grupo_65" data-name="Grupo 65" transform="translate(0 2.229)">
      <path id="Trazado_237" data-name="Trazado 237" d="M1646.561,2457.322a4.3,4.3,0,0,0-3.38,1.516,5.687,5.687,0,0,0-1.331,3.9v8.273a5.716,5.716,0,0,0,1.331,3.9,4.29,4.29,0,0,0,3.38,1.524,5.233,5.233,0,0,0,3.191-.964c.391-.29.948-.685.948-3.488v-3.991h-3.854a1.109,1.109,0,0,1-.829-.32,1.179,1.179,0,0,1-.007-1.593,1.122,1.122,0,0,1,.836-.311h5a1.021,1.021,0,0,1,.829.382,1.34,1.34,0,0,1,.313.878v4.637c0,2.977-.151,3.65-.453,4.11a6.16,6.16,0,0,1-1.24,1.345,6.62,6.62,0,0,1-2.049,1.1,8.021,8.021,0,0,1-2.683.443,6.505,6.505,0,0,1-5.045-2.146,7.866,7.866,0,0,1-1.951-5.5v-8.273a7.866,7.866,0,0,1,1.951-5.5,6.507,6.507,0,0,1,5.045-2.146,6.107,6.107,0,0,1,3.693,1.049,6.67,6.67,0,0,1,2.16,2.621,3.248,3.248,0,0,0,.14.389,2.005,2.005,0,0,1,.139.731,1.433,1.433,0,0,1-.279.933.877.877,0,0,1-.711.342,1.1,1.1,0,0,1-.76-.311,2.1,2.1,0,0,1-.537-.809A3.925,3.925,0,0,0,1646.561,2457.322Z" transform="translate(-1639.565 -2455.083)" fill="#fff"/>
      <path id="Trazado_238" data-name="Trazado 238" d="M1689.019,2467.721v9.314a1.428,1.428,0,0,1-.3.912,1.054,1.054,0,0,1-1.633-.008,1.414,1.414,0,0,1-.31-.9v-20.642a1.436,1.436,0,0,1,.31-.918.992.992,0,0,1,.82-.392h5.759a5.57,5.57,0,0,1,4.756,1.909,6.431,6.431,0,0,1,1.595,4.678,6.227,6.227,0,0,1-1.795,4.49,5.222,5.222,0,0,1-3.006,1.378v.16l4.677,8.346a1.785,1.785,0,0,0,.138.3,1.976,1.976,0,0,1,.138.688,1.413,1.413,0,0,1-.31.9.993.993,0,0,1-.82.391,1.051,1.051,0,0,1-.978-.639l-5.242-10.008Zm3.817-1.944c1.185,0,2.843.024,3.614-.829a4.628,4.628,0,0,0,1.284-3.15,4.306,4.306,0,0,0-.842-3.141,4.492,4.492,0,0,0-3.249-1.271h-4.624v8.392Z" transform="translate(-1669.627 -2455.083)" fill="#fff"/>
      <path id="Trazado_239" data-name="Trazado 239" d="M1741.388,2477.177a7.327,7.327,0,0,1-12.6-5.271v-14.649a1.279,1.279,0,0,1,.35-.894,1.314,1.314,0,0,1,1.851,0,1.279,1.279,0,0,1,.35.894v14.649a5.093,5.093,0,0,0,1.361,3.685,4.833,4.833,0,0,0,6.834,0,5.076,5.076,0,0,0,1.369-3.685v-14.649a1.279,1.279,0,0,1,.35-.894,1.2,1.2,0,0,1,.926-.381,1.177,1.177,0,0,1,.909.381,1.279,1.279,0,0,1,.35.894v14.649A7.137,7.137,0,0,1,1741.388,2477.177Z" transform="translate(-1696.383 -2455.655)" fill="#fff"/>
      <path id="Trazado_240" data-name="Trazado 240" d="M1783.55,2455.083a7.959,7.959,0,0,1,3.942.984,7.135,7.135,0,0,1,2.737,2.63,7.143,7.143,0,0,1,0,7.195,7.141,7.141,0,0,1-2.737,2.63,7.967,7.967,0,0,1-3.942.983h-3.825v7.531a1.325,1.325,0,0,1-.342.912,1.29,1.29,0,0,1-1.843-.008,1.316,1.316,0,0,1-.35-.9v-20.642a1.336,1.336,0,0,1,.35-.918,1.178,1.178,0,0,1,.925-.392Zm-3.825,2.3v9.817h3.825a5.016,5.016,0,0,0,3.686-1.4,5.061,5.061,0,0,0,0-7.02,5.017,5.017,0,0,0-3.686-1.4Z" transform="translate(-1727.203 -2455.083)" fill="#fff"/>
      <path id="Trazado_241" data-name="Trazado 241" d="M1836.068,2471.006a8.082,8.082,0,0,1-1.867,5.5,6.5,6.5,0,0,1-9.655,0,8.082,8.082,0,0,1-1.867-5.5v-8.273a8.082,8.082,0,0,1,1.867-5.5,6.5,6.5,0,0,1,9.655,0,8.082,8.082,0,0,1,1.867,5.5Zm-2.187-8.273a5.852,5.852,0,0,0-1.273-3.9,4.206,4.206,0,0,0-6.468,0,5.849,5.849,0,0,0-1.274,3.9v8.273a5.879,5.879,0,0,0,1.274,3.9,4.193,4.193,0,0,0,6.468,0,5.882,5.882,0,0,0,1.273-3.9Z" transform="translate(-1756.169 -2455.083)" fill="#fff"/>
    </g>
  </g>
</svg>
