<svg xmlns="http://www.w3.org/2000/svg" width="155.569" height="47.757" viewBox="0 0 155.569 47.757">
  <g id="Grupo_192" data-name="Grupo 192" transform="translate(-663.144 0)">
    <g id="Grupo_101" data-name="Grupo 101" transform="translate(663.144 35.966)">
      <path id="Trazado_267" data-name="Trazado 267" d="M2318.666,1515.536h0a1.26,1.26,0,0,0-1.26-1.26h-14.65a5.035,5.035,0,0,0-5.035,5.035v1.221a4.805,4.805,0,0,0,4.832,5.034h14.853a1.26,1.26,0,0,0,1.26-1.26h0a1.26,1.26,0,0,0-1.26-1.26h-14.538a2.739,2.739,0,0,1-2.739-2.739v-.772a2.739,2.739,0,0,1,2.739-2.738h14.538A1.26,1.26,0,0,0,2318.666,1515.536Z" transform="translate(-2210.805 -1513.776)" fill="#fff"/>
      <path id="Trazado_268" data-name="Trazado 268" d="M2377.524,1514.276h-10.876a5.035,5.035,0,0,0-5.035,5.035v1.221a4.805,4.805,0,0,0,4.832,5.034h11.282a4.805,4.805,0,0,0,4.832-5.034v-1.221A5.035,5.035,0,0,0,2377.524,1514.276Zm2.626,6.031a2.739,2.739,0,0,1-2.739,2.739h-10.65a2.739,2.739,0,0,1-2.739-2.739v-.772a2.738,2.738,0,0,1,2.739-2.738h10.65a2.739,2.739,0,0,1,2.739,2.738Z" transform="translate(-2251.189 -1513.776)" fill="#fff"/>
      <path id="Trazado_269" data-name="Trazado 269" d="M2256.551,1514.456h-17.517a1.31,1.31,0,0,0-1.326,1.13,1.261,1.261,0,0,0,1.254,1.391h8.407a5.365,5.365,0,0,0-.837,2.878v4.565a1.261,1.261,0,0,0,1.26,1.261h0a1.261,1.261,0,0,0,1.26-1.261v-4.83a2.613,2.613,0,0,1,2.613-2.613h4.957a1.261,1.261,0,0,0,1.253-1.391A1.309,1.309,0,0,0,2256.551,1514.456Z" transform="translate(-2172.869 -1513.89)" fill="#fff"/>
      <g id="Grupo_70" data-name="Grupo 70" transform="translate(47.094 0)">
        <path id="Trazado_270" data-name="Trazado 270" d="M2196.1,1514.221l-6.355,8.446a1.261,1.261,0,0,0,.249,1.765h0a1.261,1.261,0,0,0,1.766-.249l6.208-8.251a.933.933,0,0,1,1.492,0l6.209,8.251a1.26,1.26,0,0,0,1.765.249h0a1.26,1.26,0,0,0,.249-1.765l-6.356-8.446A3.271,3.271,0,0,0,2196.1,1514.221Z" transform="translate(-2189.491 -1512.917)" fill="#fff"/>
        <circle id="Elipse_20" data-name="Elipse 20" cx="1.607" cy="1.607" r="1.607" transform="translate(7.591 7.405)" fill="#fff"/>
      </g>
      <path id="Trazado_271" data-name="Trazado 271" d="M2143.058,1518.775h-14.139a.9.9,0,0,1-.9-.9h0a.9.9,0,0,1,.9-.9h15.523a1.261,1.261,0,0,0,1.26-1.26h0a1.26,1.26,0,0,0-1.26-1.26h-15.523a3.42,3.42,0,0,0-3.42,3.419h0a3.42,3.42,0,0,0,3.42,3.42h14.129a.933.933,0,0,1,.933.933h0a.933.933,0,0,1-.933.932h-15.582a1.259,1.259,0,0,0-1.259,1.26h0a1.259,1.259,0,0,0,1.261,1.259l15.594-.018a3.444,3.444,0,0,0,3.44-3.443h0A3.444,3.444,0,0,0,2143.058,1518.775Z" transform="translate(-2101.951 -1513.89)" fill="#fff"/>
      <path id="Trazado_272" data-name="Trazado 272" d="M2064.018,1520.721v-1.307a2.437,2.437,0,0,1,2.437-2.437h14.769a1.251,1.251,0,0,0,1.25-1.251v-.019a1.251,1.251,0,0,0-1.25-1.251H2066.1c-2.542,0-4.6,2.6-4.6,5.137v1.008c0,2.542,1.943,5.078,4.6,5.078h13.305a3.069,3.069,0,0,0,3.069-3.069v-.733a3.068,3.068,0,0,0-3.069-3.069h-9.879a1.26,1.26,0,0,0-1.26,1.26h0a1.26,1.26,0,0,0,1.26,1.26h9.55a.878.878,0,0,1,.878.878v.075a.878.878,0,0,1-.878.878h-12.621A2.438,2.438,0,0,1,2064.018,1520.721Z" transform="translate(-2061.498 -1513.89)" fill="#fff"/>
      <path id="Trazado_273" data-name="Trazado 273" d="M2445.825,1514.276a1.233,1.233,0,0,0-.75.257v0l-.038.036a1.161,1.161,0,0,0-.118.107c-.768.694-4.293,3.783-6.489,3.975a13.136,13.136,0,0,1-6.344-.7,29.153,29.153,0,0,1-4.389-3.072,1.24,1.24,0,0,0-1.06-.6h0a1.245,1.245,0,0,0-1.245,1.245v8.8a1.245,1.245,0,0,0,1.245,1.245h0a1.245,1.245,0,0,0,1.245-1.245v-6.191a12.678,12.678,0,0,0,8.3,3.3,12.253,12.253,0,0,0,8.4-3.182v6.071a1.245,1.245,0,1,0,2.49,0v-8.8A1.245,1.245,0,0,0,2445.825,1514.276Z" transform="translate(-2291.502 -1513.776)" fill="#fff"/>
    </g>
    <g id="Grupo_100" data-name="Grupo 100" transform="translate(678.472)">
      <g id="Grupo_69" data-name="Grupo 69" transform="translate(32.301)">
        <path id="Trazado_260" data-name="Trazado 260" d="M2229.773,1463.14l-6.523,2.54,3.952,6.594,6.775-2.091Z" transform="translate(-2211.363 -1445.489)" fill="#fff"/>
        <path id="Trazado_261" data-name="Trazado 261" d="M2265.013,1437.613l4.648,7.771-8.4,2.77-4.273-7.254Z" transform="translate(-2232.685 -1429.354)" fill="#fff"/>
        <path id="Trazado_262" data-name="Trazado 262" d="M2289.088,1426.493l5.055,8.383-10.133,3.446-4.63-7.855Z" transform="translate(-2246.841 -1422.325)" fill="#fff"/>
        <path id="Trazado_263" data-name="Trazado 263" d="M2316.215,1415.166l5.048,9.225-9.82,3.289-5.094-8.475Z" transform="translate(-2263.887 -1415.166)" fill="#fff"/>
        <path id="Trazado_264" data-name="Trazado 264" d="M2253.072,1455.415a3.255,3.255,0,0,0-2.455.612l-.259-.067.836-.982-4.234-7.182-4.606,5.438,4.31,7.066,3.03-3.559.2.141a2.352,2.352,0,0,0-.262.76,3.113,3.113,0,1,0,3.442-2.227Z" transform="translate(-2223.437 -1435.79)" fill="#fff"/>
        <path id="Trazado_265" data-name="Trazado 265" d="M2227.383,1444.722a3.04,3.04,0,0,0,.642-3.387,3.136,3.136,0,1,0-2.046,4.212l.171.152-3.9,4.443,6.576-2.591,4.556-5.321Z" transform="translate(-2210.605 -1430.59)" fill="#fff"/>
        <path id="Trazado_266" data-name="Trazado 266" d="M2205,1458.448l-3.187,3.627,2.177,3.508-10.414,3.147-2.629-4.487Z" transform="translate(-2190.944 -1442.523)" fill="#fff"/>
      </g>
      <path id="Trazado_274" data-name="Trazado 274" d="M2362.86,1471.41h-3.219a18.216,18.216,0,0,0-6.866-7.8,64.309,64.309,0,0,0-21.37-7.8,156.457,156.457,0,0,0-20.633-1.943c1.909-.837,5.671-2.379,5.671-2.379s10.1.4,15.444,1.341,17.988,3.189,25.4,9.473C2361.9,1466.218,2362.213,1468.878,2362.86,1471.41Z" transform="translate(-2234.381 -1438.123)" fill="#fff"/>
      <path id="Trazado_275" data-name="Trazado 275" d="M2138.587,1465.93l-4.691,2.841a139.209,139.209,0,0,0-15.681,5.374,80.934,80.934,0,0,0-12.663,6.394h-2.4s2.243-1.46,4.181-2.578a125.775,125.775,0,0,1,13.375-6.376A164.71,164.71,0,0,1,2138.587,1465.93Z" transform="translate(-2103.155 -1447.252)" fill="#fff"/>
    </g>
  </g>
</svg>
