<svg id="Grupo_37" data-name="Grupo 37" xmlns="http://www.w3.org/2000/svg" width="118.953" height="31" viewBox="0 0 118.953 31">
  <path id="Trazado_94" data-name="Trazado 94" d="M691.405,1464.095l-16.171-.153v31h8v-8.9h7.578a10.976,10.976,0,0,0,10.976-10.976v-.493A10.479,10.479,0,0,0,691.405,1464.095Zm1.6,10.848a3.37,3.37,0,0,1-3.37,3.37h-6.359v-6.74h6.359a3.37,3.37,0,0,1,3.37,3.37Z" transform="translate(-582.832 -1463.942)" fill="#fff"/>
  <g id="Grupo_96" data-name="Grupo 96" transform="translate(44.491)">
    <path id="Trazado_92" data-name="Trazado 92" d="M575.009,1463.942l-25.828,31h-8.92v-31h7.61v19.308l16.619-19.308Z" transform="translate(-540.262 -1463.942)" fill="#fff"/>
    <path id="Trazado_93" data-name="Trazado 93" d="M599.247,1463.942l-25.312,31h9.606l5.772-6.88h10.595v6.88h8.039v-31Zm.866,16.988H595.5l4.617-5.235Z" transform="translate(-562.013 -1463.942)" fill="#fff"/>
  </g>
  <path id="Trazado_95" data-name="Trazado 95" d="M474.977,1463.942v31h-9.028l-14.676-17.228v17.228h-8.327v-31h8.245l15.377,17.689v-17.689Z" transform="translate(-433.08 -1463.942)" fill="#fff"/>
  <rect id="Rectángulo_64" data-name="Rectángulo 64" width="7.845" height="31" transform="translate(0 0)" fill="#fff"/>
</svg>
