<svg xmlns="http://www.w3.org/2000/svg" width="138.225" height="43.19" viewBox="0 0 138.225 43.19">
  <g id="Grupo_54" data-name="Grupo 54" transform="translate(0 0)">
    <path id="Trazado_174" data-name="Trazado 174" d="M799.491,2483.62c-1.624-2.319-4.9-2.132-8.531-3.182a2.4,2.4,0,0,1-1.891-2.639c0-1.033.719-2.868,4-2.99,3.36-.124,6.57,2.455,6.57,2.455V2473.3a17.37,17.37,0,0,0-5.52-1.469c-2.253,0-6.042.416-8.181,2.238s-2.439,6.35-.252,8.178,6.077,2.124,7.884,2.748,2.452,1.987,1.881,3.509-3.284,1.812-5.654,1.5c-2.31-.305-5.559-2.46-5.559-2.46v3.92a14.876,14.876,0,0,0,6.573,1.723c2.515,0,6.045-.064,8.053-2.294A6.187,6.187,0,0,0,799.491,2483.62Z" transform="translate(-662.165 -2456.917)" fill="#fff"/>
    <path id="Trazado_173" data-name="Trazado 173" d="M702.647,2448.488H701.14l-6.691,15.231-6.658-15.231h-7.755v27.421h6v-23.483l7.122,16.166h2.31l6.966-15.92.216-.019v23.256h3.591v-27.421h-3.591Z" transform="translate(-588.168 -2440.38)" fill="#fff"/>
    <rect id="Rectángulo_65" data-name="Rectángulo 65" width="6.093" height="20.437" transform="translate(79.839 15.093)" fill="#fff"/>
    <path id="Trazado_172" data-name="Trazado 172" d="M567.8,2470.279l-11.1-21.791h-7.392v27.421h5.61v-23.265l12.2,23.265h4.273v-27.421H567.8Z" transform="translate(-495.548 -2440.38)" fill="#fff"/>
    <g id="Grupo_104" data-name="Grupo 104" transform="translate(0)">
      <path id="Trazado_165" data-name="Trazado 165" d="M380.878,2459.7a27.716,27.716,0,0,1-2.553-8.916,5.96,5.96,0,0,0-2.189,1.119c-3.521,2.89-2.743,10.453-2.743,10.453a17.289,17.289,0,0,1-.312-8.788,19.6,19.6,0,0,0-.039,19.439C373.149,2469.809,375.554,2464.573,380.878,2459.7Z" transform="translate(-368.844 -2442.006)" fill="#fff"/>
      <path id="Trazado_166" data-name="Trazado 166" d="M410.232,2453.016c-3.662-2.562-7.576-3.661-10.574-3.105a33.375,33.375,0,0,0,2.817,8.251,39.5,39.5,0,0,1,6.151-4.287Q409.442,2453.413,410.232,2453.016Z" transform="translate(-389.515 -2441.287)" fill="#fff"/>
      <path id="Trazado_167" data-name="Trazado 167" d="M398.157,2548.067q.307.007.617,0s-.046-.032-.129-.1c-.2.011-.393.021-.587.024Z" transform="translate(-388.382 -2510.865)" fill="#fff"/>
      <path id="Trazado_168" data-name="Trazado 168" d="M394.982,2487.93a38.155,38.155,0,0,0-3.909,5c-4.831,7.372.279,11.8,1.172,12.5a23.293,23.293,0,0,0,9.8-3.124q.628-.352,1.254-.741c-3.979,1.893-8.853,2.745-11.27,2.174a29.889,29.889,0,0,0,12.394-3.952A47.008,47.008,0,0,1,394.982,2487.93Z" transform="translate(-381.981 -2468.325)" fill="#fff"/>
      <path id="Trazado_169" data-name="Trazado 169" d="M427.964,2477.845s0,0,0-.005,0,0,0,0q.915-.967,1.788-2l.027-.034a39.049,39.049,0,0,0-7.651-10.63q-.8-.758-1.624-1.416a37.424,37.424,0,0,0-7.916,6.094,32.884,32.884,0,0,0,10.947,11.334A45.476,45.476,0,0,0,427.964,2477.845Z" transform="translate(-398.681 -2451.196)" fill="#fff"/>
      <path id="Trazado_170" data-name="Trazado 170" d="M396.757,2430.632c3.07-.812,6.833.369,10.971,3.308.773.55,1.493,1.119,2.167,1.7a28.23,28.23,0,0,1,10.6-2.385.922.922,0,0,1,0,.32,26.014,26.014,0,0,0-9.717,2.864c3.5,3.321,5.751,7.194,8.186,11.508q.1.17.187.343a37.872,37.872,0,0,0,4.681-7.275,10.486,10.486,0,0,0,.211-6.408v0a19.737,19.737,0,0,0-2.558-2.845c-3.888-2.245-8.978-1.383-8.978-1.383a14.881,14.881,0,0,1,6.568-.5,19.587,19.587,0,0,0-22.336.513c-.1.075-.2.149-.3.227-.083.061-.164.125-.246.189q.122-.044.243-.082C396.536,2430.693,396.646,2430.661,396.757,2430.632Z" transform="translate(-387.054 -2424.897)" fill="#fff"/>
      <path id="Trazado_171" data-name="Trazado 171" d="M408.642,2428.461c-1.141-7.316-7.6-8.011-11.415-7.747,1.983.163,7.037.679,8.1,6.58.951,5.255-1.2,11.537-7.744,19.3-8.05,9.555-18.015,14.283-25.918,13s-5.737-11.715-5.737-11.715c-1.605,3.586-3.175,16.627,9.388,15.958a24.192,24.192,0,0,0,8.967-2.357c.589.054,1.186.083,1.789.083a19.966,19.966,0,0,0,2.394-.145,19.5,19.5,0,0,0,10.9-5.063c.111-.1.219-.206.328-.311.065-.062.13-.125.194-.189l-.2.05q-.183.044-.367.078a10.914,10.914,0,0,1-2.166.156,12.977,12.977,0,0,1-1.511-.112,13.7,13.7,0,0,1-2.326-.519c.9-.759,1.745-1.518,2.534-2.252a6.44,6.44,0,0,0,2.875-.1l.1-.027c0-.02-.01-.039-.014-.058-.162-.7-.354-1.408-.569-2.111l.531-.522c.08-.078.161-.159.241-.241.162.788.291,1.562.39,2.3.02.143.039.284.055.424a7.075,7.075,0,0,0,1.294-.663,7.46,7.46,0,0,0,3.339-5.219h0v0a21.312,21.312,0,0,0,.347-3.978c.092-.154.184-.309.275-.465a28.763,28.763,0,0,1,.25,3.173c.01.44.009.9-.008,1.365a19.336,19.336,0,0,0,.436-2.025,19.7,19.7,0,0,0,.247-3.116c0-.342-.011-.681-.028-1.018C407.794,2436.822,409.234,2432.261,408.642,2428.461Z" transform="translate(-364.861 -2420.669)" fill="#fff"/>
    </g>
  </g>
</svg>
