<svg xmlns="http://www.w3.org/2000/svg" width="88.352" height="87.249" viewBox="0 0 88.352 87.249">
  <g id="Grupo_53" data-name="Grupo 53" transform="translate(0)">
    <g id="Grupo_52" data-name="Grupo 52" transform="translate(0.703 77.797)">
      <path id="Trazado_158" data-name="Trazado 158" d="M941.973,1890.35h1.175V1891c0,.907.485,1.341,2.044,1.341h3.882c1.813,0,2.35-.383,2.35-1.711,0-1.162-.46-1.456-2.018-1.456H947.03c-3.819,0-5.07-.23-5.07-2.682,0-2.107,1.251-2.58,3.831-2.58h2.7c3.1,0,3.883.792,3.883,2.44v.319h-1.175c-.026-1.469-.179-1.737-3.461-1.737H946.4c-2.414,0-3.269.128-3.269,1.648,0,1.1.345,1.469,2.3,1.469h3.7c2.44,0,3.461.7,3.461,2.273v.6c0,2.274-1.865,2.44-3.717,2.44h-3.474c-1.826,0-3.436-.319-3.436-2.337Z" transform="translate(-941.96 -1883.913)" fill="#fff"/>
      <path id="Trazado_159" data-name="Trazado 159" d="M980.332,1889.552l-5.3-5.339h1.686l4.24,4.292,4.24-4.292h1.686l-5.3,5.339v3.908h-1.251Z" transform="translate(-963.777 -1884.111)" fill="#fff"/>
      <path id="Trazado_160" data-name="Trazado 160" d="M1014.835,1890.35h1.175V1891c0,.907.485,1.341,2.043,1.341h3.883c1.814,0,2.35-.383,2.35-1.711,0-1.162-.46-1.456-2.018-1.456h-2.376c-3.819,0-5.07-.23-5.07-2.682,0-2.107,1.251-2.58,3.831-2.58h2.695c3.1,0,3.883.792,3.883,2.44v.319h-1.175c-.026-1.469-.179-1.737-3.461-1.737h-1.328c-2.414,0-3.269.128-3.269,1.648,0,1.1.344,1.469,2.3,1.469h3.7c2.439,0,3.461.7,3.461,2.273v.6c0,2.274-1.864,2.44-3.717,2.44h-3.474c-1.827,0-3.436-.319-3.436-2.337Z" transform="translate(-990.026 -1883.913)" fill="#fff"/>
      <path id="Trazado_161" data-name="Trazado 161" d="M1054.334,1885.235h-4.675v-1.021h10.6v1.021h-4.675v8.226h-1.251Z" transform="translate(-1013.006 -1884.111)" fill="#fff"/>
      <path id="Trazado_162" data-name="Trazado 162" d="M1085.546,1884.213h9.081v1.021H1086.8v2.951h7.522v1.021H1086.8v3.231h7.88v1.022h-9.132Z" transform="translate(-1036.681 -1884.111)" fill="#fff"/>
      <path id="Trazado_163" data-name="Trazado 163" d="M1118.242,1884.213h1.954l5.4,7.753,5.4-7.753h1.954v9.247H1131.7v-8.124h-.025l-5.633,8.124h-.894l-5.632-8.124h-.025v8.124h-1.252Z" transform="translate(-1058.249 -1884.111)" fill="#fff"/>
      <path id="Trazado_164" data-name="Trazado 164" d="M1168.257,1890.35h1.175V1891c0,.907.485,1.341,2.043,1.341h3.883c1.814,0,2.35-.383,2.35-1.711,0-1.162-.46-1.456-2.018-1.456h-2.376c-3.819,0-5.071-.23-5.071-2.682,0-2.107,1.252-2.58,3.832-2.58h2.694c3.1,0,3.883.792,3.883,2.44v.319h-1.175c-.026-1.469-.179-1.737-3.461-1.737h-1.328c-2.414,0-3.27.128-3.27,1.648,0,1.1.345,1.469,2.3,1.469h3.7c2.439,0,3.461.7,3.461,2.273v.6c0,2.274-1.865,2.44-3.717,2.44h-3.474c-1.827,0-3.436-.319-3.436-2.337Z" transform="translate(-1091.234 -1883.913)" fill="#fff"/>
    </g>
    <g id="Grupo_51" data-name="Grupo 51" transform="translate(15.428 63.277)">
      <path id="Trazado_153" data-name="Trazado 153" d="M985.228,1841.746h7.612c1.686,0,2.644.358,2.644,2.516,0,2.056-.166,3.091-2.887,3.091H986.48v3.64h-1.252Zm9,2.388c0-1.1-.6-1.366-1.686-1.366H986.48v3.563h6.169c1,0,1.584-.357,1.584-1.315Z" transform="translate(-985.228 -1841.746)" fill="#fff"/>
      <path id="Trazado_154" data-name="Trazado 154" d="M1021.415,1841.746h9.081v1.022h-7.829v2.95h7.523v1.022h-7.523v3.231h7.88v1.021h-9.132Z" transform="translate(-1009.1 -1841.746)" fill="#fff"/>
      <path id="Trazado_155" data-name="Trazado 155" d="M1054.921,1842.768h-4.674v-1.022h10.6v1.022h-4.674v8.225h-1.252Z" transform="translate(-1028.12 -1841.746)" fill="#fff"/>
      <path id="Trazado_156" data-name="Trazado 156" d="M1087.709,1841.746h7.395c2.669,0,3.091.881,3.091,2.618v.754c0,1.3-.741,1.66-1.7,1.75v.026c1.277.23,1.584.894,1.584,1.737v2.363H1096.9v-2.031c0-1.443-.7-1.622-1.839-1.622h-6.105v3.652h-1.252Zm7.255,4.573c1.392,0,1.98-.37,1.98-1.341v-.843c0-1.034-.447-1.366-2.286-1.366h-5.7v3.551Z" transform="translate(-1052.832 -1841.746)" fill="#fff"/>
      <path id="Trazado_157" data-name="Trazado 157" d="M1125.673,1841.746h1.558l5.492,9.247h-1.418l-1.15-1.954h-7.408l-1.149,1.954h-1.418Zm.779,1.022-3.1,5.249h6.207Z" transform="translate(-1074.253 -1841.746)" fill="#fff"/>
    </g>
    <g id="Grupo_50" data-name="Grupo 50">
      <path id="Trazado_144" data-name="Trazado 144" d="M951.023,1686.715l1.933,1.218-8.175,6.508c1.99,1.571,3.846,3.059,5.744,4.491.158.119.669-.051.9-.234,2.439-1.941,4.869-3.895,7.268-5.886a1.225,1.225,0,0,1,1.746-.048c2.187,1.51,1.378,1.531,3.552-.05.535-.389,1.064-.786,1.683-1.244l4.568,3.173-3.4,2.724,2.994,2.41c-1.5,1.24-2.9,2.383-4.279,3.55-1.444,1.221-2.862,2.473-4.306,3.693-.472.4-.351.692.045,1.045q3.865,3.443,7.708,6.911c.555.5.863.145,1.247-.194q4.166-3.689,8.343-7.366c.1-.085.209-.153.372-.271l3.41,2.911-13.125,11.918-15-13.883,12.606-10.772c-1.454-1.063-2.871-2.134-4.34-3.13-.172-.117-.692.088-.932.287q-5.508,4.576-10.967,9.211c-.505.431-.875.512-1.358.095q-4.476-3.866-8.951-7.735c-.1-.084-.186-.176-.41-.388l11.138-9.017-5.819-2.99c1.613-1.041,3.053-2.024,4.545-2.92,2.614-1.57,5.28-3.052,7.88-4.642a3.075,3.075,0,0,1,2.643-.165c1.672.466,3.333.97,5,1.458l0,.294c-.831.457-1.656.927-2.5,1.356-.134.068-.373-.031-.55-.093-1.1-.381-2.2-.751-3.277-1.169a2.339,2.339,0,0,0-2.339.216c-2.105,1.377-4.278,2.651-6.421,3.972a5.289,5.289,0,0,0-.509.421l4.4,2.1Z" transform="translate(-939.894 -1669.246)" fill="#fff"/>
      <path id="Trazado_145" data-name="Trazado 145" d="M1078.115,1762.511l-12.652-11.417,3.439-3.087-3.46-2.958,9.089-7.195,3.557,2.747c.928-.7,1.809-1.393,2.735-2.024a.908.908,0,0,1,.837-.038q5.876,4.908,11.7,9.873c.021.018.022.06.055.158Zm8.808-14.5a3.567,3.567,0,0,0-.336-.408c-2.671-2.229-5.336-4.467-8.039-6.658a1.074,1.074,0,0,0-1.012.048c-2.039,1.582-4.043,3.212-6.048,4.838-.857.7-1.7,1.415-2.615,2.182l9.03,7.925Z" transform="translate(-1022.714 -1710.243)" fill="#fff"/>
      <path id="Trazado_146" data-name="Trazado 146" d="M1131.994,1685.312l11.031,8.72c-1.223.959-2.3,1.766-3.335,2.622q-3.37,2.785-6.7,5.621c-.395.338-.686.455-1.106.1-3.718-3.142-7.441-6.279-11.289-9.525l2.5-1.89-3.3-2.5,6.817-4.129-8.417-5.247,2.119-1.088-2.888-1.592c1.376-.454,2.6-.863,3.827-1.26.315-.1.659-.13.962-.258a3.887,3.887,0,0,1,3.773.215c3.951,2.347,7.955,4.6,11.938,6.9l-.056.342Zm-8.9,5.623c.31.292.489.488.694.649q2.7,2.12,5.409,4.228c.776.6,1.563,1.654,2.345,1.655.8,0,1.6-1.029,2.4-1.622,1.292-.971,2.575-1.954,3.969-3.014l-7.9-6.155,2-1.312-3.113-2.159,4.529-2.138a6.291,6.291,0,0,0-.59-.471c-1.9-1.149-3.828-2.243-5.687-3.449a3.242,3.242,0,0,0-3.489-.445c-1.005.492-2.094.816-3.36,1.3l8.394,5.164-2.162,1.243,3.122,2.245c-1.187.764-2.243,1.435-3.29,2.121C1125.292,1689.47,1124.229,1690.183,1123.1,1690.934Z" transform="translate(-1057.008 -1668.451)" fill="#fff"/>
      <path id="Trazado_147" data-name="Trazado 147" d="M997.8,1671.451l-6.648-3.343,2.882-1.736-2.119-.969,4.264-2.166v-.279l-6.6-1.719c1.432-.565,2.656-1.121,3.927-1.532,2.489-.8,4.974-1.667,7.522-2.223a11.1,11.1,0,0,1,3.721.293,27.513,27.513,0,0,1,3.849.848l-1.823.513.026.257,1.941.5-7.113,2.7,7.075,2.908c-1.529.826-2.689,1.782-4.421.71a24.763,24.763,0,0,0-4.662-1.965,2.34,2.34,0,0,0-1.576.054c-1.33.573-2.6,1.277-4.077,2.019l6.936,3.33-2.957,1.843c2.34,1.934,3.352,1.883,5.87-.317l-2.66-1.515,4.741-2.581,2.766,1.372-4.828,2.736,4.772,2.861c-1.053.665-1.97,1.279-2.93,1.817-.176.1-.559-.05-.787-.186q-1.663-.992-3.29-2.045a1.423,1.423,0,0,0-1.793.011c-2.461,1.735-4.961,3.417-7.414,5.164a1.1,1.1,0,0,1-1.488.014c-2.478-1.645-1.54-1.552-3.827.033-.027.019-.05.045-.076.064-1.447,1.075-1.443,1.07-2.948.083-1.385-.908-2.779-1.8-4.165-2.709a7.214,7.214,0,0,1-.6-.507l3.085-2.219-2.036-1.169c.795-.518,1.478-.976,2.175-1.413,1.766-1.107,3.562-2.169,5.3-3.317,1.123-.742,1.884.061,2.913.433l-8.469,5.4c1.454.87,2.674,1.588,3.883,2.325.706.431,1.368.94,2.1,1.316a1.405,1.405,0,0,0,1.147.107c2.751-1.785,5.462-3.63,8.182-5.462C997.612,1671.763,997.636,1671.692,997.8,1671.451Zm8.412-12.089.022-.281c-2.067-.215-4.03-1.329-6.185-.7-2,.586-3.957,1.328-5.932,2l.065.229,4.591,1.152-.037.244-2.153,1.083c2.083,1.055,3.348.917,4.829-.469l-1.911-.846Z" transform="translate(-965.876 -1657.168)" fill="#fff"/>
      <path id="Trazado_148" data-name="Trazado 148" d="M1081.091,1659.591c-2.2-.669-4.39-1.377-6.61-1.976a3.885,3.885,0,0,0-1.662.188,22.68,22.68,0,0,0-3.631,1.015l6.712,2.365-2.284.9,2.619,1.213c-.913.395-1.67.718-2.424,1.049-1.184.52-2.4.988-3.54,1.585a1.929,1.929,0,0,1-2.294-.078,10.209,10.209,0,0,0-1.614-.765l7.3-3.082-6.917-2.543,1.934-.588-.014-.237-1.647-.441-.017-.213c2.314-.441,4.615-1.038,6.95-1.254a9.454,9.454,0,0,1,3.461.82c2.807.894,5.6,1.848,8.643,2.861l-7.026,1.866.03.252,4.382,2.117-2.193.992,2.809,1.69c-2.2,1.119-4.338,2.222-6.5,3.281a1.163,1.163,0,0,1-.906-.041c-.821-.414-1.6-.9-2.583-1.47l7.106-3.487-4.495-2.3,2.234-.855-2.637-1.249,4.763-1.268Z" transform="translate(-1023.323 -1656.721)" fill="#fff"/>
      <path id="Trazado_149" data-name="Trazado 149" d="M1078.135,1701.244c-1.02.763-1.875,1.43-2.766,2.045a.765.765,0,0,1-.7,0c-2.843-2.041-5.668-4.107-8.552-6.209l3.028-2.158-3.019-2.038,4.819-2.906-4.71-2.644c.848-.459,1.616-.9,2.407-1.287a.818.818,0,0,1,.642.009c1.44.739,2.865,1.507,4.4,2.324l-2.775,1.613,2.983,1.9-4.782,3.006Z" transform="translate(-1023.16 -1676.027)" fill="#fff"/>
      <path id="Trazado_150" data-name="Trazado 150" d="M1101.376,1704.65l-2.577,1.792,3.328,2.529-4.623,3.4-3.418-2.585,4.826-3.395-8.858-6.032c.877-.5,1.732-1,2.6-1.482.077-.042.249.026.346.09q4.108,2.7,8.206,5.409C1101.253,1704.409,1101.273,1704.484,1101.376,1704.65Z" transform="translate(-1038.951 -1684.522)" fill="#fff"/>
      <path id="Trazado_151" data-name="Trazado 151" d="M1028.487,1741.442c1.107-.86,2.132-1.68,3.193-2.448a.78.78,0,0,1,.7.107q4.073,3.153,8.113,6.349a2.286,2.286,0,0,1,.3.424c-1.054.881-2.1,1.771-3.167,2.621a.658.658,0,0,1-.609-.073C1034.224,1746.155,1031.446,1743.869,1028.487,1741.442Z" transform="translate(-998.337 -1710.964)" fill="#fff"/>
      <path id="Trazado_152" data-name="Trazado 152" d="M1029.658,1719.565c2.521-1.77,5-3.37,7.31-5.191,1.281-1.011,2.264-1.24,3.447-.018a7.85,7.85,0,0,0,1.362.9c-1.176.828-2.307,1.6-3.415,2.411-1.66,1.207-3.323,2.412-4.946,3.669a1,1,0,0,1-1.455,0C1031.253,1720.741,1030.5,1720.208,1029.658,1719.565Z" transform="translate(-999.109 -1694.193)" fill="#fff"/>
    </g>
  </g>
</svg>
