<svg xmlns="http://www.w3.org/2000/svg" width="96.674" height="88.017" viewBox="0 0 96.674 88.017">
  <g id="Grupo_44" data-name="Grupo 44" transform="translate(0)">
    <g id="Grupo_43" data-name="Grupo 43" transform="translate(0 66.12)">
      <g id="Grupo_41" data-name="Grupo 41">
        <path id="Trazado_113" data-name="Trazado 113" d="M422.326,2134.249a10.963,10.963,0,0,0-4.306-.91c-1.456,0-3.336.637-3.336,2.942,0,3.67,9.28,2.124,9.28,9.22,0,4.64-3.67,6.4-7.946,6.4a18.657,18.657,0,0,1-5.429-.819l.394-3.822a10.226,10.226,0,0,0,4.792,1.3c1.607,0,3.761-.819,3.761-2.73,0-4.034-9.281-2.365-9.281-9.372,0-4.731,3.67-6.46,7.4-6.46a15.97,15.97,0,0,1,5.065.759Z" transform="translate(-410.255 -2130.003)" fill="#fff"/>
        <path id="Trazado_114" data-name="Trazado 114" d="M462.772,2148.6a13.974,13.974,0,0,1,5.429-1.184c4.762,0,6.733,1.971,6.733,6.582v2c0,1.577.03,2.76.061,3.912.03,1.183.091,2.275.182,3.488H471.6a19.005,19.005,0,0,1-.182-2.336h-.061a5.577,5.577,0,0,1-4.822,2.7c-2.76,0-5.459-1.668-5.459-4.64a4.588,4.588,0,0,1,2.669-4.458,12.366,12.366,0,0,1,5.247-.91h2.244c0-2.517-1.122-3.366-3.518-3.366a8.174,8.174,0,0,0-4.822,1.7Zm4.762,12.192a3.45,3.45,0,0,0,2.851-1.4,5.176,5.176,0,0,0,.849-3.215h-1.759c-1.82,0-4.519.3-4.519,2.7C464.956,2160.217,466.078,2160.793,467.534,2160.793Z" transform="translate(-444.879 -2141.868)" fill="#fff"/>
        <path id="Trazado_115" data-name="Trazado 115" d="M514.895,2142.066h-3v-2.972h3v-3.124l4.064-1.3v4.428h3.609v2.972h-3.609v7.279c0,1.334.364,2.578,1.911,2.578a3.633,3.633,0,0,0,1.85-.424l.121,3.215a10.7,10.7,0,0,1-3,.364c-3.184,0-4.943-1.971-4.943-5.065Z" transform="translate(-479.502 -2133.18)" fill="#fff"/>
        <path id="Trazado_116" data-name="Trazado 116" d="M562.135,2151.149a6.129,6.129,0,0,0-2.76-.576c-2.517,0-4.125,2-4.125,4.944,0,2.881,1.365,5.095,4.216,5.095a8.617,8.617,0,0,0,3.124-.728l.182,3.366a13.252,13.252,0,0,1-4.064.515c-5.125,0-7.7-3.488-7.7-8.249,0-4.519,2.669-8.1,7.552-8.1a13.229,13.229,0,0,1,3.943.516Z" transform="translate(-506.15 -2141.868)" fill="#fff"/>
        <path id="Trazado_117" data-name="Trazado 117" d="M601.415,2147.418c4.64,0,8.189,3.124,8.189,8.28,0,4.489-3,8.067-8.189,8.067a7.711,7.711,0,0,1-8.158-8.067C593.257,2150.542,596.806,2147.418,601.415,2147.418Zm0,13.193c3.124,0,3.943-2.79,3.943-5.4,0-2.4-1.274-4.64-3.943-4.64-2.638,0-3.912,2.3-3.912,4.64C597.5,2157.791,598.322,2160.611,601.415,2160.611Z" transform="translate(-534.936 -2141.868)" fill="#fff"/>
        <path id="Trazado_118" data-name="Trazado 118" d="M654.544,2147.782H658.4v2.123h.061a5.834,5.834,0,0,1,5.125-2.487c3.7,0,5.307,2.609,5.307,6.127v9.857h-4.064v-8.341c0-1.911-.03-4.488-2.639-4.488-2.942,0-3.578,3.184-3.578,5.186v7.643h-4.064Z" transform="translate(-576.692 -2141.868)" fill="#fff"/>
      </g>
      <g id="Grupo_42" data-name="Grupo 42" transform="translate(92.959 5.59)">
        <path id="Trazado_119" data-name="Trazado 119" d="M703.806,2147.544a1.858,1.858,0,1,1-1.857,1.858A1.86,1.86,0,0,1,703.806,2147.544Zm0,3.3a1.452,1.452,0,1,0-1.322-1.446A1.348,1.348,0,0,0,703.806,2150.848Zm-.746-2.485h.777c.525,0,.823.154.823.618a.512.512,0,0,1-.546.55l.546.9h-.453l-.494-.875H703.5v.875h-.443Zm.8.849c.211,0,.355-.036.355-.272,0-.211-.226-.237-.4-.237H703.5v.509Z" transform="translate(-701.949 -2147.544)" fill="#fff"/>
      </g>
    </g>
    <path id="Trazado_120" data-name="Trazado 120" d="M501.969,1941.05a24.56,24.56,0,0,0-24.56,24.56q0,.807.051,1.6h0c.009.137.019.275.03.411,0,.025,0,.049.006.074q.035.42.085.837l.007.055q.052.427.118.849l0,.021q.1.654.24,1.3h0a24.562,24.562,0,1,0,24.019-29.709Zm-20.533,24.56a20.533,20.533,0,0,1,36.1-13.385c-.143,1.743-.632,7.25-1.379,11.2-.9,4.755-3.22,7.638-6.365,7.863s-5.541-2.1-7.563-10.072-3.482-11.42-6.59-10.109-5.466,8.8-5.8,16.1H481.5Q481.436,1966.419,481.436,1965.61Zm20.533,20.533a20.543,20.543,0,0,1-19.882-15.385h10.429s1.838-13.539,5.8-13.461c2.846.056,4.494,12.01,5.565,15.129,0,0,1.021,5.772,5.979,5.772s7.688-6.082,8.437-14.207c.361-3.917.644-7.181.89-9.574a20.537,20.537,0,0,1-17.217,31.726Z" transform="translate(-456.008 -1941.05)" fill="#fff"/>
  </g>
</svg>
