<svg xmlns="http://www.w3.org/2000/svg" width="124.441" height="82.887" viewBox="0 0 124.441 82.887">
  <g id="Grupo_40" data-name="Grupo 40" transform="translate(0 0)">
    <g id="Grupo_39" data-name="Grupo 39" transform="translate(69.404 32.508)">
      <path id="Trazado_110" data-name="Trazado 110" d="M124.423,1483.531v11.827q0,.952.072,1.948a5.327,5.327,0,0,0,.433,1.8,3,3,0,0,0,1.14,1.312,4.019,4.019,0,0,0,2.192.505,3.943,3.943,0,0,0,2.178-.505,3.123,3.123,0,0,0,1.139-1.312,5.132,5.132,0,0,0,.447-1.8q.072-1,.072-1.948v-11.827h5.625v12.606q0,5.077-2.322,7.413t-7.139,2.336q-4.817,0-7.154-2.336t-2.336-7.413v-12.606Z" transform="translate(-118.769 -1482.926)" fill="#fff"/>
      <path id="Trazado_111" data-name="Trazado 111" d="M197.008,1488.32h-6.721v3.634h6.346v4.789h-6.346v3.75h6.721v4.788H184.633v-21.75h12.375Z" transform="translate(-161.124 -1482.926)" fill="#fff"/>
      <path id="Trazado_112" data-name="Trazado 112" d="M240.873,1488.008a7.006,7.006,0,0,0-1.846-1.11,4.9,4.9,0,0,0-1.788-.361,2.9,2.9,0,0,0-1.789.519,1.618,1.618,0,0,0-.692,1.355,1.348,1.348,0,0,0,.346.952,3.018,3.018,0,0,0,.909.649,7.744,7.744,0,0,0,1.269.476q.706.2,1.4.433a8.727,8.727,0,0,1,4.053,2.467,6.085,6.085,0,0,1,1.284,4.024,7.832,7.832,0,0,1-.563,3.029,6.316,6.316,0,0,1-1.644,2.322,7.568,7.568,0,0,1-2.654,1.5,11.051,11.051,0,0,1-3.563.534,13.1,13.1,0,0,1-7.644-2.452l2.423-4.558a9.816,9.816,0,0,0,2.51,1.673,6.036,6.036,0,0,0,2.452.548,2.926,2.926,0,0,0,2.063-.635,1.966,1.966,0,0,0,.5-2.293,1.852,1.852,0,0,0-.577-.664,4.66,4.66,0,0,0-1.053-.562q-.649-.26-1.572-.577-1.1-.345-2.149-.764a6.738,6.738,0,0,1-1.875-1.11,5.15,5.15,0,0,1-1.327-1.745,6.163,6.163,0,0,1-.5-2.668,7.7,7.7,0,0,1,.534-2.928,6.5,6.5,0,0,1,1.5-2.25,6.693,6.693,0,0,1,2.365-1.456,8.926,8.926,0,0,1,3.13-.52,13.716,13.716,0,0,1,3.375.447,14.915,14.915,0,0,1,3.375,1.312Z" transform="translate(-188.98 -1481.835)" fill="#fff"/>
    </g>
    <g id="Grupo_97" data-name="Grupo 97" transform="translate(0)">
      <path id="Trazado_107" data-name="Trazado 107" d="M-55.5,1456.572l2.209,11.6-4.036-1.833c-11.056,9.168-10.65,30.094,7.484,37.43-3.7,1.726-3.454,4.329-1.556,7.21-10.583-1.123-20.89-10.284-22.864-20.053-2.324-11.5,3.227-20.434,9.974-29.009l-3.641-2.215Z" transform="translate(74.805 -1433.081)" fill="#fff"/>
      <path id="Trazado_108" data-name="Trazado 108" d="M20.291,1503.345l5.942,2.5,1.841-6.411c5.713,8.123,5.269,19.291-.743,28.307-6.18,9.269-15.646,11.6-25.944,12.313-.2,1.089-.371,1.973-.654,3.477l-7.981-9.106,9.16-7.532.761,5.243c7.332-.236,12.132-4.274,15.985-9.771C22.652,1516.67,22.516,1510.432,20.291,1503.345Z" transform="translate(31.36 -1460.645)" fill="#fff"/>
      <path id="Trazado_109" data-name="Trazado 109" d="M-11.862,1401.381l-8.963,14.729-.806-.084-1.039-4.671-3.768.553,14.485-21.151,22.546,32.737,4.712-2.167L12.034,1432.5.661,1429.029l2.743-2.47Z" transform="translate(43.701 -1390.757)" fill="#fff"/>
    </g>
  </g>
</svg>
