<svg xmlns="http://www.w3.org/2000/svg" width="194.334" height="44.424" viewBox="0 0 194.334 44.424">
  <g id="Grupo_38" data-name="Grupo 38" transform="translate(0 0)">
    <path id="Trazado_98" data-name="Trazado 98" d="M2077.661,2157.007h-.421v-2.483l-.075-.015c-.287.691-.567,1.385-.866,2.072a2.679,2.679,0,0,1-.3.438,3,3,0,0,1-.3-.45c-.291-.67-.565-1.347-.914-2.02V2157h-.483v-3.478c.364-.126.552-.02.682.34.3.831.647,1.645,1.015,2.566.1-.257.172-.428.24-.6.259-.646.542-1.283.767-1.939.12-.351.305-.482.654-.41Z" transform="translate(-1883.327 -2136.415)" fill="#fff"/>
    <path id="Trazado_106" data-name="Trazado 106" d="M2065.738,2157.086h-.479v-3.107h-1.211c-.012-.143-.022-.255-.035-.4h2.943c.006.113.013.225.022.382h-1.24Z" transform="translate(-1876.61 -2136.495)" fill="#fff"/>
    <g id="Grupo_103" data-name="Grupo 103" transform="translate(158.755)">
      <path id="Trazado_96" data-name="Trazado 96" d="M1995.125,2104.354c.743.121,1.493.205,2.227.367a11.746,11.746,0,0,1,6.7,3.8,9.418,9.418,0,0,1,2.208,6.139c.031,2.183.008,4.367.007,6.551,0,.047-.01.094-.021.187h-5.6v.465q0,4.032,0,8.063a6.283,6.283,0,0,1-.031.647,1.819,1.819,0,0,1-3.615.005,6.211,6.211,0,0,1-.027-.647q0-4.013,0-8.027v-.475h-5.8v8.5c0,.131,0,.264,0,.4a1.793,1.793,0,0,1-2.4,1.8,1.662,1.662,0,0,1-1.247-1.582,5.121,5.121,0,0,1-.018-.575q0-4.031,0-8.063v-.483h-5.825a1.706,1.706,0,0,1-.033-.224c.021-2.279-.025-4.562.083-6.837.206-4.322,2.553-7.154,6.414-8.849a14.225,14.225,0,0,1,4.417-1.091,3.328,3.328,0,0,0,.346-.068Z" transform="translate(-1981.579 -2104.354)" fill="#fff"/>
      <path id="Trazado_97" data-name="Trazado 97" d="M1992.865,2208.946c-.776-.146-1.564-.243-2.325-.444a12.288,12.288,0,0,1-9.06-11.458c0-.12,0-.239,0-.412.521,0,1.031-.013,1.54.011.1,0,.2.15.3.237a7.44,7.44,0,0,0,7.558,1.781,6.625,6.625,0,0,0,2.717-1.773c.083-.085.153-.182.316-.377a2.916,2.916,0,0,0,.269.4,7.113,7.113,0,0,0,10.188-.061.8.8,0,0,1,.484-.217c.4-.031.808-.01,1.323-.01-.125.926-.185,1.811-.37,2.669a12.29,12.29,0,0,1-10.758,9.584,2.569,2.569,0,0,0-.31.068Z" transform="translate(-1981.478 -2164.522)" fill="#fff"/>
    </g>
    <g id="Grupo_102" data-name="Grupo 102" transform="translate(95.045 16.353)">
      <path id="Trazado_102" data-name="Trazado 102" d="M1820.214,2160.961a8.675,8.675,0,0,1-5.235,8.288,12.312,12.312,0,0,1-11.845-.459c-3.3-1.909-4.636-4.958-4.319-8.7a8.592,8.592,0,0,1,5.8-7.642,12.527,12.527,0,0,1,10.311.257A8.731,8.731,0,0,1,1820.214,2160.961Zm-10.663,4a3.788,3.788,0,0,0,3.958-4.078,4.027,4.027,0,1,0-8.049.284A3.778,3.778,0,0,0,1809.551,2164.963Z" transform="translate(-1798.77 -2151.467)" fill="#fff"/>
      <path id="Trazado_103" data-name="Trazado 103" d="M1872.031,2161.434l8.8,9.635c-.18.009-.281.019-.383.019-2.508,0-5.016.005-7.524-.009a.772.772,0,0,1-.51-.234c-1.4-1.569-2.775-3.152-4.16-4.73-.077-.088-.16-.172-.263-.281-.219.249-.424.48-.625.713-1.241,1.433-2.479,2.869-3.726,4.3a.645.645,0,0,1-.4.236c-2.639.014-5.279.01-8.037.01l8.822-9.654-7.14-8.088c.164-.013.264-.028.364-.028,2.436,0,4.872-.005,7.307.008a.723.723,0,0,1,.48.22c.886,1.01,1.754,2.036,2.627,3.057.1.118.2.234.331.382.306-.348.6-.678.887-1.01.71-.813,1.413-1.633,2.133-2.437a.642.642,0,0,1,.413-.21c2.556-.012,5.111-.009,7.667-.007.056,0,.112.007.255.019Z" transform="translate(-1835.619 -2152.674)" fill="#fff"/>
    </g>
    <path id="Trazado_99" data-name="Trazado 99" d="M1733.98,2121.814h6.252V2134.4a2.11,2.11,0,0,0,.211-.15,7.444,7.444,0,0,1,6.177-2.042,8.87,8.87,0,0,1,7.892,7.92,9.5,9.5,0,0,1-2.639,8.4,8.248,8.248,0,0,1-8.773,2.141,5.17,5.17,0,0,1-2.675-1.921c-.033-.044-.073-.084-.174-.2v1.948h-6.271Zm10.032,23.789a3.782,3.782,0,0,0,4.1-3.788,4.028,4.028,0,1,0-8.049-.332A3.789,3.789,0,0,0,1744.012,2145.6Z" transform="translate(-1661.562 -2115.754)" fill="#fff"/>
    <path id="Trazado_105" data-name="Trazado 105" d="M1710.709,2150.518h-6.216V2121.83h6.216Z" transform="translate(-1642.245 -2115.764)" fill="#fff"/>
    <path id="Trazado_104" data-name="Trazado 104" d="M1674.445,2121.823h6.24V2150.5h-6.24Z" transform="translate(-1622.262 -2115.76)" fill="#fff"/>
    <path id="Trazado_101" data-name="Trazado 101" d="M1619.011,2153.79v-1.58h6.231v17.729h-6.224v-1.91c-.09.054-.135.067-.157.1a5.727,5.727,0,0,1-4.209,2.342,8.8,8.8,0,0,1-9.812-7.242,9.744,9.744,0,0,1,2.49-9.058,8.411,8.411,0,0,1,10.121-1.524A18.451,18.451,0,0,1,1619.011,2153.79Zm-3.836,3.262a3.845,3.845,0,0,0-4.049,4.01,4.022,4.022,0,0,0,8.043.051A3.838,3.838,0,0,0,1615.175,2157.052Z" transform="translate(-1576.487 -2135.192)" fill="#fff"/>
    <path id="Trazado_100" data-name="Trazado 100" d="M1536.811,2169.11a9.194,9.194,0,0,1-2.346,1.8c-3.31,1.811-9.057.024-10.152-4.514a6.723,6.723,0,0,1-.2-1.529c-.016-3.732-.009-7.463-.009-11.194,0-.083.009-.165.016-.276h5.9v.419q0,4.859,0,9.719c0,.108,0,.216,0,.323a1.862,1.862,0,0,0,2.583,1.855,1.58,1.58,0,0,0,1.136-1.313,4.258,4.258,0,0,0,.07-.823q.007-4.859,0-9.719v-.46h5.98v.423q0,4.715,0,9.43c0,.24,0,.48.008.719a1.9,1.9,0,0,0,2.91,1.6,1.689,1.689,0,0,0,.831-1.357,5.17,5.17,0,0,0,.033-.682q0-4.823,0-9.646v-.49h5.985v.466c0,3.5-.056,7.008.015,10.509a7.255,7.255,0,0,1-12.486,4.977c-.068-.067-.133-.138-.2-.2A.306.306,0,0,0,1536.811,2169.11Z" transform="translate(-1524.105 -2136.376)" fill="#fff"/>
  </g>
</svg>
