<svg xmlns="http://www.w3.org/2000/svg" width="194.101" height="50.695" viewBox="0 0 194.101 50.695">
  <g id="Grupo_59" data-name="Grupo 59" transform="translate(0 0)">
    <g id="Grupo_57" data-name="Grupo 57" transform="translate(82.585 21.34)">
      <path id="Trazado_198" data-name="Trazado 198" d="M1206.677,2474.879l-1.176-2.358c-.472-.913-.8-1.593-1.155-2.346h-.04c-.272.755-.592,1.438-1.015,2.339l-1.077,2.365h-3.356l3.767-6.6-3.633-6.435h3.388l1.142,2.373c.381.792.663,1.436.971,2.167h.05c.314-.827.555-1.407.888-2.16l1.1-2.381h3.365l-3.675,6.361,3.869,6.675Z" transform="translate(-1198.857 -2461.843)" fill="#fff"/>
      <path id="Trazado_199" data-name="Trazado 199" d="M1233.478,2461.843v7.5c0,2.252.865,3.4,2.361,3.4,1.548,0,2.4-1.091,2.4-3.4v-7.5h2.948v7.316c0,4.021-2.034,5.932-5.445,5.932-3.291,0-5.211-1.824-5.211-5.967v-7.281Z" transform="translate(-1217.821 -2461.843)" fill="#fff"/>
      <path id="Trazado_200" data-name="Trazado 200" d="M1269.41,2474.879l-4.181-13.035h3.228l1.577,5.519c.456,1.55.852,3.025,1.177,4.651h.041c.33-1.566.751-3.113,1.194-4.6l1.655-5.565h3.135l-4.383,13.035Z" transform="translate(-1238.596 -2461.843)" fill="#fff"/>
      <path id="Trazado_201" data-name="Trazado 201" d="M1327.034,2461.843h2.948v10.564h5.186v2.471h-8.133Z" transform="translate(-1275.601 -2461.843)" fill="#fff"/>
      <path id="Trazado_202" data-name="Trazado 202" d="M1360.263,2479.886l-.173-.941h-.063a3.394,3.394,0,0,1-2.7,1.154,2.888,2.888,0,0,1-3.059-2.9c0-2.467,2.205-3.636,5.555-3.631v-.121c0-.5-.27-1.222-1.733-1.219a5.443,5.443,0,0,0-2.609.707l-.541-1.883a7.645,7.645,0,0,1,3.679-.85c3.151,0,4.148,1.864,4.148,4.086v3.3a13.6,13.6,0,0,0,.151,2.292Zm-.358-4.476c-1.547-.009-2.744.365-2.744,1.492a1.061,1.061,0,0,0,1.168,1.133,1.609,1.609,0,0,0,1.523-1.088,1.868,1.868,0,0,0,.054-.5Z" transform="translate(-1291.905 -2466.851)" fill="#fff"/>
      <path id="Trazado_203" data-name="Trazado 203" d="M1384.612,2477.322a5.718,5.718,0,0,0,2.523.7c.888,0,1.268-.3,1.268-.782s-.3-.728-1.388-1.095c-1.968-.647-2.709-1.718-2.7-2.829,0-1.778,1.5-3.114,3.849-3.114a6.26,6.26,0,0,1,2.666.553l-.513,2.026a4.826,4.826,0,0,0-2.051-.534c-.719,0-1.129.287-1.129.763,0,.453.375.693,1.536,1.093,1.8.61,2.548,1.533,2.559,2.914,0,1.766-1.378,3.068-4.09,3.068a6.77,6.77,0,0,1-3.065-.665Z" transform="translate(-1309.756 -2466.851)" fill="#fff"/>
      <path id="Trazado_204" data-name="Trazado 204" d="M1412.013,2476.1c.089,1.222,1.295,1.8,2.668,1.8a7.887,7.887,0,0,0,2.605-.4l.4,1.991a9.185,9.185,0,0,1-3.43.6c-3.207,0-5.048-1.867-5.048-4.818,0-2.4,1.5-5.065,4.771-5.065,3.068,0,4.227,2.385,4.227,4.727a5.712,5.712,0,0,1-.1,1.165Zm3.455-2.016a1.71,1.71,0,0,0-1.651-1.918,1.948,1.948,0,0,0-1.828,1.918Z" transform="translate(-1324.801 -2466.851)" fill="#fff"/>
      <path id="Trazado_205" data-name="Trazado 205" d="M1437.668,2472.853c0-1.389-.025-2.305-.077-3.12h2.529l.107,1.752h.072a2.774,2.774,0,0,1,2.555-1.966,2.569,2.569,0,0,1,.629.055v2.768a3.651,3.651,0,0,0-.8-.083,1.9,1.9,0,0,0-2.017,1.5,3.514,3.514,0,0,0-.055.655v4.79h-2.948Z" transform="translate(-1341.796 -2466.439)" fill="#fff"/>
      <path id="Trazado_206" data-name="Trazado 206" d="M1459.471,2477.322a5.721,5.721,0,0,0,2.523.7c.888,0,1.268-.3,1.268-.782s-.3-.728-1.389-1.095c-1.968-.647-2.709-1.718-2.7-2.829,0-1.778,1.5-3.114,3.848-3.114a6.258,6.258,0,0,1,2.666.553l-.513,2.026a4.824,4.824,0,0,0-2.051-.534c-.718,0-1.129.287-1.129.763,0,.453.376.693,1.536,1.093,1.8.61,2.548,1.533,2.56,2.914,0,1.766-1.378,3.068-4.09,3.068a6.77,6.77,0,0,1-3.065-.665Z" transform="translate(-1354.577 -2466.851)" fill="#fff"/>
    </g>
    <g id="Grupo_58" data-name="Grupo 58" transform="translate(0 0)">
      <ellipse id="Elipse_16" data-name="Elipse 16" cx="7.163" cy="7.163" rx="7.163" ry="7.163" transform="translate(37.195 19.149)" fill="#fff"/>
      <ellipse id="Elipse_17" data-name="Elipse 17" cx="5.51" cy="5.51" rx="5.51" ry="5.51" transform="translate(22.317 5.098)" fill="#fff"/>
      <ellipse id="Elipse_18" data-name="Elipse 18" cx="3.857" cy="3.857" rx="3.857" ry="3.857" transform="translate(7.853 21.766)" fill="#fff"/>
      <ellipse id="Elipse_19" data-name="Elipse 19" cx="5.51" cy="5.51" rx="5.51" ry="5.51" transform="translate(22.317 35.817)" fill="#fff"/>
      <path id="Trazado_207" data-name="Trazado 207" d="M1065.764,2454.763a17.651,17.651,0,0,0,7.845,2.252,14.728,14.728,0,0,0,7.376-2.252,14.677,14.677,0,0,0-1.99,7.076,15.131,15.131,0,0,0,1.99,7.149s-2.459-1.7-7.61-1.7-7.61,2.108-7.61,2.108,2.225-3.805,2.225-7.318S1065.764,2454.763,1065.764,2454.763Z" transform="translate(-1046.505 -2436.264)" fill="#fff"/>
      <path id="Trazado_208" data-name="Trazado 208" d="M1128.134,2415.759a6.055,6.055,0,0,0-11.476-2.7h0l0,.005a6.069,6.069,0,0,0-.4,1.027l-3.653,9.363,9.978-1.639.341-.061A6.055,6.055,0,0,0,1128.134,2415.759Z" transform="translate(-1074.548 -2409.283)" fill="#fff"/>
      <path id="Trazado_209" data-name="Trazado 209" d="M1022.294,2421.311l.035.012,13.643,4.593-5.65-13a6.5,6.5,0,0,0-.319-.735l-.014-.033h0a6.473,6.473,0,1,0-7.866,9.1l0,0Z" transform="translate(-1017.769 -2408.66)" fill="#fff"/>
      <path id="Trazado_210" data-name="Trazado 210" d="M1030.194,2506.317c.026-.062.049-.125.073-.188l4.585-11.8-11.769,3.066a6.461,6.461,0,0,0-.929.241l-.065.018,0,0a6.473,6.473,0,1,0,8.091,8.679h0Z" transform="translate(-1017.769 -2459.953)" fill="#fff"/>
      <path id="Trazado_211" data-name="Trazado 211" d="M1124.78,2504.371l0,0-.015,0c-.033-.014-.069-.021-.1-.035l-10.99-3.708,3.991,9.937.019-.016a5.225,5.225,0,1,0,7.1-6.171Z" transform="translate(-1075.192 -2463.721)" fill="#fff"/>
    </g>
  </g>
</svg>
