<svg xmlns="http://www.w3.org/2000/svg" xmlns:xlink="http://www.w3.org/1999/xlink" width="1122.495" height="660.5" viewBox="0 0 1122.495 660.5"><defs><filter id="a" x="770.495" y="308.5" width="352" height="352" filterUnits="userSpaceOnUse"><feOffset dy="3" input="SourceAlpha"/><feGaussianBlur stdDeviation="3" result="b"/><feFlood flood-color="#fff" flood-opacity="0.349"/><feComposite operator="in" in2="b"/><feComposite in="SourceGraphic"/></filter><filter id="c" x="770.495" y="308.5" width="352" height="352" filterUnits="userSpaceOnUse"><feOffset dy="3" input="SourceAlpha"/><feGaussianBlur stdDeviation="3" result="d"/><feFlood flood-color="#fff" flood-opacity="0.349"/><feComposite operator="in" in2="d"/></filter><filter id="e" x="770.495" y="308.5" width="352" height="352" filterUnits="userSpaceOnUse"><feOffset dy="10" input="SourceAlpha"/><feGaussianBlur stdDeviation="3" result="f"/><feFlood flood-opacity="0.502" result="g"/><feComposite operator="out" in="SourceGraphic" in2="f"/><feComposite operator="in" in="g"/><feComposite operator="in" in2="SourceGraphic"/></filter><filter id="h" x="808.874" y="349.891" width="274.242" height="274.218" filterUnits="userSpaceOnUse"><feOffset dy="5" input="SourceAlpha"/><feGaussianBlur stdDeviation="3" result="i"/><feFlood flood-opacity="0.502"/><feComposite operator="in" in2="i"/><feComposite in="SourceGraphic"/></filter><filter id="j" x="808.874" y="349.891" width="274.242" height="274.218" filterUnits="userSpaceOnUse"><feOffset dy="1" input="SourceAlpha"/><feGaussianBlur stdDeviation="1" result="k"/><feFlood flood-color="#fff" flood-opacity="0.502" result="l"/><feComposite operator="out" in="SourceGraphic" in2="k"/><feComposite operator="in" in="l"/><feComposite operator="in" in2="SourceGraphic"/></filter><filter id="m" x="848.495" y="388.5" width="196" height="196" filterUnits="userSpaceOnUse"><feOffset dy="5" input="SourceAlpha"/><feGaussianBlur stdDeviation="3" result="n"/><feFlood flood-opacity="0.251"/><feComposite operator="in" in2="n"/><feComposite in="SourceGraphic"/></filter><filter id="o" x="848.495" y="388.5" width="196" height="196" filterUnits="userSpaceOnUse"><feOffset dy="3" input="SourceAlpha"/><feGaussianBlur stdDeviation="3" result="p"/><feFlood flood-color="#fff" flood-opacity="0.502" result="q"/><feComposite operator="out" in="SourceGraphic" in2="p"/><feComposite operator="in" in="q"/><feComposite operator="in" in2="SourceGraphic"/></filter><filter id="r" x="879.495" y="420.5" width="134" height="134" filterUnits="userSpaceOnUse"><feOffset dy="5" input="SourceAlpha"/><feGaussianBlur stdDeviation="3" result="s"/><feFlood flood-opacity="0.502"/><feComposite operator="in" in2="s"/><feComposite in="SourceGraphic"/></filter><filter id="t" x="879.495" y="420.5" width="134" height="134" filterUnits="userSpaceOnUse"><feOffset dy="2" input="SourceAlpha"/><feGaussianBlur stdDeviation="2.5" result="u"/><feFlood flood-color="#fff" flood-opacity="0.349" result="v"/><feComposite operator="out" in="SourceGraphic" in2="u"/><feComposite operator="in" in="v"/><feComposite operator="in" in2="SourceGraphic"/></filter><filter id="w" x="866.495" y="403.5" width="17" height="18" filterUnits="userSpaceOnUse"><feOffset dy="2" input="SourceAlpha"/><feGaussianBlur stdDeviation="1" result="x"/><feFlood flood-opacity="0.251"/><feComposite operator="in" in2="x"/><feComposite in="SourceGraphic"/></filter><filter id="y" x="866.495" y="546.5" width="17" height="17" filterUnits="userSpaceOnUse"><feOffset dy="2" input="SourceAlpha"/><feGaussianBlur stdDeviation="1" result="z"/><feFlood flood-opacity="0.251"/><feComposite operator="in" in2="z"/><feComposite in="SourceGraphic"/></filter><filter id="aa" x="1008.495" y="403.5" width="17" height="18" filterUnits="userSpaceOnUse"><feOffset dy="2" input="SourceAlpha"/><feGaussianBlur stdDeviation="1" result="ab"/><feFlood flood-opacity="0.251"/><feComposite operator="in" in2="ab"/><feComposite in="SourceGraphic"/></filter><filter id="ac" x="1008.495" y="546.5" width="17" height="17" filterUnits="userSpaceOnUse"><feOffset dy="2" input="SourceAlpha"/><feGaussianBlur stdDeviation="1" result="ad"/><feFlood flood-opacity="0.251"/><feComposite operator="in" in2="ad"/><feComposite in="SourceGraphic"/></filter></defs><g transform="translate(153.495 -1077.5)"><g transform="matrix(1, 0, 0, 1, -153.49, 1077.5)" filter="url(#a)"><rect width="334" height="334" rx="58" transform="translate(779.49 314.5)" fill="#262626"/></g><path d="M971.192,1425.557V1320.791L1018,1273.982v-24.648l41.5-41.5v-39.736l-35.812-35.812v-26.643L1049.332,1080" transform="translate(-101)" fill="none" stroke="#41976d" stroke-linejoin="round" stroke-width="3"/><path d="M961.6,1425.557v-107.22l48.5-48.5v-23.17l42.929-42.929v-30.653l-36.165-36.165V1080" transform="translate(-101)" fill="none" stroke="#41976d" stroke-linejoin="round" stroke-width="5"/><path d="M810.429,1425.557v-71.2l-39.812-39.812H742.209L712.961,1343.8H650.675L537.092,1230.214H189.612l-27.88-27.88H-.126" transform="translate(-101)" fill="none" stroke="#41976d" stroke-width="5"/><path d="M821.343,1425.557v-79.125l14.055-14.056v-44.885l-11.748-11.748H805.786l-16.869-16.869H654.4l-67.394-67.394H-.819" transform="translate(-101)" fill="none" stroke="#41976d" stroke-width="3"/><path d="M831.184,1425.557v-71.709l20.258-20.258v-60.413l-26.425-26.425H669.433l-81.446-81.446h-208.1L294.576,1080H-36.091" transform="translate(-101)" fill="none" stroke="#41976d" stroke-width="5"/><path d="M840.016,1425.557V1361.02l25.774-25.774v-96.612l-46.672-46.672H726.1L614.139,1080H.58" transform="translate(-101)" fill="none" stroke="#41976d" stroke-width="2"/><path d="M851.442,1425.557v-54.344l40.354-40.354V1169.581L802.215,1080H-52.495" transform="translate(-101)" fill="none" stroke="#41976d" stroke-width="5"/><path d="M860.914,1425.557v-50.3l42.524-42.524V1192.263l48.294-48.294V1115l-34.981-34.981H73.09" transform="translate(-101)" fill="none" stroke="#41976d" stroke-width="3"/><path d="M871.208,1425.557v-59.125" transform="translate(-101)" fill="none" stroke="#41976d" stroke-width="5"/><path d="M880.7,1425.557v-45.287l16.863-16.863v-22.888" transform="translate(-101)" fill="none" stroke="#41976d" stroke-width="5"/><path d="M891.8,1425.557V1378.78l15.424-15.424v-22.594l6.645-6.645v-141.13l46.436-46.436V1080" transform="translate(-101)" fill="none" stroke="#41976d" stroke-width="5"/><path d="M951.732,1425.543V1309.387l23.776-23.776h17.163" transform="translate(-101)" fill="none" stroke="#41976d" stroke-width="5"/><path d="M941.209,1425.557V1305.128l39.935-39.935v-8.046l8.918-8.918h9.208l44.146-44.145v-39.816" transform="translate(-101)" fill="none" stroke="#41976d" stroke-width="5"/><path d="M931.055,1425.543V1301.17l25.6-25.6v-32.922l26.935-26.935h36.284l14.857-14.857V1169.6l-34.285-34.285v-37.177l17-17" transform="translate(-101)" fill="none" stroke="#41976d" stroke-width="3"/><path d="M921.443,1425.557V1364.8l6.051-6.051v-63.354l24.724-24.724v-33.581l29.187-29.187h28.422l9.316-9.316v-31.023l-27.676-27.676v-31.928l25.879-25.879" transform="translate(-101)" fill="none" stroke="#41976d" stroke-width="5"/><path d="M910.979,1425.557v-35.3l10.365-10.365" transform="translate(-101)" fill="none" stroke="#41976d" stroke-width="3"/><path d="M901.7,1425.557v-56.239" transform="translate(-101)" fill="none" stroke="#41976d" stroke-width="3"/><g transform="translate(-63.314 -21)"><g data-type="innerShadowGroup"><g transform="matrix(1, 0, 0, 1, -90.18, 1098.5)" filter="url(#c)" style="mix-blend-mode:multiply;isolation:isolate"><rect width="334" height="334" rx="58" transform="translate(779.49 314.5)" fill="#fff"/></g><g transform="matrix(1, 0, 0, 1, -90.18, 1098.5)" filter="url(#e)" style="mix-blend-mode:multiply;isolation:isolate"><rect width="334" height="334" rx="58" transform="translate(779.49 314.5)" fill="#fff"/></g></g><g data-type="innerShadowGroup"><g transform="matrix(1, 0, 0, 1, -90.18, 1098.5)" filter="url(#h)"><path d="M212.01,261.109v-15.73h-5v15.73a2.5,2.5,0,0,1-5,0v-15.73h-5v15.73a2.5,2.5,0,0,1-5,0v-15.73h-5v15.73a2.5,2.5,0,0,1-5,0v-15.73h-5v15.73a2.5,2.5,0,1,1-5,0v-15.73h-5v15.73a2.5,2.5,0,1,1-5,0v-15.73h-5v15.73a2.5,2.5,0,1,1-5,0v-15.73h-5v15.73a2.5,2.5,0,1,1-5,0v-15.73h-5v15.73a2.5,2.5,0,0,1-5,0v-15.73h-5v15.73a2.5,2.5,0,0,1-5,0v-15.73h-5v15.73a2.5,2.5,0,0,1-5,0v-15.73h-5v15.73a2.5,2.5,0,0,1-5,0v-15.73h-5v15.73a2.5,2.5,0,0,1-5,0v-15.73h-5v15.73a2.5,2.5,0,1,1-5,0v-15.73h-5v15.73a2.5,2.5,0,1,1-5,0v-15.73h-5v15.73a2.5,2.5,0,1,1-5,0v-15.73h-5v15.73a2.5,2.5,0,1,1-5,0v-15.73h-.4a25,25,0,0,1-25-25V218H10.879a2.5,2.5,0,1,1,0-5h15.73v-5H10.879a2.5,2.5,0,1,1,0-5h15.73v-5H10.879a2.5,2.5,0,1,1,0-5h15.73v-5H10.879a2.5,2.5,0,1,1,0-5h15.73v-5H10.879a2.5,2.5,0,1,1,0-5h15.73v-5H10.879a2.5,2.5,0,1,1,0-5h15.73v-5H10.879a2.5,2.5,0,1,1,0-5h15.73v-5H10.879a2.5,2.5,0,1,1,0-5h15.73v-5H10.879a2.5,2.5,0,0,1,0-5h15.73v-5H10.879a2.5,2.5,0,1,1,0-5h15.73v-5H10.879a2.5,2.5,0,1,1,0-5h15.73v-5H10.879a2.5,2.5,0,1,1,0-5h15.73V98H10.879a2.5,2.5,0,1,1,0-5h15.73V88H10.879a2.5,2.5,0,1,1,0-5h15.73V78H10.879a2.5,2.5,0,0,1,0-5h15.73V68H10.879a2.5,2.5,0,0,1,0-5h15.73V58H10.879a2.5,2.5,0,1,1,0-5h15.73V50.621a25,25,0,0,1,25-25h.4V9.891a2.5,2.5,0,1,1,5,0V25.622h5V9.891a2.5,2.5,0,1,1,5,0V25.622h5V9.891a2.5,2.5,0,1,1,5,0V25.622h5V9.891a2.5,2.5,0,1,1,5,0V25.622h5V9.891a2.5,2.5,0,1,1,5,0V25.622h5V9.891a2.5,2.5,0,1,1,5,0V25.622h5V9.891a2.5,2.5,0,1,1,5,0V25.622h5V9.891a2.5,2.5,0,0,1,5,0V25.622h5V9.891a2.5,2.5,0,1,1,5,0V25.622h5V9.891a2.5,2.5,0,1,1,5,0V25.622h5V9.891a2.5,2.5,0,1,1,5,0V25.622h5V9.891a2.5,2.5,0,1,1,5,0V25.622h5V9.891a2.5,2.5,0,1,1,5,0V25.622h5V9.891a2.5,2.5,0,1,1,5,0V25.622h5V9.891a2.5,2.5,0,0,1,5,0V25.622h5V9.891a2.5,2.5,0,1,1,5,0V25.622h5V9.891a2.5,2.5,0,0,1,5,0V25.622h4.379a25,25,0,0,1,25,25V53h15.731a2.5,2.5,0,0,1,0,5H246.389v5h15.731a2.5,2.5,0,0,1,0,5H246.389v5h15.731a2.5,2.5,0,0,1,0,5H246.389v5h15.731a2.5,2.5,0,0,1,0,5H246.389v5h15.731a2.5,2.5,0,1,1,0,5H246.389v5h15.731a2.5,2.5,0,1,1,0,5H246.389v5h15.731a2.5,2.5,0,1,1,0,5H246.389v5h15.731a2.5,2.5,0,1,1,0,5H246.389v5h15.731a2.5,2.5,0,0,1,0,5H246.389v5h15.731a2.5,2.5,0,0,1,0,5H246.389v5h15.731a2.5,2.5,0,0,1,0,5H246.389v5h15.731a2.5,2.5,0,0,1,0,5H246.389v5h15.731a2.5,2.5,0,0,1,0,5H246.389v5h15.731a2.5,2.5,0,1,1,0,5H246.389v5h15.731a2.5,2.5,0,1,1,0,5H246.389v5h15.731a2.5,2.5,0,1,1,0,5H246.389v5h15.731a2.5,2.5,0,1,1,0,5H246.389v2.379a25,25,0,0,1-25,25h-4.379v15.73a2.5,2.5,0,0,1-5,0Z" transform="translate(809.49 346.5)" fill="#41976d"/></g><g transform="matrix(1, 0, 0, 1, -90.18, 1098.5)" filter="url(#j)"><path d="M212.01,261.109v-15.73h-5v15.73a2.5,2.5,0,0,1-5,0v-15.73h-5v15.73a2.5,2.5,0,0,1-5,0v-15.73h-5v15.73a2.5,2.5,0,0,1-5,0v-15.73h-5v15.73a2.5,2.5,0,1,1-5,0v-15.73h-5v15.73a2.5,2.5,0,1,1-5,0v-15.73h-5v15.73a2.5,2.5,0,1,1-5,0v-15.73h-5v15.73a2.5,2.5,0,1,1-5,0v-15.73h-5v15.73a2.5,2.5,0,0,1-5,0v-15.73h-5v15.73a2.5,2.5,0,0,1-5,0v-15.73h-5v15.73a2.5,2.5,0,0,1-5,0v-15.73h-5v15.73a2.5,2.5,0,0,1-5,0v-15.73h-5v15.73a2.5,2.5,0,0,1-5,0v-15.73h-5v15.73a2.5,2.5,0,1,1-5,0v-15.73h-5v15.73a2.5,2.5,0,1,1-5,0v-15.73h-5v15.73a2.5,2.5,0,1,1-5,0v-15.73h-5v15.73a2.5,2.5,0,1,1-5,0v-15.73h-.4a25,25,0,0,1-25-25V218H10.879a2.5,2.5,0,1,1,0-5h15.73v-5H10.879a2.5,2.5,0,1,1,0-5h15.73v-5H10.879a2.5,2.5,0,1,1,0-5h15.73v-5H10.879a2.5,2.5,0,1,1,0-5h15.73v-5H10.879a2.5,2.5,0,1,1,0-5h15.73v-5H10.879a2.5,2.5,0,1,1,0-5h15.73v-5H10.879a2.5,2.5,0,1,1,0-5h15.73v-5H10.879a2.5,2.5,0,1,1,0-5h15.73v-5H10.879a2.5,2.5,0,0,1,0-5h15.73v-5H10.879a2.5,2.5,0,1,1,0-5h15.73v-5H10.879a2.5,2.5,0,1,1,0-5h15.73v-5H10.879a2.5,2.5,0,1,1,0-5h15.73V98H10.879a2.5,2.5,0,1,1,0-5h15.73V88H10.879a2.5,2.5,0,1,1,0-5h15.73V78H10.879a2.5,2.5,0,0,1,0-5h15.73V68H10.879a2.5,2.5,0,0,1,0-5h15.73V58H10.879a2.5,2.5,0,1,1,0-5h15.73V50.621a25,25,0,0,1,25-25h.4V9.891a2.5,2.5,0,1,1,5,0V25.622h5V9.891a2.5,2.5,0,1,1,5,0V25.622h5V9.891a2.5,2.5,0,1,1,5,0V25.622h5V9.891a2.5,2.5,0,1,1,5,0V25.622h5V9.891a2.5,2.5,0,1,1,5,0V25.622h5V9.891a2.5,2.5,0,1,1,5,0V25.622h5V9.891a2.5,2.5,0,1,1,5,0V25.622h5V9.891a2.5,2.5,0,0,1,5,0V25.622h5V9.891a2.5,2.5,0,1,1,5,0V25.622h5V9.891a2.5,2.5,0,1,1,5,0V25.622h5V9.891a2.5,2.5,0,1,1,5,0V25.622h5V9.891a2.5,2.5,0,1,1,5,0V25.622h5V9.891a2.5,2.5,0,1,1,5,0V25.622h5V9.891a2.5,2.5,0,1,1,5,0V25.622h5V9.891a2.5,2.5,0,0,1,5,0V25.622h5V9.891a2.5,2.5,0,1,1,5,0V25.622h5V9.891a2.5,2.5,0,0,1,5,0V25.622h4.379a25,25,0,0,1,25,25V53h15.731a2.5,2.5,0,0,1,0,5H246.389v5h15.731a2.5,2.5,0,0,1,0,5H246.389v5h15.731a2.5,2.5,0,0,1,0,5H246.389v5h15.731a2.5,2.5,0,0,1,0,5H246.389v5h15.731a2.5,2.5,0,1,1,0,5H246.389v5h15.731a2.5,2.5,0,1,1,0,5H246.389v5h15.731a2.5,2.5,0,1,1,0,5H246.389v5h15.731a2.5,2.5,0,1,1,0,5H246.389v5h15.731a2.5,2.5,0,0,1,0,5H246.389v5h15.731a2.5,2.5,0,0,1,0,5H246.389v5h15.731a2.5,2.5,0,0,1,0,5H246.389v5h15.731a2.5,2.5,0,0,1,0,5H246.389v5h15.731a2.5,2.5,0,0,1,0,5H246.389v5h15.731a2.5,2.5,0,1,1,0,5H246.389v5h15.731a2.5,2.5,0,1,1,0,5H246.389v5h15.731a2.5,2.5,0,1,1,0,5H246.389v5h15.731a2.5,2.5,0,1,1,0,5H246.389v2.379a25,25,0,0,1-25,25h-4.379v15.73a2.5,2.5,0,0,1-5,0Z" transform="translate(809.49 346.5)" fill="#fff"/></g></g><g data-type="innerShadowGroup"><g transform="matrix(1, 0, 0, 1, -90.18, 1098.5)" filter="url(#m)"><rect width="178" height="178" rx="21" transform="translate(857.49 392.5)" fill="#262626"/></g><g transform="matrix(1, 0, 0, 1, -90.18, 1098.5)" filter="url(#o)"><rect width="178" height="178" rx="21" transform="translate(857.49 392.5)" fill="#fff"/></g></g><circle cx="37" cy="37" r="37" transform="translate(819.314 1544)" fill="#41976d"/><g data-type="innerShadowGroup"><g transform="matrix(1, 0, 0, 1, -90.18, 1098.5)" filter="url(#r)"><path d="M104,116H12A12,12,0,0,1,0,104V12A12,12,0,0,1,12,0h92a12,12,0,0,1,12,12v92a12,12,0,0,1-12,12ZM21.513,58.109a36.487,36.487,0,1,0,70.9-12.258H79.975l-6,21.71a3.615,3.615,0,0,1-3.484,2.66h-.532a3.616,3.616,0,0,1-3.485-2.66L58.036,36.974,46.519,79.818A3.628,3.628,0,0,1,43.025,82.5h-.553a3.641,3.641,0,0,1-3.495-2.65L32.989,58.109ZM33.229,52a5.727,5.727,0,0,1,3.114.858,4.584,4.584,0,0,1,1.955,2.72l4.487,15.993,10.046-37.1A5.256,5.256,0,0,1,57.886,30.6h.734a5.268,5.268,0,0,1,5.028,3.86L70.4,59.08l4.1-15.357c.713-2.413,2.959-3.912,5.864-3.912h9.274A36.5,36.5,0,0,0,22,52.007Z" transform="translate(888.49 424.5)" fill="#41976d"/></g><g transform="matrix(1, 0, 0, 1, -90.18, 1098.5)" filter="url(#t)"><path d="M104,116H12A12,12,0,0,1,0,104V12A12,12,0,0,1,12,0h92a12,12,0,0,1,12,12v92a12,12,0,0,1-12,12ZM21.513,58.109a36.487,36.487,0,1,0,70.9-12.258H79.975l-6,21.71a3.615,3.615,0,0,1-3.484,2.66h-.532a3.616,3.616,0,0,1-3.485-2.66L58.036,36.974,46.519,79.818A3.628,3.628,0,0,1,43.025,82.5h-.553a3.641,3.641,0,0,1-3.495-2.65L32.989,58.109ZM33.229,52a5.727,5.727,0,0,1,3.114.858,4.584,4.584,0,0,1,1.955,2.72l4.487,15.993,10.046-37.1A5.256,5.256,0,0,1,57.886,30.6h.734a5.268,5.268,0,0,1,5.028,3.86L70.4,59.08l4.1-15.357c.713-2.413,2.959-3.912,5.864-3.912h9.274A36.5,36.5,0,0,0,22,52.007Z" transform="translate(888.49 424.5)" fill="#fff"/></g></g><g transform="matrix(1, 0, 0, 1, -90.18, 1098.5)" filter="url(#w)"><ellipse cx="5.5" cy="6" rx="5.5" ry="6" transform="translate(869.49 404.5)" fill="#41976d"/></g><g transform="matrix(1, 0, 0, 1, -90.18, 1098.5)" filter="url(#y)"><circle cx="5.5" cy="5.5" r="5.5" transform="translate(869.49 547.5)" fill="#41976d"/></g><g transform="matrix(1, 0, 0, 1, -90.18, 1098.5)" filter="url(#aa)"><ellipse cx="5.5" cy="6" rx="5.5" ry="6" transform="translate(1011.49 404.5)" fill="#41976d"/></g><g transform="matrix(1, 0, 0, 1, -90.18, 1098.5)" filter="url(#ac)"><circle cx="5.5" cy="5.5" r="5.5" transform="translate(1011.49 547.5)" fill="#41976d"/></g></g></g></svg>