<svg xmlns="http://www.w3.org/2000/svg" xmlns:xlink="http://www.w3.org/1999/xlink" width="412.953" height="540.619" viewBox="0 0 412.953 540.619"><defs><filter id="a" x="162.616" y="427.619" width="113" height="113" filterUnits="userSpaceOnUse"><feOffset dy="6" input="SourceAlpha"/><feGaussianBlur stdDeviation="3" result="b"/><feFlood flood-color="#fff" flood-opacity="0.251"/><feComposite operator="in" in2="b"/><feComposite in="SourceGraphic"/></filter><filter id="c" x="187.355" y="452.357" width="63.523" height="63.523" filterUnits="userSpaceOnUse"><feOffset dy="6" input="SourceAlpha"/><feGaussianBlur stdDeviation="3" result="d"/><feFlood flood-color="#fff" flood-opacity="0.251"/><feComposite operator="in" in2="d"/><feComposite in="SourceGraphic"/></filter><filter id="e" x="187.355" y="452.357" width="63.523" height="63.523" filterUnits="userSpaceOnUse"><feOffset dy="6" input="SourceAlpha"/><feGaussianBlur stdDeviation="1.5" result="f"/><feFlood flood-opacity="0.251" result="g"/><feComposite operator="out" in="SourceGraphic" in2="f"/><feComposite operator="in" in="g"/><feComposite operator="in" in2="SourceGraphic"/></filter><filter id="h" x="162.616" y="427.619" width="113" height="113" filterUnits="userSpaceOnUse"><feOffset dy="6" input="SourceAlpha"/><feGaussianBlur stdDeviation="3" result="i"/><feFlood flood-color="#fff" flood-opacity="0.251"/><feComposite operator="in" in2="i"/><feComposite in="SourceGraphic"/></filter><filter id="j" x="187.355" y="452.357" width="63.523" height="63.523" filterUnits="userSpaceOnUse"><feOffset dy="6" input="SourceAlpha"/><feGaussianBlur stdDeviation="3" result="k"/><feFlood flood-color="#fff" flood-opacity="0.251"/><feComposite operator="in" in2="k"/><feComposite in="SourceGraphic"/></filter><filter id="l" x="187.355" y="452.357" width="63.523" height="63.523" filterUnits="userSpaceOnUse"><feOffset dy="6" input="SourceAlpha"/><feGaussianBlur stdDeviation="1.5" result="m"/><feFlood flood-opacity="0.251" result="n"/><feComposite operator="out" in="SourceGraphic" in2="m"/><feComposite operator="in" in="n"/><feComposite operator="in" in2="SourceGraphic"/></filter><filter id="o" x="263.616" y="215.619" width="51" height="51" filterUnits="userSpaceOnUse"><feOffset dy="3" input="SourceAlpha"/><feGaussianBlur stdDeviation="1" result="p"/><feFlood flood-color="#fff" flood-opacity="0.161"/><feComposite operator="in" in2="p"/><feComposite in="SourceGraphic"/></filter><filter id="q" x="275.616" y="227.619" width="27" height="27" filterUnits="userSpaceOnUse"><feOffset dy="3" input="SourceAlpha"/><feGaussianBlur stdDeviation="1" result="r"/><feFlood flood-color="#fff" flood-opacity="0.161"/><feComposite operator="in" in2="r"/><feComposite in="SourceGraphic"/></filter><filter id="s" x="275.616" y="227.619" width="27" height="27" filterUnits="userSpaceOnUse"><feOffset dy="3" input="SourceAlpha"/><feGaussianBlur stdDeviation="1" result="t"/><feFlood flood-opacity="0.251" result="u"/><feComposite operator="out" in="SourceGraphic" in2="t"/><feComposite operator="in" in="u"/><feComposite operator="in" in2="SourceGraphic"/></filter><filter id="v" x="193.616" y="215.619" width="51" height="51" filterUnits="userSpaceOnUse"><feOffset dy="3" input="SourceAlpha"/><feGaussianBlur stdDeviation="1" result="w"/><feFlood flood-color="#fff" flood-opacity="0.161"/><feComposite operator="in" in2="w"/><feComposite in="SourceGraphic"/></filter><filter id="x" x="205.616" y="227.619" width="27" height="27" filterUnits="userSpaceOnUse"><feOffset dy="3" input="SourceAlpha"/><feGaussianBlur stdDeviation="1" result="y"/><feFlood flood-color="#fff" flood-opacity="0.161"/><feComposite operator="in" in2="y"/><feComposite in="SourceGraphic"/></filter><filter id="z" x="205.616" y="227.619" width="27" height="27" filterUnits="userSpaceOnUse"><feOffset dy="3" input="SourceAlpha"/><feGaussianBlur stdDeviation="1" result="aa"/><feFlood flood-opacity="0.251" result="ab"/><feComposite operator="out" in="SourceGraphic" in2="aa"/><feComposite operator="in" in="ab"/><feComposite operator="in" in2="SourceGraphic"/></filter></defs><g transform="translate(1.616 -1629.381)"><g transform="translate(-989.131 317.869)"><g transform="matrix(1, 0, 0, 1, 987.51, 1311.51)" filter="url(#a)"><circle cx="47.5" cy="47.5" r="47.5" transform="translate(171.62 430.62)"/></g><g data-type="innerShadowGroup"><g transform="matrix(1, 0, 0, 1, 987.51, 1311.51)" filter="url(#c)"><circle cx="22.762" cy="22.762" r="22.762" transform="translate(196.35 455.36)" fill="#41976d"/></g><g transform="matrix(1, 0, 0, 1, 987.51, 1311.51)" filter="url(#e)"><circle cx="22.762" cy="22.762" r="22.762" transform="translate(196.35 455.36)" fill="#fff"/></g></g></g><g transform="translate(-989.131 317.869)"><g transform="matrix(1, 0, 0, 1, 987.51, 1311.51)" filter="url(#h)"><circle cx="47.5" cy="47.5" r="47.5" transform="translate(171.62 430.62)"/></g><g data-type="innerShadowGroup"><g transform="matrix(1, 0, 0, 1, 987.51, 1311.51)" filter="url(#j)"><circle cx="22.762" cy="22.762" r="22.762" transform="translate(196.35 455.36)" fill="#41976d"/></g><g transform="matrix(1, 0, 0, 1, 987.51, 1311.51)" filter="url(#l)"><circle cx="22.762" cy="22.762" r="22.762" transform="translate(196.35 455.36)" fill="#fff"/></g></g></g><path d="M-1552.5,2210V2074.46l43.822-43.822h90.9l55.119-55.119v-67.788l-135.545-135.545H-1658.35l-38.805-38.805h-74.461" transform="translate(1770 -100)" fill="none" stroke="#41976d" stroke-width="8"/><path d="M-1770.466,1799.35h260.145l116.557,116.557v60.4l-35.538,35.538h-84.165l-53.673,53.673V2130l15,15" transform="translate(1770 -100)" fill="none" stroke="#41976d" stroke-width="8"/><path d="M-1482.5,1967.5V1860l-45-45H-1650l-50,50h-70" transform="translate(1770 -100)" fill="none" stroke="#41976d" stroke-width="8"/><g transform="translate(-894 103)" style="isolation:isolate"><g transform="matrix(1, 0, 0, 1, 892.38, 1526.38)" filter="url(#o)"><circle cx="22.5" cy="22.5" r="22.5" transform="translate(266.62 215.62)" fill="#41976d"/></g><g data-type="innerShadowGroup"><g transform="matrix(1, 0, 0, 1, 892.38, 1526.38)" filter="url(#q)"><circle cx="10.5" cy="10.5" r="10.5" transform="translate(278.62 227.62)" fill="#41976d"/></g><g transform="matrix(1, 0, 0, 1, 892.38, 1526.38)" filter="url(#s)"><circle cx="10.5" cy="10.5" r="10.5" transform="translate(278.62 227.62)" fill="#fff"/></g></g></g><path d="M-1552.5,1965v-30l47.5-47.5v-20.386l-25-25h-107.865L-1680.751,1885H-1770" transform="translate(1770 -100)" fill="none" stroke="#41976d" stroke-width="4"/><g transform="translate(-964 103)"><g transform="matrix(1, 0, 0, 1, 962.38, 1526.38)" filter="url(#v)"><circle cx="22.5" cy="22.5" r="22.5" transform="translate(196.62 215.62)" fill="#41976d"/></g><g data-type="innerShadowGroup"><g transform="matrix(1, 0, 0, 1, 962.38, 1526.38)" filter="url(#x)"><circle cx="10.5" cy="10.5" r="10.5" transform="translate(208.62 227.62)" fill="#41976d"/></g><g transform="matrix(1, 0, 0, 1, 962.38, 1526.38)" filter="url(#z)"><circle cx="10.5" cy="10.5" r="10.5" transform="translate(208.62 227.62)" fill="#fff"/></g></g></g><path d="M-1770,1875h80l45-45h115l35,35v60l-25,25v50l-65,65v45l17.746,17.746" transform="translate(1770 -100)" fill="none" stroke="#41976d" stroke-width="4"/><path d="M-1370,1985v25l-35,35h-100l-35,35v70l-11.746,11.746-.43.43" transform="translate(1770 -100)" fill="none" stroke="#41976d" stroke-width="6"/></g></svg>