<svg xmlns="http://www.w3.org/2000/svg" xmlns:xlink="http://www.w3.org/1999/xlink" width="720" height="465" viewBox="0 0 720 465"><defs><filter id="a" x="0" y="0" width="720" height="465" filterUnits="userSpaceOnUse"><feOffset dy="3" input="SourceAlpha"/><feGaussianBlur stdDeviation="5" result="b"/><feFlood flood-color="#fff" flood-opacity="0.502" result="c"/><feComposite operator="out" in="SourceGraphic" in2="b"/><feComposite operator="in" in="c"/><feComposite operator="in" in2="SourceGraphic"/></filter><filter id="d"><feOffset dy="3" input="SourceAlpha"/><feGaussianBlur stdDeviation="3" result="e"/><feFlood flood-opacity="0.502" result="f"/><feComposite operator="out" in="SourceGraphic" in2="e"/><feComposite operator="in" in="f"/><feComposite operator="in" in2="SourceGraphic"/></filter><filter id="g" x="67" y="160" width="41" height="41" filterUnits="userSpaceOnUse"><feOffset dy="3" input="SourceAlpha"/><feGaussianBlur stdDeviation="1" result="h"/><feFlood flood-color="#fff" flood-opacity="0.161"/><feComposite operator="in" in2="h"/><feComposite in="SourceGraphic"/></filter><filter id="i" x="67" y="160" width="41" height="41" filterUnits="userSpaceOnUse"><feOffset dy="3" input="SourceAlpha"/><feGaussianBlur stdDeviation="1" result="j"/><feFlood flood-opacity="0.502" result="k"/><feComposite operator="out" in="SourceGraphic" in2="j"/><feComposite operator="in" in="k"/><feComposite operator="in" in2="SourceGraphic"/></filter><filter id="l" x="77" y="170" width="21" height="21" filterUnits="userSpaceOnUse"><feOffset dy="3" input="SourceAlpha"/><feGaussianBlur stdDeviation="1" result="m"/><feFlood flood-color="#fff" flood-opacity="0.161"/><feComposite operator="in" in2="m"/><feComposite in="SourceGraphic"/></filter><filter id="n" x="77" y="170" width="21" height="21" filterUnits="userSpaceOnUse"><feOffset dy="3" input="SourceAlpha"/><feGaussianBlur stdDeviation="1" result="o"/><feFlood flood-opacity="0.502" result="p"/><feComposite operator="out" in="SourceGraphic" in2="o"/><feComposite operator="in" in="p"/><feComposite operator="in" in2="SourceGraphic"/></filter><filter id="q" x="67" y="230" width="41" height="41" filterUnits="userSpaceOnUse"><feOffset dy="3" input="SourceAlpha"/><feGaussianBlur stdDeviation="1" result="r"/><feFlood flood-color="#fff" flood-opacity="0.161"/><feComposite operator="in" in2="r"/><feComposite in="SourceGraphic"/></filter><filter id="s" x="67" y="230" width="41" height="41" filterUnits="userSpaceOnUse"><feOffset dy="3" input="SourceAlpha"/><feGaussianBlur stdDeviation="1" result="t"/><feFlood flood-opacity="0.502" result="u"/><feComposite operator="out" in="SourceGraphic" in2="t"/><feComposite operator="in" in="u"/><feComposite operator="in" in2="SourceGraphic"/></filter><filter id="v" x="77" y="240" width="21" height="21" filterUnits="userSpaceOnUse"><feOffset dy="3" input="SourceAlpha"/><feGaussianBlur stdDeviation="1" result="w"/><feFlood flood-color="#fff" flood-opacity="0.161"/><feComposite operator="in" in2="w"/><feComposite in="SourceGraphic"/></filter><filter id="x" x="77" y="240" width="21" height="21" filterUnits="userSpaceOnUse"><feOffset dy="3" input="SourceAlpha"/><feGaussianBlur stdDeviation="1" result="y"/><feFlood flood-opacity="0.502" result="z"/><feComposite operator="out" in="SourceGraphic" in2="y"/><feComposite operator="in" in="z"/><feComposite operator="in" in2="SourceGraphic"/></filter><filter id="aa" x="67" y="300" width="41" height="41" filterUnits="userSpaceOnUse"><feOffset dy="3" input="SourceAlpha"/><feGaussianBlur stdDeviation="1" result="ab"/><feFlood flood-color="#fff" flood-opacity="0.161"/><feComposite operator="in" in2="ab"/><feComposite in="SourceGraphic"/></filter><filter id="ac" x="67" y="300" width="41" height="41" filterUnits="userSpaceOnUse"><feOffset dy="3" input="SourceAlpha"/><feGaussianBlur stdDeviation="1" result="ad"/><feFlood flood-opacity="0.502" result="ae"/><feComposite operator="out" in="SourceGraphic" in2="ad"/><feComposite operator="in" in="ae"/><feComposite operator="in" in2="SourceGraphic"/></filter><filter id="af" x="77" y="310" width="21" height="21" filterUnits="userSpaceOnUse"><feOffset dy="3" input="SourceAlpha"/><feGaussianBlur stdDeviation="1" result="ag"/><feFlood flood-color="#fff" flood-opacity="0.161"/><feComposite operator="in" in2="ag"/><feComposite in="SourceGraphic"/></filter><filter id="ah" x="77" y="310" width="21" height="21" filterUnits="userSpaceOnUse"><feOffset dy="3" input="SourceAlpha"/><feGaussianBlur stdDeviation="1" result="ai"/><feFlood flood-opacity="0.502" result="aj"/><feComposite operator="out" in="SourceGraphic" in2="ai"/><feComposite operator="in" in="aj"/><feComposite operator="in" in2="SourceGraphic"/></filter><filter id="ak" x="346.5" y="38.5" width="323" height="64" filterUnits="userSpaceOnUse"><feOffset dy="3" input="SourceAlpha"/><feGaussianBlur stdDeviation="1.5" result="al"/><feFlood flood-color="#fff" flood-opacity="0.251"/><feComposite operator="in" in2="al"/><feComposite in="SourceGraphic"/></filter><filter id="am" x="346.5" y="38.5" width="323" height="64" filterUnits="userSpaceOnUse"><feOffset dy="3" input="SourceAlpha"/><feGaussianBlur stdDeviation="3" result="an"/><feFlood flood-opacity="0.502" result="ao"/><feComposite operator="out" in="SourceGraphic" in2="an"/><feComposite operator="in" in="ao"/><feComposite operator="in" in2="SourceGraphic"/></filter><filter id="ap" x="642" y="30" width="46" height="46" filterUnits="userSpaceOnUse"><feOffset dy="3" input="SourceAlpha"/><feGaussianBlur stdDeviation="1" result="aq"/><feFlood flood-color="#fff" flood-opacity="0.161"/><feComposite operator="in" in2="aq"/><feComposite in="SourceGraphic"/></filter><filter id="ar" x="642" y="30" width="46" height="46" filterUnits="userSpaceOnUse"><feOffset dy="3" input="SourceAlpha"/><feGaussianBlur stdDeviation="1" result="as"/><feFlood flood-opacity="0.502" result="at"/><feComposite operator="out" in="SourceGraphic" in2="as"/><feComposite operator="in" in="at"/><feComposite operator="in" in2="SourceGraphic"/></filter><filter id="au" x="652" y="40" width="26" height="26" filterUnits="userSpaceOnUse"><feOffset dy="3" input="SourceAlpha"/><feGaussianBlur stdDeviation="1" result="av"/><feFlood flood-color="#fff" flood-opacity="0.161"/><feComposite operator="in" in2="av"/><feComposite in="SourceGraphic"/></filter><filter id="aw" x="652" y="40" width="26" height="26" filterUnits="userSpaceOnUse"><feOffset dy="3" input="SourceAlpha"/><feGaussianBlur stdDeviation="1" result="ax"/><feFlood flood-opacity="0.502" result="ay"/><feComposite operator="out" in="SourceGraphic" in2="ax"/><feComposite operator="in" in="ay"/><feComposite operator="in" in2="SourceGraphic"/></filter></defs><g transform="translate(-960 -5655)"><g data-type="innerShadowGroup"><rect width="720" height="465" rx="25" transform="translate(960 5655)" fill="#41976d"/><g transform="matrix(1, 0, 0, 1, 960, 5655)" filter="url(#a)"><rect width="720" height="465" rx="25" fill="#fff"/></g></g><g data-type="innerShadowGroup"><rect width="15" height="150" transform="translate(1040 5830)" fill="#41976d"/><g transform="matrix(1, 0, 0, 1, 960, 5655)" filter="url(#d)"><rect width="15" height="150" transform="translate(80 175)" fill="#fff"/></g></g><g transform="translate(1030 5815)"><g data-type="innerShadowGroup"><g transform="matrix(1, 0, 0, 1, -70, -160)" filter="url(#g)"><circle cx="17.5" cy="17.5" r="17.5" transform="translate(70 160)" fill="#41976d"/></g><g transform="matrix(1, 0, 0, 1, -70, -160)" filter="url(#i)"><circle cx="17.5" cy="17.5" r="17.5" transform="translate(70 160)" fill="#fff"/></g></g><g data-type="innerShadowGroup"><g transform="matrix(1, 0, 0, 1, -70, -160)" filter="url(#l)"><circle cx="7.5" cy="7.5" r="7.5" transform="translate(80 170)" fill="#41976d"/></g><g transform="matrix(1, 0, 0, 1, -70, -160)" filter="url(#n)"><circle cx="7.5" cy="7.5" r="7.5" transform="translate(80 170)" fill="#fff"/></g></g></g><g transform="translate(1030 5885)"><g data-type="innerShadowGroup"><g transform="matrix(1, 0, 0, 1, -70, -230)" filter="url(#q)"><circle cx="17.5" cy="17.5" r="17.5" transform="translate(70 230)" fill="#41976d"/></g><g transform="matrix(1, 0, 0, 1, -70, -230)" filter="url(#s)"><circle cx="17.5" cy="17.5" r="17.5" transform="translate(70 230)" fill="#fff"/></g></g><g data-type="innerShadowGroup"><g transform="matrix(1, 0, 0, 1, -70, -230)" filter="url(#v)"><circle cx="7.5" cy="7.5" r="7.5" transform="translate(80 240)" fill="#41976d"/></g><g transform="matrix(1, 0, 0, 1, -70, -230)" filter="url(#x)"><circle cx="7.5" cy="7.5" r="7.5" transform="translate(80 240)" fill="#fff"/></g></g></g><g transform="translate(1030 5955)"><g data-type="innerShadowGroup"><g transform="matrix(1, 0, 0, 1, -70, -300)" filter="url(#aa)"><circle cx="17.5" cy="17.5" r="17.5" transform="translate(70 300)" fill="#41976d"/></g><g transform="matrix(1, 0, 0, 1, -70, -300)" filter="url(#ac)"><circle cx="17.5" cy="17.5" r="17.5" transform="translate(70 300)" fill="#fff"/></g></g><g data-type="innerShadowGroup"><g transform="matrix(1, 0, 0, 1, -70, -300)" filter="url(#af)"><circle cx="7.5" cy="7.5" r="7.5" transform="translate(80 310)" fill="#41976d"/></g><g transform="matrix(1, 0, 0, 1, -70, -300)" filter="url(#ah)"><circle cx="7.5" cy="7.5" r="7.5" transform="translate(80 310)" fill="#fff"/></g></g></g><g data-type="innerShadowGroup"><g transform="matrix(1, 0, 0, 1, 960, 5655)" filter="url(#ak)"><path d="M1985,55H1781a10,10,0,0,1,0-20h239l35-35h30V20h-25l-35,35Z" transform="translate(-1420 40)" fill="#41976d"/></g><g transform="matrix(1, 0, 0, 1, 960, 5655)" filter="url(#am)"><path d="M1985,55H1781a10,10,0,0,1,0-20h239l35-35h30V20h-25l-35,35Z" transform="translate(-1420 40)" fill="#fff"/></g></g><g transform="translate(1605 5685)"><g data-type="innerShadowGroup"><g transform="matrix(1, 0, 0, 1, -645, -30)" filter="url(#ap)"><circle cx="20" cy="20" r="20" transform="translate(645 30)" fill="#41976d"/></g><g transform="matrix(1, 0, 0, 1, -645, -30)" filter="url(#ar)"><circle cx="20" cy="20" r="20" transform="translate(645 30)" fill="#fff"/></g></g><g data-type="innerShadowGroup"><g transform="matrix(1, 0, 0, 1, -645, -30)" filter="url(#au)"><circle cx="10" cy="10" r="10" transform="translate(655 40)" fill="#41976d"/></g><g transform="matrix(1, 0, 0, 1, -645, -30)" filter="url(#aw)"><circle cx="10" cy="10" r="10" transform="translate(655 40)" fill="#fff"/></g></g></g></g></svg>