<svg xmlns="http://www.w3.org/2000/svg" xmlns:xlink="http://www.w3.org/1999/xlink" width="341.5" height="72.5" viewBox="0 0 341.5 72.5">
  <defs>
    <filter id="Union_2" x="0" y="8.5" width="323" height="64" filterUnits="userSpaceOnUse">
      <feOffset dy="3" input="SourceAlpha"/>
      <feGaussianBlur stdDeviation="1.5" result="blur"/>
      <feFlood flood-color="#fff" flood-opacity="0.251"/>
      <feComposite operator="in" in2="blur"/>
      <feComposite in="SourceGraphic"/>
    </filter>
    <filter id="Union_2-2" x="0" y="8.5" width="323" height="64" filterUnits="userSpaceOnUse">
      <feOffset dy="3" input="SourceAlpha"/>
      <feGaussianBlur stdDeviation="3" result="blur-2"/>
      <feFlood flood-opacity="0.502" result="color"/>
      <feComposite operator="out" in="SourceGraphic" in2="blur-2"/>
      <feComposite operator="in" in="color"/>
      <feComposite operator="in" in2="SourceGraphic"/>
    </filter>
    <filter id="Ellipse_11" x="295.5" y="0" width="46" height="46" filterUnits="userSpaceOnUse">
      <feOffset dy="3" input="SourceAlpha"/>
      <feGaussianBlur stdDeviation="1" result="blur-3"/>
      <feFlood flood-color="#fff" flood-opacity="0.161"/>
      <feComposite operator="in" in2="blur-3"/>
      <feComposite in="SourceGraphic"/>
    </filter>
    <filter id="Ellipse_11-2" x="295.5" y="0" width="46" height="46" filterUnits="userSpaceOnUse">
      <feOffset dy="3" input="SourceAlpha"/>
      <feGaussianBlur stdDeviation="1" result="blur-4"/>
      <feFlood flood-opacity="0.502" result="color-2"/>
      <feComposite operator="out" in="SourceGraphic" in2="blur-4"/>
      <feComposite operator="in" in="color-2"/>
      <feComposite operator="in" in2="SourceGraphic"/>
    </filter>
    <filter id="Ellipse_13" x="305.5" y="10" width="26" height="26" filterUnits="userSpaceOnUse">
      <feOffset dy="3" input="SourceAlpha"/>
      <feGaussianBlur stdDeviation="1" result="blur-5"/>
      <feFlood flood-color="#fff" flood-opacity="0.161"/>
      <feComposite operator="in" in2="blur-5"/>
      <feComposite in="SourceGraphic"/>
    </filter>
    <filter id="Ellipse_13-2" x="305.5" y="10" width="26" height="26" filterUnits="userSpaceOnUse">
      <feOffset dy="3" input="SourceAlpha"/>
      <feGaussianBlur stdDeviation="1" result="blur-6"/>
      <feFlood flood-opacity="0.502" result="color-3"/>
      <feComposite operator="out" in="SourceGraphic" in2="blur-6"/>
      <feComposite operator="in" in="color-3"/>
      <feComposite operator="in" in2="SourceGraphic"/>
    </filter>
  </defs>
  <g id="Group_156" data-name="Group 156" transform="translate(-1306.5 -5685)">
    <g data-type="innerShadowGroup">
      <g transform="matrix(1, 0, 0, 1, 1306.5, 5685)" filter="url(#Union_2)">
        <path id="Union_2-3" data-name="Union 2" d="M1985,55H1781a10,10,0,0,1,0-20h239l35-35h30V20h-25l-35,35Z" transform="translate(-1766.5 10)" fill="#41976d"/>
      </g>
      <g transform="matrix(1, 0, 0, 1, 1306.5, 5685)" filter="url(#Union_2-2)">
        <path id="Union_2-4" data-name="Union 2" d="M1985,55H1781a10,10,0,0,1,0-20h239l35-35h30V20h-25l-35,35Z" transform="translate(-1766.5 10)" fill="#fff"/>
      </g>
    </g>
    <g id="Group_126" data-name="Group 126" transform="translate(1605 5685)">
      <g data-type="innerShadowGroup">
        <g transform="matrix(1, 0, 0, 1, -298.5, 0)" filter="url(#Ellipse_11)">
          <circle id="Ellipse_11-3" data-name="Ellipse 11" cx="20" cy="20" r="20" transform="translate(298.5 0)" fill="#41976d"/>
        </g>
        <g transform="matrix(1, 0, 0, 1, -298.5, 0)" filter="url(#Ellipse_11-2)">
          <circle id="Ellipse_11-4" data-name="Ellipse 11" cx="20" cy="20" r="20" transform="translate(298.5 0)" fill="#fff"/>
        </g>
      </g>
      <g data-type="innerShadowGroup">
        <g transform="matrix(1, 0, 0, 1, -298.5, 0)" filter="url(#Ellipse_13)">
          <circle id="Ellipse_13-3" data-name="Ellipse 13" cx="10" cy="10" r="10" transform="translate(308.5 10)" fill="#41976d"/>
        </g>
        <g transform="matrix(1, 0, 0, 1, -298.5, 0)" filter="url(#Ellipse_13-2)">
          <circle id="Ellipse_13-4" data-name="Ellipse 13" cx="10" cy="10" r="10" transform="translate(308.5 10)" fill="#fff"/>
        </g>
      </g>
    </g>
  </g>
</svg>
