<svg xmlns="http://www.w3.org/2000/svg" width="27.5" height="35" viewBox="0 0 27.5 35">
  <g id="location" transform="translate(-5.625 -2.25)">
    <path id="Path_298" data-name="Path 298" d="M18.625,21.5a6.25,6.25,0,1,1,6.25-6.25,6.25,6.25,0,0,1-6.25,6.25Zm0-10a3.75,3.75,0,1,0,3.75,3.75,3.75,3.75,0,0,0-3.75-3.75Z" transform="translate(0.75 0.75)" fill="#fff"/>
    <path id="Path_299" data-name="Path 299" d="M19.375,37.25,8.829,24.813q-.219-.28-.434-.563A13.611,13.611,0,0,1,5.625,16a13.75,13.75,0,1,1,27.5,0,13.606,13.606,0,0,1-2.769,8.247v0s-.374.492-.431.559ZM10.389,22.743s.292.384.359.468l8.627,10.174L28.013,23.2c.054-.069.348-.457.349-.458A11.127,11.127,0,0,0,30.625,16a11.25,11.25,0,1,0-22.5,0,11.131,11.131,0,0,0,2.267,6.743Z" transform="translate(0 0)" fill="#fff"/>
  </g>
</svg>
