<svg xmlns="http://www.w3.org/2000/svg" width="176.081" height="40.19" viewBox="0 0 176.081 40.19"><g transform="translate(46.934 6.705)"><path d="M495.284,569.194V545.667h3.361v20.166H517.69v3.361Z" transform="translate(-495.284 -545.667)" fill="#fff"/><path d="M552.238,584.6v-3.392h10.674a.927.927,0,0,0,1.151-1.152v-2.178H553.109a4.039,4.039,0,0,1-4.046-4.046V561.109h3.362v12.259a.926.926,0,0,0,1.151,1.151h9.336a.927.927,0,0,0,1.151-1.151V561.109h3.361v19.448a4.037,4.037,0,0,1-4.045,4.046Z" transform="translate(-525.536 -554.354)" fill="#fff"/><path d="M598.856,577.8V565.013a4.037,4.037,0,0,1,4.046-4.046h10.083v3.361h-9.616a.927.927,0,0,0-1.152,1.151V577.8Z" transform="translate(-553.546 -554.273)" fill="#fff"/><path d="M639.181,569.194a4.038,4.038,0,0,1-4.046-4.023v-19.5H638.5v6.693H645.9v3.361H638.5v8.96a.927.927,0,0,0,1.151,1.151H645.9v3.361Z" transform="translate(-573.954 -545.667)" fill="#fff"/><path d="M664.371,577.8V565.013a4.038,4.038,0,0,1,4.046-4.046H678.5v3.361h-9.616a.927.927,0,0,0-1.152,1.151V577.8Z" transform="translate(-590.4 -554.273)" fill="#fff"/><path d="M704.98,577.8a4.038,4.038,0,0,1-4.046-4.046v-8.742a4.038,4.038,0,0,1,4.046-4.046h10.27a4.037,4.037,0,0,1,4.046,4.046v8.742a4.038,4.038,0,0,1-4.046,4.046Zm.467-3.361h9.336a1.258,1.258,0,0,0,.9-.234,1.39,1.39,0,0,0,.217-.918v-7.809a1.39,1.39,0,0,0-.217-.918,1.257,1.257,0,0,0-.9-.234h-9.336a.927.927,0,0,0-1.151,1.151v7.809a.927.927,0,0,0,1.151,1.151Z" transform="translate(-610.967 -554.273)" fill="#fff"/><path d="M748.523,577.8V560.967h14.315a4.037,4.037,0,0,1,4.046,4.046V577.8h-3.361V565.479a.927.927,0,0,0-1.152-1.151h-9.336a.927.927,0,0,0-1.151,1.151V577.8Z" transform="translate(-637.737 -554.273)" fill="#fff"/></g><path d="M394.674,547.1l-6.184.006a20.106,20.106,0,0,1,37.26-6.719H420.64a3.156,3.156,0,0,0-3.23,2.155l-2.259,8.46-3.719-13.563a2.891,2.891,0,0,0-2.77-2.127h-.379a2.893,2.893,0,0,0-2.81,2.132l-5.534,20.437-2.472-8.811A2.723,2.723,0,0,0,394.674,547.1Z" transform="translate(-388.22 -530.31)" fill="#fff" fill-rule="evenodd"/><path d="M428.075,561.356a20.1,20.1,0,0,1-40.2.063h6.322l3.3,11.973a2,2,0,0,0,1.925,1.459h.3a1.993,1.993,0,0,0,1.925-1.477l6.345-23.594,4.649,16.844a1.986,1.986,0,0,0,1.92,1.465h.293a1.986,1.986,0,0,0,1.919-1.465l3.3-11.955h6.851A19.975,19.975,0,0,1,428.075,561.356Z" transform="translate(-387.872 -541.262)" fill="#fff" fill-rule="evenodd"/></svg>