<svg xmlns="http://www.w3.org/2000/svg" xmlns:xlink="http://www.w3.org/1999/xlink" width="1938" height="588.535" viewBox="0 0 1938 588.535">
  <defs>
    <filter id="Ellipse_11" x="170" y="475.535" width="113" height="113" filterUnits="userSpaceOnUse">
      <feOffset dy="6" input="SourceAlpha"/>
      <feGaussianBlur stdDeviation="3" result="blur"/>
      <feFlood flood-color="#fff" flood-opacity="0.251"/>
      <feComposite operator="in" in2="blur"/>
      <feComposite in="SourceGraphic"/>
    </filter>
    <filter id="Ellipse_13" x="194.738" y="500.273" width="63.523" height="63.523" filterUnits="userSpaceOnUse">
      <feOffset dy="6" input="SourceAlpha"/>
      <feGaussianBlur stdDeviation="3" result="blur-2"/>
      <feFlood flood-color="#fff" flood-opacity="0.251"/>
      <feComposite operator="in" in2="blur-2"/>
      <feComposite in="SourceGraphic"/>
    </filter>
    <filter id="Ellipse_13-2" x="194.738" y="500.273" width="63.523" height="63.523" filterUnits="userSpaceOnUse">
      <feOffset dy="6" input="SourceAlpha"/>
      <feGaussianBlur stdDeviation="1.5" result="blur-3"/>
      <feFlood flood-opacity="0.251" result="color"/>
      <feComposite operator="out" in="SourceGraphic" in2="blur-3"/>
      <feComposite operator="in" in="color"/>
      <feComposite operator="in" in2="SourceGraphic"/>
    </filter>
    <filter id="Ellipse_11-2" x="170" y="475.535" width="113" height="113" filterUnits="userSpaceOnUse">
      <feOffset dy="6" input="SourceAlpha"/>
      <feGaussianBlur stdDeviation="3" result="blur-4"/>
      <feFlood flood-color="#fff" flood-opacity="0.251"/>
      <feComposite operator="in" in2="blur-4"/>
      <feComposite in="SourceGraphic"/>
    </filter>
    <filter id="Ellipse_13-3" x="194.738" y="500.273" width="63.523" height="63.523" filterUnits="userSpaceOnUse">
      <feOffset dy="6" input="SourceAlpha"/>
      <feGaussianBlur stdDeviation="3" result="blur-5"/>
      <feFlood flood-color="#fff" flood-opacity="0.251"/>
      <feComposite operator="in" in2="blur-5"/>
      <feComposite in="SourceGraphic"/>
    </filter>
    <filter id="Ellipse_13-4" x="194.738" y="500.273" width="63.523" height="63.523" filterUnits="userSpaceOnUse">
      <feOffset dy="6" input="SourceAlpha"/>
      <feGaussianBlur stdDeviation="1.5" result="blur-6"/>
      <feFlood flood-opacity="0.251" result="color-2"/>
      <feComposite operator="out" in="SourceGraphic" in2="blur-6"/>
      <feComposite operator="in" in="color-2"/>
      <feComposite operator="in" in2="SourceGraphic"/>
    </filter>
    <filter id="Ellipse_11-3" x="271" y="263.535" width="51" height="51" filterUnits="userSpaceOnUse">
      <feOffset dy="3" input="SourceAlpha"/>
      <feGaussianBlur stdDeviation="1" result="blur-7"/>
      <feFlood flood-color="#fff" flood-opacity="0.161"/>
      <feComposite operator="in" in2="blur-7"/>
      <feComposite in="SourceGraphic"/>
    </filter>
    <filter id="Ellipse_13-5" x="283" y="275.535" width="27" height="27" filterUnits="userSpaceOnUse">
      <feOffset dy="3" input="SourceAlpha"/>
      <feGaussianBlur stdDeviation="1" result="blur-8"/>
      <feFlood flood-color="#fff" flood-opacity="0.161"/>
      <feComposite operator="in" in2="blur-8"/>
      <feComposite in="SourceGraphic"/>
    </filter>
    <filter id="Ellipse_13-6" x="283" y="275.535" width="27" height="27" filterUnits="userSpaceOnUse">
      <feOffset dy="3" input="SourceAlpha"/>
      <feGaussianBlur stdDeviation="1" result="blur-9"/>
      <feFlood flood-opacity="0.251" result="color-3"/>
      <feComposite operator="out" in="SourceGraphic" in2="blur-9"/>
      <feComposite operator="in" in="color-3"/>
      <feComposite operator="in" in2="SourceGraphic"/>
    </filter>
    <filter id="Ellipse_11-4" x="201" y="263.535" width="51" height="51" filterUnits="userSpaceOnUse">
      <feOffset dy="3" input="SourceAlpha"/>
      <feGaussianBlur stdDeviation="1" result="blur-10"/>
      <feFlood flood-color="#fff" flood-opacity="0.161"/>
      <feComposite operator="in" in2="blur-10"/>
      <feComposite in="SourceGraphic"/>
    </filter>
    <filter id="Ellipse_13-7" x="213" y="275.535" width="27" height="27" filterUnits="userSpaceOnUse">
      <feOffset dy="3" input="SourceAlpha"/>
      <feGaussianBlur stdDeviation="1" result="blur-11"/>
      <feFlood flood-color="#fff" flood-opacity="0.161"/>
      <feComposite operator="in" in2="blur-11"/>
      <feComposite in="SourceGraphic"/>
    </filter>
    <filter id="Ellipse_13-8" x="213" y="275.535" width="27" height="27" filterUnits="userSpaceOnUse">
      <feOffset dy="3" input="SourceAlpha"/>
      <feGaussianBlur stdDeviation="1" result="blur-12"/>
      <feFlood flood-opacity="0.251" result="color-4"/>
      <feComposite operator="out" in="SourceGraphic" in2="blur-12"/>
      <feComposite operator="in" in="color-4"/>
      <feComposite operator="in" in2="SourceGraphic"/>
    </filter>
    <filter id="SEPARADOR_1" x="0" y="0" width="1938" height="388.154" filterUnits="userSpaceOnUse">
      <feOffset dy="3" input="SourceAlpha"/>
      <feGaussianBlur stdDeviation="3" result="blur-13"/>
      <feFlood flood-color="#fff" flood-opacity="0.161"/>
      <feComposite operator="in" in2="blur-13"/>
      <feComposite in="SourceGraphic"/>
    </filter>
    <filter id="SEPARADOR_1-2" x="0" y="0" width="1938" height="388.154" filterUnits="userSpaceOnUse">
      <feOffset dy="5" input="SourceAlpha"/>
      <feGaussianBlur stdDeviation="3" result="blur-14"/>
      <feFlood flood-opacity="0.251" result="color-5"/>
      <feComposite operator="out" in="SourceGraphic" in2="blur-14"/>
      <feComposite operator="in" in="color-5"/>
      <feComposite operator="in" in2="SourceGraphic"/>
    </filter>
  </defs>
  <g id="Group_184" data-name="Group 184" transform="translate(9 -1679)">
    <g id="CIRCUITS_1" data-name="CIRCUITS 1" transform="translate(0 97.535)">
      <g id="Group_81" data-name="Group 81" transform="translate(-989.131 317.869)">
        <g transform="matrix(1, 0, 0, 1, 980.13, 1263.6)" filter="url(#Ellipse_11)">
          <circle id="Ellipse_11-5" data-name="Ellipse 11" cx="47.5" cy="47.5" r="47.5" transform="translate(179 478.53)"/>
        </g>
        <g data-type="innerShadowGroup">
          <g transform="matrix(1, 0, 0, 1, 980.13, 1263.6)" filter="url(#Ellipse_13)">
            <circle id="Ellipse_13-9" data-name="Ellipse 13" cx="22.762" cy="22.762" r="22.762" transform="translate(203.74 503.27)" fill="#41976d"/>
          </g>
          <g transform="matrix(1, 0, 0, 1, 980.13, 1263.6)" filter="url(#Ellipse_13-2)">
            <circle id="Ellipse_13-10" data-name="Ellipse 13" cx="22.762" cy="22.762" r="22.762" transform="translate(203.74 503.27)" fill="#fff"/>
          </g>
        </g>
      </g>
      <g id="Group_25" data-name="Group 25" transform="translate(-989.131 317.869)">
        <g transform="matrix(1, 0, 0, 1, 980.13, 1263.6)" filter="url(#Ellipse_11-2)">
          <circle id="Ellipse_11-6" data-name="Ellipse 11" cx="47.5" cy="47.5" r="47.5" transform="translate(179 478.53)"/>
        </g>
        <g data-type="innerShadowGroup">
          <g transform="matrix(1, 0, 0, 1, 980.13, 1263.6)" filter="url(#Ellipse_13-3)">
            <circle id="Ellipse_13-11" data-name="Ellipse 13" cx="22.762" cy="22.762" r="22.762" transform="translate(203.74 503.27)" fill="#41976d"/>
          </g>
          <g transform="matrix(1, 0, 0, 1, 980.13, 1263.6)" filter="url(#Ellipse_13-4)">
            <circle id="Ellipse_13-12" data-name="Ellipse 13" cx="22.762" cy="22.762" r="22.762" transform="translate(203.74 503.27)" fill="#fff"/>
          </g>
        </g>
      </g>
      <path id="Path_277" data-name="Path 277" d="M-1552.5,2210V2074.46l43.822-43.822h90.9l55.119-55.119v-67.788l-135.545-135.545H-1658.35l-38.805-38.805h-74.461" transform="translate(1770 -100)" fill="none" stroke="#41976d" stroke-width="8"/>
      <path id="Path_278" data-name="Path 278" d="M-1770.466,1799.35h260.145l116.557,116.557v60.4l-35.538,35.538h-84.165l-53.673,53.673V2130l15,15" transform="translate(1770 -100)" fill="none" stroke="#41976d" stroke-width="8"/>
      <path id="Path_279" data-name="Path 279" d="M-1482.5,1967.5V1860l-45-45H-1650l-50,50h-70" transform="translate(1770 -100)" fill="none" stroke="#41976d" stroke-width="8"/>
      <g id="Group_83" data-name="Group 83" transform="translate(-894 103)" style="isolation: isolate">
        <g transform="matrix(1, 0, 0, 1, 885, 1478.47)" filter="url(#Ellipse_11-3)">
          <circle id="Ellipse_11-7" data-name="Ellipse 11" cx="22.5" cy="22.5" r="22.5" transform="translate(274 263.53)" fill="#41976d"/>
        </g>
        <g data-type="innerShadowGroup">
          <g transform="matrix(1, 0, 0, 1, 885, 1478.47)" filter="url(#Ellipse_13-5)">
            <circle id="Ellipse_13-13" data-name="Ellipse 13" cx="10.5" cy="10.5" r="10.5" transform="translate(286 275.53)" fill="#41976d"/>
          </g>
          <g transform="matrix(1, 0, 0, 1, 885, 1478.47)" filter="url(#Ellipse_13-6)">
            <circle id="Ellipse_13-14" data-name="Ellipse 13" cx="10.5" cy="10.5" r="10.5" transform="translate(286 275.53)" fill="#fff"/>
          </g>
        </g>
      </g>
      <path id="Path_280" data-name="Path 280" d="M-1552.5,1965v-30l47.5-47.5v-20.386l-25-25h-107.865L-1680.751,1885H-1770" transform="translate(1770 -100)" fill="none" stroke="#41976d" stroke-width="4"/>
      <g id="Group_82" data-name="Group 82" transform="translate(-964 103)">
        <g transform="matrix(1, 0, 0, 1, 955, 1478.47)" filter="url(#Ellipse_11-4)">
          <circle id="Ellipse_11-8" data-name="Ellipse 11" cx="22.5" cy="22.5" r="22.5" transform="translate(204 263.53)" fill="#41976d"/>
        </g>
        <g data-type="innerShadowGroup">
          <g transform="matrix(1, 0, 0, 1, 955, 1478.47)" filter="url(#Ellipse_13-7)">
            <circle id="Ellipse_13-15" data-name="Ellipse 13" cx="10.5" cy="10.5" r="10.5" transform="translate(216 275.53)" fill="#41976d"/>
          </g>
          <g transform="matrix(1, 0, 0, 1, 955, 1478.47)" filter="url(#Ellipse_13-8)">
            <circle id="Ellipse_13-16" data-name="Ellipse 13" cx="10.5" cy="10.5" r="10.5" transform="translate(216 275.53)" fill="#fff"/>
          </g>
        </g>
      </g>
      <path id="Path_281" data-name="Path 281" d="M-1770,1875h80l45-45h115l35,35v60l-25,25v50l-65,65v45l17.746,17.746" transform="translate(1770 -100)" fill="none" stroke="#41976d" stroke-width="4"/>
      <path id="Path_282" data-name="Path 282" d="M-1370,1985v25l-35,35h-100l-35,35v70l-11.746,11.746-.43.43" transform="translate(1770 -100)" fill="none" stroke="#41976d" stroke-width="6"/>
    </g>
    <g data-type="innerShadowGroup">
      <g transform="matrix(1, 0, 0, 1, -9, 1679)" filter="url(#SEPARADOR_1)">
        <path id="SEPARADOR_1-3" data-name="SEPARADOR 1" d="M27.046,1631l283.495-2.535,193.727,193.728H917.732l151.9,151.9h507.836l232.575-232.575,137-1.3V1761l-126.475,1.3-239.24,236.315H1065.9L906.522,1839.9H498.7L310.54,1647.363,27.046,1649.9Z" transform="translate(-18.05 -1622.47)"/>
      </g>
      <g transform="matrix(1, 0, 0, 1, -9, 1679)" filter="url(#SEPARADOR_1-2)">
        <path id="SEPARADOR_1-4" data-name="SEPARADOR 1" d="M27.046,1631l283.495-2.535,193.727,193.728H917.732l151.9,151.9h507.836l232.575-232.575,137-1.3V1761l-126.475,1.3-239.24,236.315H1065.9L906.522,1839.9H498.7L310.54,1647.363,27.046,1649.9Z" transform="translate(-18.05 -1622.47)" fill="#fff"/>
      </g>
    </g>
  </g>
</svg>
