<svg xmlns="http://www.w3.org/2000/svg" width="35" height="34.225" viewBox="0 0 35 34.225">
  <path id="phone-handset-line" d="M28.076,35.878a4.781,4.781,0,0,1-1.013-.111A34.35,34.35,0,0,1,10.228,26.9,33.134,33.134,0,0,1,1.111,10.443,4.639,4.639,0,0,1,2.479,6.107l4.052-3.9a1.981,1.981,0,0,1,3.029.334l5.065,7.486a1.621,1.621,0,0,1-.111,1.925L11.97,14.991a19.186,19.186,0,0,0,4.224,5.966A19.51,19.51,0,0,0,22.343,25.1l3.15-2.5a1.661,1.661,0,0,1,1.884-.122l7.648,4.943a2.026,2.026,0,0,1,.415,3.15L31.49,34.48a4.8,4.8,0,0,1-3.414,1.4ZM7.929,3.666l-4.052,3.9A2.573,2.573,0,0,0,3.117,10a31.1,31.1,0,0,0,8.519,15.458,32.314,32.314,0,0,0,15.843,8.337,2.786,2.786,0,0,0,2.532-.75l3.951-3.91-7.385-4.771-3.383,2.694a1.013,1.013,0,0,1-.932.172,20.32,20.32,0,0,1-7.455-4.812,19.743,19.743,0,0,1-4.933-7.293,1.013,1.013,0,0,1,.243-.962l2.735-3.272Z" transform="translate(-1.013 -1.653)" fill="#fff"/>
</svg>
