<svg xmlns="http://www.w3.org/2000/svg" xmlns:xlink="http://www.w3.org/1999/xlink" width="960" height="646" viewBox="0 0 960 646">
  <defs>
    <clipPath id="clip-path">
      <rect id="Rectangle_154" data-name="Rectangle 154" width="960" height="646" transform="translate(0 1080)" fill="#fff" stroke="#707070" stroke-width="1"/>
    </clipPath>
    <filter id="Rectangle_59" x="604" y="301" width="347" height="346" filterUnits="userSpaceOnUse">
      <feOffset dy="3" input="SourceAlpha"/>
      <feGaussianBlur stdDeviation="3" result="blur"/>
      <feFlood flood-color="#fff" flood-opacity="0.349"/>
      <feComposite operator="in" in2="blur"/>
      <feComposite in="SourceGraphic"/>
    </filter>
    <filter id="Rectangle_2" x="604" y="301" width="347" height="346" filterUnits="userSpaceOnUse">
      <feOffset dy="3" input="SourceAlpha"/>
      <feGaussianBlur stdDeviation="3" result="blur-2"/>
      <feFlood flood-color="#fff" flood-opacity="0.349"/>
      <feComposite operator="in" in2="blur-2"/>
    </filter>
    <filter id="Rectangle_2-2" x="604" y="301" width="347" height="346" filterUnits="userSpaceOnUse">
      <feOffset dy="10" input="SourceAlpha"/>
      <feGaussianBlur stdDeviation="3" result="blur-3"/>
      <feFlood flood-opacity="0.502" result="color"/>
      <feComposite operator="out" in="SourceGraphic" in2="blur-3"/>
      <feComposite operator="in" in="color"/>
      <feComposite operator="in" in2="SourceGraphic"/>
    </filter>
    <filter id="Subtraction_1" x="641.913" y="341.605" width="270.023" height="270" filterUnits="userSpaceOnUse">
      <feOffset dy="5" input="SourceAlpha"/>
      <feGaussianBlur stdDeviation="3" result="blur-4"/>
      <feFlood flood-opacity="0.502"/>
      <feComposite operator="in" in2="blur-4"/>
      <feComposite in="SourceGraphic"/>
    </filter>
    <filter id="Subtraction_1-2" x="641.913" y="341.605" width="270.023" height="270" filterUnits="userSpaceOnUse">
      <feOffset dy="1" input="SourceAlpha"/>
      <feGaussianBlur stdDeviation="1" result="blur-5"/>
      <feFlood flood-color="#fff" flood-opacity="0.502" result="color-2"/>
      <feComposite operator="out" in="SourceGraphic" in2="blur-5"/>
      <feComposite operator="in" in="color-2"/>
      <feComposite operator="in" in2="SourceGraphic"/>
    </filter>
    <filter id="Rectangle_31" x="681" y="380" width="193" height="193" filterUnits="userSpaceOnUse">
      <feOffset dy="5" input="SourceAlpha"/>
      <feGaussianBlur stdDeviation="3" result="blur-6"/>
      <feFlood flood-opacity="0.251"/>
      <feComposite operator="in" in2="blur-6"/>
      <feComposite in="SourceGraphic"/>
    </filter>
    <filter id="Rectangle_31-2" x="681" y="380" width="193" height="193" filterUnits="userSpaceOnUse">
      <feOffset dy="3" input="SourceAlpha"/>
      <feGaussianBlur stdDeviation="3" result="blur-7"/>
      <feFlood flood-color="#fff" flood-opacity="0.502" result="color-3"/>
      <feComposite operator="out" in="SourceGraphic" in2="blur-7"/>
      <feComposite operator="in" in="color-3"/>
      <feComposite operator="in" in2="SourceGraphic"/>
    </filter>
    <filter id="Subtraction_2" x="711" y="411" width="131.999" height="131.999" filterUnits="userSpaceOnUse">
      <feOffset dy="5" input="SourceAlpha"/>
      <feGaussianBlur stdDeviation="3" result="blur-8"/>
      <feFlood flood-opacity="0.502"/>
      <feComposite operator="in" in2="blur-8"/>
      <feComposite in="SourceGraphic"/>
    </filter>
    <filter id="Subtraction_2-2" x="711" y="411" width="131.999" height="131.999" filterUnits="userSpaceOnUse">
      <feOffset dy="2" input="SourceAlpha"/>
      <feGaussianBlur stdDeviation="2.5" result="blur-9"/>
      <feFlood flood-color="#fff" flood-opacity="0.349" result="color-4"/>
      <feComposite operator="out" in="SourceGraphic" in2="blur-9"/>
      <feComposite operator="in" in="color-4"/>
      <feComposite operator="in" in2="SourceGraphic"/>
    </filter>
    <filter id="Ellipse_2" x="699" y="394" width="17" height="18" filterUnits="userSpaceOnUse">
      <feOffset dy="2" input="SourceAlpha"/>
      <feGaussianBlur stdDeviation="1" result="blur-10"/>
      <feFlood flood-opacity="0.251"/>
      <feComposite operator="in" in2="blur-10"/>
      <feComposite in="SourceGraphic"/>
    </filter>
    <filter id="Ellipse_5" x="699" y="535" width="17" height="17" filterUnits="userSpaceOnUse">
      <feOffset dy="2" input="SourceAlpha"/>
      <feGaussianBlur stdDeviation="1" result="blur-11"/>
      <feFlood flood-opacity="0.251"/>
      <feComposite operator="in" in2="blur-11"/>
      <feComposite in="SourceGraphic"/>
    </filter>
    <filter id="Ellipse_3" x="838" y="394" width="17" height="18" filterUnits="userSpaceOnUse">
      <feOffset dy="2" input="SourceAlpha"/>
      <feGaussianBlur stdDeviation="1" result="blur-12"/>
      <feFlood flood-opacity="0.251"/>
      <feComposite operator="in" in2="blur-12"/>
      <feComposite in="SourceGraphic"/>
    </filter>
    <filter id="Ellipse_4" x="838" y="535" width="17" height="17" filterUnits="userSpaceOnUse">
      <feOffset dy="2" input="SourceAlpha"/>
      <feGaussianBlur stdDeviation="1" result="blur-13"/>
      <feFlood flood-opacity="0.251"/>
      <feComposite operator="in" in2="blur-13"/>
      <feComposite in="SourceGraphic"/>
    </filter>
  </defs>
  <g id="Mask_Group_13" data-name="Mask Group 13" transform="translate(0 -1080)" clip-path="url(#clip-path)">
    <g id="Group_27" data-name="Group 27">
      <g transform="matrix(1, 0, 0, 1, 0, 1080)" filter="url(#Rectangle_59)">
        <rect id="Rectangle_59-2" data-name="Rectangle 59" width="329" height="328" rx="58" transform="translate(613 307)" fill="#262626"/>
      </g>
      <path id="Path_13" data-name="Path 13" d="M971.192,1419.867V1316.826l46.039-46.039v-24.243l40.819-40.819v-39.082l-35.222-35.222v-26.2L1048.045,1080" transform="translate(-117.855)" fill="none" stroke="#41976d" stroke-linejoin="round" stroke-width="3"/>
      <path id="Path_14" data-name="Path 14" d="M961.6,1419.867V1314.413l47.7-47.7v-22.788l42.222-42.222v-30.149l-35.569-35.569V1080" transform="translate(-117.697)" fill="none" stroke="#41976d" stroke-linejoin="round" stroke-width="5"/>
      <path id="Path_15" data-name="Path 15" d="M797.083,1421.882v-70.024L757.927,1312.7h-27.94l-28.767,28.767H639.959L528.247,1229.755H186.488l-27.421-27.421H-.126" transform="translate(-101.862 -2.014)" fill="none" stroke="#41976d" stroke-width="5"/>
      <path id="Path_16" data-name="Path 16" d="M807.806,1421.7v-77.822l13.824-13.824v-44.146l-11.554-11.554h-17.57l-16.592-16.592h-132.3l-66.284-66.284H-.819" transform="translate(-101.851 -1.836)" fill="none" stroke="#41976d" stroke-width="3"/>
      <path id="Path_17" data-name="Path 17" d="M816.9,1419.867v-70.529l19.924-19.924V1270l-25.99-25.99H657.816l-80.1-80.1H373.033l-83.9-83.9H-36.091" transform="translate(-101.27)" fill="none" stroke="#41976d" stroke-width="5"/>
      <path id="Path_18" data-name="Path 18" d="M826.195,1419.867v-63.474l25.35-25.35v-95.022l-45.9-45.9H714.155L604.037,1080H.58" transform="translate(-101.874)" fill="none" stroke="#41976d" stroke-width="2"/>
      <path id="Path_19" data-name="Path 19" d="M836.558,1419.867v-53.449l39.69-39.69V1168.106L788.142,1080H-52.495" transform="translate(-101)" fill="none" stroke="#41976d" stroke-width="5"/>
      <path id="Path_20" data-name="Path 20" d="M847.943,1419.868v-49.475l41.824-41.824V1190.415l47.5-47.5v-28.489l-34.405-34.405H73.09" transform="translate(-103.068 0)" fill="none" stroke="#41976d" stroke-width="3"/>
      <path id="Path_21" data-name="Path 21" d="M871.208,1424.583v-58.152" transform="translate(-116.209 -4.716)" fill="none" stroke="#41976d" stroke-width="5"/>
      <path id="Path_22" data-name="Path 22" d="M880.7,1424.157v-44.542l16.586-16.585v-22.511" transform="translate(-116.365 -4.289)" fill="none" stroke="#41976d" stroke-width="5"/>
      <path id="Path_23" data-name="Path 23" d="M891.8,1419.867v-46.006l15.17-15.17v-22.222l6.535-6.535V1191.127l45.671-45.671V1080" transform="translate(-116.548)" fill="none" stroke="#41976d" stroke-width="5"/>
      <path id="Path_24" data-name="Path 24" d="M951.732,1423.239V1309l23.385-23.385H992" transform="translate(-117.535 -3.385)" fill="none" stroke="#41976d" stroke-width="5"/>
      <path id="Path_25" data-name="Path 25" d="M941.209,1421.255V1302.808l39.278-39.278v-7.914l8.771-8.771h9.056l43.419-43.419v-39.161" transform="translate(-117.361 -1.387)" fill="none" stroke="#41976d" stroke-width="5"/>
      <path id="Path_26" data-name="Path 26" d="M931.055,1419.872V1297.547l25.176-25.176v-32.38l26.491-26.491h35.686l14.613-14.613v-30.749L999.3,1134.418v-36.565l16.723-16.723" transform="translate(-117.194 -0.019)" fill="none" stroke="#41976d" stroke-width="3"/>
      <path id="Path_27" data-name="Path 27" d="M921.443,1419.9v-59.756l5.952-5.952v-62.311l24.317-24.317v-33.028l28.706-28.706h27.954l9.163-9.163v-30.513l-27.22-27.22v-31.4l25.453-25.453" transform="translate(-117.036 -0.034)" fill="none" stroke="#41976d" stroke-width="5"/>
      <path id="Path_28" data-name="Path 28" d="M910.979,1424.805v-34.721l10.194-10.194" transform="translate(-116.864 -4.938)" fill="none" stroke="#41976d" stroke-width="3"/>
      <path id="Path_29" data-name="Path 29" d="M901.7,1424.631v-55.313" transform="translate(-116.711 -4.764)" fill="none" stroke="#41976d" stroke-width="3"/>
      <g id="Group_5" data-name="Group 5" transform="translate(613.166 1386.863)">
        <g data-type="innerShadowGroup">
          <g transform="matrix(1, 0, 0, 1, -613.17, -306.86)" filter="url(#Rectangle_2)" style="mix-blend-mode: multiply;isolation: isolate">
            <rect id="Rectangle_2-3" data-name="Rectangle 2" width="329" height="328" rx="58" transform="translate(613 307)" fill="#fff"/>
          </g>
          <g transform="matrix(1, 0, 0, 1, -613.17, -306.86)" filter="url(#Rectangle_2-2)" style="mix-blend-mode: multiply;isolation: isolate">
            <rect id="Rectangle_2-4" data-name="Rectangle 2" width="329" height="328" rx="58" transform="translate(613 307)" fill="#fff"/>
          </g>
        </g>
        <g data-type="innerShadowGroup">
          <g transform="matrix(1, 0, 0, 1, -613.17, -306.86)" filter="url(#Subtraction_1)">
            <path id="Subtraction_1-3" data-name="Subtraction 1" d="M200.279,249.541V234.069h-4.918v15.472a2.459,2.459,0,0,1-4.918,0V234.069h-4.919v15.472a2.459,2.459,0,0,1-4.918,0V234.069H175.69v15.472a2.459,2.459,0,0,1-4.918,0V234.069h-4.918v15.472a2.459,2.459,0,0,1-4.918,0V234.069H156.02v15.472a2.459,2.459,0,0,1-4.918,0V234.069h-4.918v15.472a2.459,2.459,0,0,1-4.918,0V234.069h-4.918v15.472a2.459,2.459,0,0,1-4.918,0V234.069h-4.919v15.472a2.459,2.459,0,1,1-4.918,0V234.069h-4.918v15.472a2.459,2.459,0,0,1-4.918,0V234.069h-4.918v15.472a2.459,2.459,0,0,1-4.918,0V234.069H97.007v15.472a2.459,2.459,0,1,1-4.918,0V234.069H87.172v15.472a2.459,2.459,0,1,1-4.918,0V234.069H77.337v15.472a2.459,2.459,0,1,1-4.918,0V234.069H67.5v15.472a2.459,2.459,0,1,1-4.918,0V234.069H57.666v15.472a2.459,2.459,0,1,1-4.918,0V234.069H47.831v15.472a2.459,2.459,0,1,1-4.918,0V234.069a25,25,0,0,1-24.982-25v-1.928H2.459a2.459,2.459,0,0,1,0-4.918H17.931v-4.918H2.459a2.459,2.459,0,0,1,0-4.918H17.931v-4.918H2.459a2.459,2.459,0,0,1,0-4.918H17.931v-4.918H2.459a2.459,2.459,0,0,1,0-4.918H17.931V167.8H2.459a2.459,2.459,0,0,1,0-4.918H17.931v-4.918H2.459a2.459,2.459,0,0,1,0-4.918H17.931v-4.918H2.459a2.459,2.459,0,1,1,0-4.918H17.931v-4.918H2.459a2.459,2.459,0,0,1,0-4.918H17.931v-4.918H2.459a2.459,2.459,0,1,1,0-4.918H17.931v-4.919H2.459a2.459,2.459,0,0,1,0-4.918H17.931v-4.918H2.459a2.459,2.459,0,0,1,0-4.918H17.931V98.952H2.459a2.459,2.459,0,0,1,0-4.918H17.931V89.117H2.459a2.459,2.459,0,0,1,0-4.918H17.931V79.282H2.459a2.459,2.459,0,1,1,0-4.918H17.931V69.447H2.459a2.459,2.459,0,0,1,0-4.918H17.931V59.611H2.459a2.459,2.459,0,0,1,0-4.918H17.931V49.775H2.459a2.459,2.459,0,0,1,0-4.918H17.931V42.931a25,25,0,0,1,24.982-25V2.459a2.459,2.459,0,1,1,4.918,0V17.931h4.918V2.459a2.459,2.459,0,0,1,4.918,0V17.931h4.918V2.459a2.459,2.459,0,1,1,4.918,0V17.931h4.919V2.459a2.459,2.459,0,0,1,4.918,0V17.931h4.918V2.459a2.459,2.459,0,0,1,4.918,0V17.931H92.09V2.459a2.459,2.459,0,1,1,4.918,0V17.931h4.918V2.459a2.459,2.459,0,0,1,4.918,0V17.931h4.918V2.459a2.459,2.459,0,0,1,4.918,0V17.931H121.6V2.459a2.459,2.459,0,1,1,4.918,0V17.931h4.919V2.459a2.459,2.459,0,0,1,4.918,0V17.931h4.918V2.459a2.459,2.459,0,0,1,4.918,0V17.931H151.1V2.459a2.459,2.459,0,0,1,4.918,0V17.931h4.918V2.459a2.459,2.459,0,0,1,4.918,0V17.931h4.918V2.459a2.459,2.459,0,0,1,4.918,0V17.931h4.918V2.459a2.459,2.459,0,0,1,4.918,0V17.931h4.919V2.459a2.459,2.459,0,0,1,4.918,0V17.931h4.918V2.459a2.459,2.459,0,0,1,4.918,0V17.931h3.9a25,25,0,0,1,25,25v1.927h15.472a2.459,2.459,0,1,1,0,4.918H234.092v4.918h15.472a2.459,2.459,0,1,1,0,4.918H234.092v4.918h15.472a2.459,2.459,0,1,1,0,4.918H234.092v4.918h15.472a2.459,2.459,0,1,1,0,4.918H234.092V84.2h15.472a2.459,2.459,0,1,1,0,4.918H234.092v4.918h15.472a2.459,2.459,0,1,1,0,4.918H234.092v4.918h15.472a2.459,2.459,0,0,1,0,4.918H234.092v4.918h15.472a2.459,2.459,0,0,1,0,4.918H234.092v4.919h15.472a2.459,2.459,0,1,1,0,4.918H234.092v4.918h15.472a2.459,2.459,0,0,1,0,4.918H234.092v4.918h15.472a2.459,2.459,0,1,1,0,4.918H234.092v4.918h15.472a2.459,2.459,0,1,1,0,4.918H234.092v4.918h15.472a2.459,2.459,0,1,1,0,4.918H234.092v4.918h15.472a2.459,2.459,0,1,1,0,4.918H234.092v4.918h15.472a2.459,2.459,0,1,1,0,4.918H234.092v4.918h15.472a2.459,2.459,0,1,1,0,4.918H234.092v4.918h15.472a2.459,2.459,0,1,1,0,4.918H234.092v1.928a25,25,0,0,1-25,25h-3.9v15.472a2.459,2.459,0,0,1-4.918,0Z" transform="translate(650.91 345.61)" fill="#41976d"/>
          </g>
          <g transform="matrix(1, 0, 0, 1, -613.17, -306.86)" filter="url(#Subtraction_1-2)">
            <path id="Subtraction_1-4" data-name="Subtraction 1" d="M200.279,249.541V234.069h-4.918v15.472a2.459,2.459,0,0,1-4.918,0V234.069h-4.919v15.472a2.459,2.459,0,0,1-4.918,0V234.069H175.69v15.472a2.459,2.459,0,0,1-4.918,0V234.069h-4.918v15.472a2.459,2.459,0,0,1-4.918,0V234.069H156.02v15.472a2.459,2.459,0,0,1-4.918,0V234.069h-4.918v15.472a2.459,2.459,0,0,1-4.918,0V234.069h-4.918v15.472a2.459,2.459,0,0,1-4.918,0V234.069h-4.919v15.472a2.459,2.459,0,1,1-4.918,0V234.069h-4.918v15.472a2.459,2.459,0,0,1-4.918,0V234.069h-4.918v15.472a2.459,2.459,0,0,1-4.918,0V234.069H97.007v15.472a2.459,2.459,0,1,1-4.918,0V234.069H87.172v15.472a2.459,2.459,0,1,1-4.918,0V234.069H77.337v15.472a2.459,2.459,0,1,1-4.918,0V234.069H67.5v15.472a2.459,2.459,0,1,1-4.918,0V234.069H57.666v15.472a2.459,2.459,0,1,1-4.918,0V234.069H47.831v15.472a2.459,2.459,0,1,1-4.918,0V234.069a25,25,0,0,1-24.982-25v-1.928H2.459a2.459,2.459,0,0,1,0-4.918H17.931v-4.918H2.459a2.459,2.459,0,0,1,0-4.918H17.931v-4.918H2.459a2.459,2.459,0,0,1,0-4.918H17.931v-4.918H2.459a2.459,2.459,0,0,1,0-4.918H17.931V167.8H2.459a2.459,2.459,0,0,1,0-4.918H17.931v-4.918H2.459a2.459,2.459,0,0,1,0-4.918H17.931v-4.918H2.459a2.459,2.459,0,1,1,0-4.918H17.931v-4.918H2.459a2.459,2.459,0,0,1,0-4.918H17.931v-4.918H2.459a2.459,2.459,0,1,1,0-4.918H17.931v-4.919H2.459a2.459,2.459,0,0,1,0-4.918H17.931v-4.918H2.459a2.459,2.459,0,0,1,0-4.918H17.931V98.952H2.459a2.459,2.459,0,0,1,0-4.918H17.931V89.117H2.459a2.459,2.459,0,0,1,0-4.918H17.931V79.282H2.459a2.459,2.459,0,1,1,0-4.918H17.931V69.447H2.459a2.459,2.459,0,0,1,0-4.918H17.931V59.611H2.459a2.459,2.459,0,0,1,0-4.918H17.931V49.775H2.459a2.459,2.459,0,0,1,0-4.918H17.931V42.931a25,25,0,0,1,24.982-25V2.459a2.459,2.459,0,1,1,4.918,0V17.931h4.918V2.459a2.459,2.459,0,0,1,4.918,0V17.931h4.918V2.459a2.459,2.459,0,1,1,4.918,0V17.931h4.919V2.459a2.459,2.459,0,0,1,4.918,0V17.931h4.918V2.459a2.459,2.459,0,0,1,4.918,0V17.931H92.09V2.459a2.459,2.459,0,1,1,4.918,0V17.931h4.918V2.459a2.459,2.459,0,0,1,4.918,0V17.931h4.918V2.459a2.459,2.459,0,0,1,4.918,0V17.931H121.6V2.459a2.459,2.459,0,1,1,4.918,0V17.931h4.919V2.459a2.459,2.459,0,0,1,4.918,0V17.931h4.918V2.459a2.459,2.459,0,0,1,4.918,0V17.931H151.1V2.459a2.459,2.459,0,0,1,4.918,0V17.931h4.918V2.459a2.459,2.459,0,0,1,4.918,0V17.931h4.918V2.459a2.459,2.459,0,0,1,4.918,0V17.931h4.918V2.459a2.459,2.459,0,0,1,4.918,0V17.931h4.919V2.459a2.459,2.459,0,0,1,4.918,0V17.931h4.918V2.459a2.459,2.459,0,0,1,4.918,0V17.931h3.9a25,25,0,0,1,25,25v1.927h15.472a2.459,2.459,0,1,1,0,4.918H234.092v4.918h15.472a2.459,2.459,0,1,1,0,4.918H234.092v4.918h15.472a2.459,2.459,0,1,1,0,4.918H234.092v4.918h15.472a2.459,2.459,0,1,1,0,4.918H234.092V84.2h15.472a2.459,2.459,0,1,1,0,4.918H234.092v4.918h15.472a2.459,2.459,0,1,1,0,4.918H234.092v4.918h15.472a2.459,2.459,0,0,1,0,4.918H234.092v4.918h15.472a2.459,2.459,0,0,1,0,4.918H234.092v4.919h15.472a2.459,2.459,0,1,1,0,4.918H234.092v4.918h15.472a2.459,2.459,0,0,1,0,4.918H234.092v4.918h15.472a2.459,2.459,0,1,1,0,4.918H234.092v4.918h15.472a2.459,2.459,0,1,1,0,4.918H234.092v4.918h15.472a2.459,2.459,0,1,1,0,4.918H234.092v4.918h15.472a2.459,2.459,0,1,1,0,4.918H234.092v4.918h15.472a2.459,2.459,0,1,1,0,4.918H234.092v4.918h15.472a2.459,2.459,0,1,1,0,4.918H234.092v4.918h15.472a2.459,2.459,0,1,1,0,4.918H234.092v1.928a25,25,0,0,1-25,25h-3.9v15.472a2.459,2.459,0,0,1-4.918,0Z" transform="translate(650.91 345.61)" fill="#fff"/>
          </g>
        </g>
        <g data-type="innerShadowGroup">
          <g transform="matrix(1, 0, 0, 1, -613.17, -306.86)" filter="url(#Rectangle_31)">
            <rect id="Rectangle_31-3" data-name="Rectangle 31" width="175" height="175" rx="21" transform="translate(690 384)" fill="#262626"/>
          </g>
          <g transform="matrix(1, 0, 0, 1, -613.17, -306.86)" filter="url(#Rectangle_31-2)">
            <rect id="Rectangle_31-4" data-name="Rectangle 31" width="175" height="175" rx="21" transform="translate(690 384)" fill="#fff"/>
          </g>
        </g>
        <ellipse id="Ellipse_6" data-name="Ellipse 6" cx="36.5" cy="36" rx="36.5" ry="36" transform="translate(127.834 129.137)" fill="#41976d"/>
        <g data-type="innerShadowGroup">
          <g transform="matrix(1, 0, 0, 1, -613.17, -306.86)" filter="url(#Subtraction_2)">
            <path id="Subtraction_2-3" data-name="Subtraction 2" d="M102,114H12A12,12,0,0,1,0,102V12A12,12,0,0,1,12,0h90a12,12,0,0,1,12,12v90a12,12,0,0,1-12,12ZM21.142,57.107A35.858,35.858,0,1,0,90.817,45.061H78.6L72.7,66.4a3.552,3.552,0,0,1-3.424,2.614h-.523A3.553,3.553,0,0,1,65.33,66.4l-8.294-30.06L45.717,78.442a3.565,3.565,0,0,1-3.434,2.635h-.544a3.58,3.58,0,0,1-3.435-2.6L32.42,57.107ZM32.656,51.1a4.884,4.884,0,0,1,4.982,3.516l4.409,15.718L51.92,33.876a5.166,5.166,0,0,1,4.969-3.8h.721a5.177,5.177,0,0,1,4.941,3.794l6.634,24.2L73.213,42.97c.7-2.372,2.909-3.845,5.763-3.845H88.09A35.865,35.865,0,0,0,21.624,51.11Z" transform="translate(720 415)" fill="#41976d"/>
          </g>
          <g transform="matrix(1, 0, 0, 1, -613.17, -306.86)" filter="url(#Subtraction_2-2)">
            <path id="Subtraction_2-4" data-name="Subtraction 2" d="M102,114H12A12,12,0,0,1,0,102V12A12,12,0,0,1,12,0h90a12,12,0,0,1,12,12v90a12,12,0,0,1-12,12ZM21.142,57.107A35.858,35.858,0,1,0,90.817,45.061H78.6L72.7,66.4a3.552,3.552,0,0,1-3.424,2.614h-.523A3.553,3.553,0,0,1,65.33,66.4l-8.294-30.06L45.717,78.442a3.565,3.565,0,0,1-3.434,2.635h-.544a3.58,3.58,0,0,1-3.435-2.6L32.42,57.107ZM32.656,51.1a4.884,4.884,0,0,1,4.982,3.516l4.409,15.718L51.92,33.876a5.166,5.166,0,0,1,4.969-3.8h.721a5.177,5.177,0,0,1,4.941,3.794l6.634,24.2L73.213,42.97c.7-2.372,2.909-3.845,5.763-3.845H88.09A35.865,35.865,0,0,0,21.624,51.11Z" transform="translate(720 415)" fill="#fff"/>
          </g>
        </g>
        <g transform="matrix(1, 0, 0, 1, -613.17, -306.86)" filter="url(#Ellipse_2)">
          <ellipse id="Ellipse_2-2" data-name="Ellipse 2" cx="5.5" cy="6" rx="5.5" ry="6" transform="translate(702 395)" fill="#41976d"/>
        </g>
        <g transform="matrix(1, 0, 0, 1, -613.17, -306.86)" filter="url(#Ellipse_5)">
          <circle id="Ellipse_5-2" data-name="Ellipse 5" cx="5.5" cy="5.5" r="5.5" transform="translate(702 536)" fill="#41976d"/>
        </g>
        <g transform="matrix(1, 0, 0, 1, -613.17, -306.86)" filter="url(#Ellipse_3)">
          <ellipse id="Ellipse_3-2" data-name="Ellipse 3" cx="5.5" cy="6" rx="5.5" ry="6" transform="translate(841 395)" fill="#41976d"/>
        </g>
        <g transform="matrix(1, 0, 0, 1, -613.17, -306.86)" filter="url(#Ellipse_4)">
          <circle id="Ellipse_4-2" data-name="Ellipse 4" cx="5.5" cy="5.5" r="5.5" transform="translate(841 536)" fill="#41976d"/>
        </g>
      </g>
    </g>
  </g>
</svg>
