<svg xmlns="http://www.w3.org/2000/svg" xmlns:xlink="http://www.w3.org/1999/xlink" width="1938" height="388.154" viewBox="0 0 1938 388.154"><defs><filter id="a" x="0" y="0" width="1938" height="388.154" filterUnits="userSpaceOnUse"><feOffset dy="3" input="SourceAlpha"/><feGaussianBlur stdDeviation="3" result="b"/><feFlood flood-color="#fff" flood-opacity="0.161"/><feComposite operator="in" in2="b"/><feComposite in="SourceGraphic"/></filter><filter id="c" x="0" y="0" width="1938" height="388.154" filterUnits="userSpaceOnUse"><feOffset dy="5" input="SourceAlpha"/><feGaussianBlur stdDeviation="3" result="d"/><feFlood flood-opacity="0.251" result="e"/><feComposite operator="out" in="SourceGraphic" in2="d"/><feComposite operator="in" in="e"/><feComposite operator="in" in2="SourceGraphic"/></filter></defs><g data-type="innerShadowGroup"><g transform="matrix(1, 0, 0, 1, 0, 0)" filter="url(#a)"><path d="M27.046,1631l283.495-2.535,193.727,193.728H917.732l151.9,151.9h507.836l232.575-232.575,137-1.3V1761l-126.475,1.3-239.24,236.315H1065.9L906.522,1839.9H498.7L310.54,1647.363,27.046,1649.9Z" transform="translate(-18.05 -1622.47)"/></g><g transform="matrix(1, 0, 0, 1, 0, 0)" filter="url(#c)"><path d="M27.046,1631l283.495-2.535,193.727,193.728H917.732l151.9,151.9h507.836l232.575-232.575,137-1.3V1761l-126.475,1.3-239.24,236.315H1065.9L906.522,1839.9H498.7L310.54,1647.363,27.046,1649.9Z" transform="translate(-18.05 -1622.47)" fill="#fff"/></g></g></svg>