<svg xmlns="http://www.w3.org/2000/svg" xmlns:xlink="http://www.w3.org/1999/xlink" width="181" height="181" viewBox="0 0 181 181">
  <defs>
    <filter id="Rectangle_49" x="0" y="0" width="181" height="181" filterUnits="userSpaceOnUse">
      <feOffset dy="6" input="SourceAlpha"/>
      <feGaussianBlur stdDeviation="3" result="blur"/>
      <feFlood flood-color="#fff" flood-opacity="0.251"/>
      <feComposite operator="in" in2="blur"/>
      <feComposite in="SourceGraphic"/>
    </filter>
    <filter id="Rectangle_49-2" x="0" y="0" width="181" height="181" filterUnits="userSpaceOnUse">
      <feOffset dy="8" input="SourceAlpha"/>
      <feGaussianBlur stdDeviation="3" result="blur-2"/>
      <feFlood flood-opacity="0.251" result="color"/>
      <feComposite operator="out" in="SourceGraphic" in2="blur-2"/>
      <feComposite operator="in" in="color"/>
      <feComposite operator="in" in2="SourceGraphic"/>
    </filter>
  </defs>
  <g id="Group_18" data-name="Group 18" transform="translate(8.582 3)">
    <g data-type="innerShadowGroup">
      <g transform="matrix(1, 0, 0, 1, -8.58, -3)" filter="url(#Rectangle_49)">
        <rect id="Rectangle_49-3" data-name="Rectangle 49" width="163" height="163" rx="20" transform="translate(9 3)"/>
      </g>
      <g transform="matrix(1, 0, 0, 1, -8.58, -3)" filter="url(#Rectangle_49-2)">
        <rect id="Rectangle_49-4" data-name="Rectangle 49" width="163" height="163" rx="20" transform="translate(9 3)" fill="#fff"/>
      </g>
    </g>
    <g id="Group_14" data-name="Group 14" transform="translate(37.271 39.484)">
      <path id="Path_37" data-name="Path 37" d="M464.359,518.085H479.1l-4.148,4.439a2.145,2.145,0,0,0,3.136,2.928l7.52-8.047c.01-.013.014-.027.024-.04a2.162,2.162,0,0,0,.392-.612.327.327,0,0,1,.011-.039,2.16,2.16,0,0,0,.139-.668c0-.023.007-.044.007-.069s0-.024,0-.037a2.144,2.144,0,0,0-.1-.632c-.011-.034-.02-.067-.031-.1a2.131,2.131,0,0,0-.338-.6c-.011-.014-.014-.031-.027-.046l-7.519-8.981a2.144,2.144,0,0,0-3.289,2.753l4.57,5.461H464.359a2.145,2.145,0,1,0,0,4.289Z" transform="translate(-461.109 -501.583)" fill="#fff"/>
      <path id="Path_38" data-name="Path 38" d="M546.747,514.3H534.713v-9.6a2.146,2.146,0,0,0-2.145-2.145H494.082a2.145,2.145,0,0,0-2.145,2.145v24.424a2.145,2.145,0,0,0,2.145,2.145h38.486a2.146,2.146,0,0,0,2.145-2.145V518.591H544.6v64.384H474.712V541.354l4.44,4.148a2.145,2.145,0,0,0,2.928-3.136l-8.049-7.519c-.011-.011-.027-.014-.039-.026a2.131,2.131,0,0,0-.613-.39c-.013-.006-.027-.007-.04-.013a2.143,2.143,0,0,0-.666-.139c-.023,0-.044-.006-.069-.006a.353.353,0,0,0-.037,0,2.1,2.1,0,0,0-.632.106c-.034.01-.067.019-.1.03a2.135,2.135,0,0,0-.6.339c-.014.011-.033.014-.047.026l-8.98,7.52a2.144,2.144,0,1,0,2.753,3.289l5.459-4.572v44.112a2.146,2.146,0,0,0,2.145,2.145h74.18a2.146,2.146,0,0,0,2.145-2.145V516.446A2.145,2.145,0,0,0,546.747,514.3Zm-16.324,12.678h-34.2V506.844h34.2Z" transform="translate(-461.441 -502.554)" fill="#fff"/>
    </g>
  </g>
</svg>
