<svg xmlns="http://www.w3.org/2000/svg" xmlns:xlink="http://www.w3.org/1999/xlink" width="181" height="181" viewBox="0 0 181 181">
  <defs>
    <filter id="Rectangle_48" x="0" y="0" width="181" height="181" filterUnits="userSpaceOnUse">
      <feOffset dy="6" input="SourceAlpha"/>
      <feGaussianBlur stdDeviation="3" result="blur"/>
      <feFlood flood-color="#fff" flood-opacity="0.251"/>
      <feComposite operator="in" in2="blur"/>
      <feComposite in="SourceGraphic"/>
    </filter>
    <filter id="Rectangle_48-2" x="0" y="0" width="181" height="181" filterUnits="userSpaceOnUse">
      <feOffset dy="8" input="SourceAlpha"/>
      <feGaussianBlur stdDeviation="3" result="blur-2"/>
      <feFlood flood-opacity="0.251" result="color"/>
      <feComposite operator="out" in="SourceGraphic" in2="blur-2"/>
      <feComposite operator="in" in="color"/>
      <feComposite operator="in" in2="SourceGraphic"/>
    </filter>
  </defs>
  <g id="Group_17" data-name="Group 17" transform="translate(9 3)">
    <g data-type="innerShadowGroup">
      <g transform="matrix(1, 0, 0, 1, -9, -3)" filter="url(#Rectangle_48)">
        <rect id="Rectangle_48-3" data-name="Rectangle 48" width="163" height="163" rx="20" transform="translate(9 3)"/>
      </g>
      <g transform="matrix(1, 0, 0, 1, -9, -3)" filter="url(#Rectangle_48-2)">
        <rect id="Rectangle_48-4" data-name="Rectangle 48" width="163" height="163" rx="20" transform="translate(9 3)" fill="#fff"/>
      </g>
    </g>
    <g id="Group_13" data-name="Group 13" transform="translate(37.221 35.913)">
      <path id="Path_34" data-name="Path 34" d="M551.512,405.459h-4.579a.215.215,0,0,1-.205-.153,35.349,35.349,0,0,0-2.575-6.168.215.215,0,0,1,.038-.254l3.256-3.256a5.76,5.76,0,0,0,0-8.121l-7.357-7.357a5.76,5.76,0,0,0-8.122,0l-3.243,3.243a.215.215,0,0,1-.253.038,35.933,35.933,0,0,0-6.182-2.562.216.216,0,0,1-.153-.206v-4.578a5.772,5.772,0,0,0-5.755-5.755h-10.4a5.757,5.757,0,0,0-5.741,5.741v4.592a.215.215,0,0,1-.153.206,35.926,35.926,0,0,0-6.182,2.562.215.215,0,0,1-.253-.038l-3.4-3.4a5.536,5.536,0,0,0-7.81,0l-7.513,7.513a5.76,5.76,0,0,0,0,8.121l3.243,3.243a.213.213,0,0,1,.038.253,35.933,35.933,0,0,0-2.562,6.182.215.215,0,0,1-.205.153H470.63a5.542,5.542,0,0,0-5.52,5.534v10.623a5.757,5.757,0,0,0,5.741,5.741h4.593a.215.215,0,0,1,.205.153,35.938,35.938,0,0,0,2.562,6.182.213.213,0,0,1-.038.253l-3.182,3.181a5.96,5.96,0,0,0-1.794,3.451,5.515,5.515,0,0,0,1.576,4.576l7.451,7.451a5.966,5.966,0,0,0,3.451,1.794,5.512,5.512,0,0,0,4.576-1.576l3.4-3.4a.215.215,0,0,1,.253-.038,36.091,36.091,0,0,0,6.182,2.576.215.215,0,0,1,.153.205v4.579a5.757,5.757,0,0,0,5.741,5.741H516.6a5.542,5.542,0,0,0,5.534-5.52v-4.8a.215.215,0,0,1,.153-.205,35.995,35.995,0,0,0,6.182-2.576.217.217,0,0,1,.254.038l3.4,3.4a5.527,5.527,0,0,0,7.81,0l7.451-7.452a5.964,5.964,0,0,0,1.794-3.451,5.513,5.513,0,0,0-1.576-4.576l-3.412-3.412a.217.217,0,0,1-.038-.256,35.217,35.217,0,0,0,2.575-6.168.215.215,0,0,1,.205-.152h4.8a5.542,5.542,0,0,0,5.534-5.52V411.214A5.772,5.772,0,0,0,551.512,405.459Zm1.541,16.378a1.316,1.316,0,0,1-1.32,1.306h-3.957a5.628,5.628,0,0,0-5.305,3.832c-.043.128-.088.256-.135.382a33.3,33.3,0,0,1-1.377,3.343c-.049.1-.1.2-.149.3a5.629,5.629,0,0,0,1.014,6.519l.006.006,2.8,2.8a1.322,1.322,0,0,1,0,1.854l-7.513,7.513a1.536,1.536,0,0,1-2.166,0l-2.639-2.639,0,0a5.629,5.629,0,0,0-6.489-1.028l-.333.162a34.857,34.857,0,0,1-3.343,1.391l-.346.119a5.629,5.629,0,0,0-3.868,5.318v3.96a1.316,1.316,0,0,1-1.32,1.306H505.98a1.531,1.531,0,0,1-1.527-1.527v-3.738a5.625,5.625,0,0,0-3.853-5.314l-.361-.125a30.436,30.436,0,0,1-3.343-1.391c-.111-.053-.222-.107-.331-.162a5.631,5.631,0,0,0-6.491,1.028l0,0-2.8,2.8a1.35,1.35,0,0,1-1.854,0l-7.669-7.669a1.323,1.323,0,0,1,0-1.854l2.8-2.8h0a5.63,5.63,0,0,0,1.017-6.519c-.049-.1-.1-.2-.146-.294V430.7a33.464,33.464,0,0,1-1.391-3.343c-.042-.119-.083-.24-.123-.361a5.628,5.628,0,0,0-5.315-3.853h-3.738a1.531,1.531,0,0,1-1.527-1.527v-10.4a1.546,1.546,0,0,1,1.541-1.541H474.6a5.628,5.628,0,0,0,5.305-3.832c.044-.128.089-.255.135-.382a30.383,30.383,0,0,1,1.376-3.343c.049-.1.1-.2.149-.3a5.624,5.624,0,0,0-1.014-6.519l-.006-.006-2.8-2.8a1.323,1.323,0,0,1,0-1.854l7.669-7.669a1.323,1.323,0,0,1,1.854,0l2.8,2.8h0a5.631,5.631,0,0,0,6.506,1.021c.1-.05.2-.1.306-.15h.014a33.434,33.434,0,0,1,3.343-1.391l.361-.125a5.625,5.625,0,0,0,3.853-5.314v-3.724a1.546,1.546,0,0,1,1.541-1.541h10.388a1.541,1.541,0,0,1,1.541,1.541v3.725a5.629,5.629,0,0,0,3.868,5.318c.115.039.23.078.346.119a34.857,34.857,0,0,1,3.343,1.391h.014c.093.045.184.091.275.138a5.629,5.629,0,0,0,6.536-1.007h0l2.8-2.8a1.323,1.323,0,0,1,1.854,0l7.669,7.669a1.322,1.322,0,0,1,0,1.854l-2.8,2.8-.017.018a5.626,5.626,0,0,0-1.032,6.484l.164.339a31.33,31.33,0,0,1,1.377,3.329c.046.127.091.254.135.382a5.628,5.628,0,0,0,5.305,3.832h3.75a1.541,1.541,0,0,1,1.541,1.541Z" transform="translate(-465.11 -370.33)" fill="#fff"/>
      <g id="Group_12" data-name="Group 12" transform="translate(17.281 24.156)">
        <path id="Path_35" data-name="Path 35" d="M492.86,398.5h-6.468a2.107,2.107,0,0,0,0,4.214h4.362v7.239H479.52a2.107,2.107,0,0,0,0,4.214h13.34a2.106,2.106,0,0,0,2.107-2.107V400.611A2.107,2.107,0,0,0,492.86,398.5Z" transform="translate(-477.413 -383.086)" fill="#fff"/>
        <path id="Path_36" data-name="Path 36" d="M522.391,391.072a2.107,2.107,0,0,0-3.082-2.874L508.58,399.7V392.02a4.5,4.5,0,0,0-4.492-4.492h-7.577a4.5,4.5,0,0,0-4.492,4.492v35.7a4.5,4.5,0,0,0,4.492,4.492h7.577a4.5,4.5,0,0,0,4.492-4.492v-6.125l4.349,4.347-1.8,1.8a2.107,2.107,0,0,0,1.357,3.593l7.015.442c.05,0,.1,0,.147,0a2.1,2.1,0,0,0,1.176-.36,2.069,2.069,0,0,0,.361-.308,2.093,2.093,0,0,0,.55-1.173h0c.008-.065.013-.129.015-.194v0c0-.029,0-.058,0-.087v-7.453a2.107,2.107,0,0,0-3.6-1.49l-2.246,2.246-7.328-7.328v-9.751Zm-18.024,36.647a.279.279,0,0,1-.278.278h-7.577a.279.279,0,0,1-.278-.278v-35.7a.279.279,0,0,1,.278-.278h7.577a.279.279,0,0,1,.278.278Z" transform="translate(-471.503 -387.528)" fill="#fff"/>
      </g>
    </g>
  </g>
</svg>
