<svg xmlns="http://www.w3.org/2000/svg" xmlns:xlink="http://www.w3.org/1999/xlink" width="123" height="123" viewBox="0 0 123 123"><defs><filter id="a" x="0" y="0" width="123" height="123" filterUnits="userSpaceOnUse"><feOffset dy="6" input="SourceAlpha"/><feGaussianBlur stdDeviation="3" result="b"/><feFlood flood-color="#fff" flood-opacity="0.251"/><feComposite operator="in" in2="b"/><feComposite in="SourceGraphic"/></filter><filter id="c" x="0" y="0" width="123" height="123" filterUnits="userSpaceOnUse"><feOffset dy="8" input="SourceAlpha"/><feGaussianBlur stdDeviation="3" result="d"/><feFlood flood-opacity="0.251" result="e"/><feComposite operator="out" in="SourceGraphic" in2="d"/><feComposite operator="in" in="e"/><feComposite operator="in" in2="SourceGraphic"/></filter></defs><g transform="translate(9 3)"><g data-type="innerShadowGroup"><g transform="matrix(1, 0, 0, 1, -9, -3)" filter="url(#a)"><rect width="105" height="105" rx="20" transform="translate(9 3)"/></g><g transform="matrix(1, 0, 0, 1, -9, -3)" filter="url(#c)"><rect width="105" height="105" rx="20" transform="translate(9 3)" fill="#fff"/></g></g><g transform="translate(23.967 23.125)"><path d="M520.747,392.951H517.8a.139.139,0,0,1-.132-.1,22.759,22.759,0,0,0-1.658-3.971.139.139,0,0,1,.024-.164l2.1-2.1a3.709,3.709,0,0,0,0-5.23l-4.738-4.738a3.709,3.709,0,0,0-5.23,0l-2.088,2.088a.139.139,0,0,1-.163.024,23.135,23.135,0,0,0-3.981-1.65.139.139,0,0,1-.1-.133v-2.948a3.717,3.717,0,0,0-3.706-3.706h-6.7a3.707,3.707,0,0,0-3.7,3.7v2.957a.139.139,0,0,1-.1.133,23.133,23.133,0,0,0-3.981,1.65.139.139,0,0,1-.163-.024l-2.189-2.189a3.565,3.565,0,0,0-5.029,0l-4.838,4.838a3.709,3.709,0,0,0,0,5.23l2.088,2.088a.137.137,0,0,1,.024.163,23.141,23.141,0,0,0-1.65,3.981.139.139,0,0,1-.132.1h-3.1a3.569,3.569,0,0,0-3.555,3.564v6.841a3.707,3.707,0,0,0,3.7,3.7h2.958a.138.138,0,0,1,.132.1,23.145,23.145,0,0,0,1.65,3.981.137.137,0,0,1-.024.163l-2.049,2.049a3.838,3.838,0,0,0-1.155,2.222,3.551,3.551,0,0,0,1.015,2.947l4.8,4.8a3.841,3.841,0,0,0,2.222,1.155,3.55,3.55,0,0,0,2.947-1.015l2.189-2.189a.138.138,0,0,1,.163-.024,23.242,23.242,0,0,0,3.981,1.659.138.138,0,0,1,.1.132v2.949a3.707,3.707,0,0,0,3.7,3.7h6.84a3.569,3.569,0,0,0,3.564-3.555v-3.091a.139.139,0,0,1,.1-.132,23.179,23.179,0,0,0,3.981-1.659.14.14,0,0,1,.164.024l2.188,2.189a3.559,3.559,0,0,0,5.029,0l4.8-4.8a3.84,3.84,0,0,0,1.155-2.222,3.55,3.55,0,0,0-1.015-2.947l-2.2-2.2a.14.14,0,0,1-.024-.165,22.675,22.675,0,0,0,1.658-3.972.139.139,0,0,1,.132-.1h3.091a3.569,3.569,0,0,0,3.564-3.555v-6.841A3.717,3.717,0,0,0,520.747,392.951Zm.992,10.546a.847.847,0,0,1-.85.841h-2.548a3.624,3.624,0,0,0-3.416,2.467c-.028.082-.057.165-.087.246a21.437,21.437,0,0,1-.886,2.153l-.1.194a3.625,3.625,0,0,0,.653,4.2l0,0,1.8,1.8a.851.851,0,0,1,0,1.194l-4.838,4.838a.989.989,0,0,1-1.395,0l-1.7-1.7,0,0a3.624,3.624,0,0,0-4.179-.662l-.215.1a22.447,22.447,0,0,1-2.153.9l-.223.077a3.624,3.624,0,0,0-2.491,3.424v2.55a.847.847,0,0,1-.85.841h-6.84a.986.986,0,0,1-.983-.983v-2.407a3.622,3.622,0,0,0-2.481-3.422l-.233-.08a19.6,19.6,0,0,1-2.153-.9l-.213-.1a3.626,3.626,0,0,0-4.18.662l0,0-1.8,1.8a.869.869,0,0,1-1.194,0l-4.938-4.938a.852.852,0,0,1,0-1.194l1.8-1.8h0a3.625,3.625,0,0,0,.655-4.2c-.032-.062-.063-.126-.094-.189V409.2a21.552,21.552,0,0,1-.9-2.153c-.027-.077-.053-.155-.079-.232a3.624,3.624,0,0,0-3.423-2.481h-2.407a.986.986,0,0,1-.983-.983v-6.7a1,1,0,0,1,.992-.992h2.406a3.624,3.624,0,0,0,3.416-2.467c.028-.082.057-.165.087-.246a19.561,19.561,0,0,1,.886-2.153l.1-.194a3.622,3.622,0,0,0-.653-4.2l0,0-1.8-1.8a.852.852,0,0,1,0-1.194l4.938-4.938a.852.852,0,0,1,1.194,0l1.8,1.8h0a3.626,3.626,0,0,0,4.189.658l.2-.1h.009a21.519,21.519,0,0,1,2.153-.9l.233-.081a3.622,3.622,0,0,0,2.481-3.422v-2.4a1,1,0,0,1,.992-.992h6.689a.992.992,0,0,1,.992.992v2.4a3.624,3.624,0,0,0,2.491,3.424l.223.077a22.439,22.439,0,0,1,2.153.9h.009c.06.029.118.059.177.089a3.625,3.625,0,0,0,4.208-.649h0l1.8-1.8a.852.852,0,0,1,1.194,0l4.938,4.938a.851.851,0,0,1,0,1.194l-1.8,1.8-.011.012a3.622,3.622,0,0,0-.665,4.175l.106.218a20.176,20.176,0,0,1,.886,2.144c.03.081.059.164.087.246a3.624,3.624,0,0,0,3.416,2.467h2.415a.992.992,0,0,1,.992.992Z" transform="translate(-465.11 -370.33)" fill="#fff"/><g transform="translate(11.128 15.555)"><path d="M487.36,398.5h-4.165a1.357,1.357,0,0,0,0,2.713H486v4.662H478.77a1.357,1.357,0,0,0,0,2.713h8.59a1.356,1.356,0,0,0,1.357-1.357v-7.375A1.357,1.357,0,0,0,487.36,398.5Z" transform="translate(-477.413 -388.576)" fill="#fff"/><path d="M511.577,389.81a1.357,1.357,0,0,0-1.985-1.851l-6.908,7.409V390.42a2.9,2.9,0,0,0-2.892-2.893h-4.879a2.9,2.9,0,0,0-2.893,2.893v22.987a2.9,2.9,0,0,0,2.893,2.893h4.879a2.9,2.9,0,0,0,2.892-2.893v-3.944l2.8,2.8-1.16,1.161a1.357,1.357,0,0,0,.874,2.314l4.517.285.095,0a1.351,1.351,0,0,0,.757-.232,1.332,1.332,0,0,0,.233-.2,1.348,1.348,0,0,0,.354-.755h0c.005-.042.008-.083.01-.125v0c0-.019,0-.037,0-.056v-4.8a1.357,1.357,0,0,0-2.316-.96l-1.446,1.446-4.719-4.719v-6.279Zm-11.606,23.6a.179.179,0,0,1-.179.179h-4.879a.18.18,0,0,1-.179-.179V390.42a.18.18,0,0,1,.179-.179h4.879a.18.18,0,0,1,.179.179Z" transform="translate(-478.808 -387.528)" fill="#fff"/></g></g></g></svg>