<svg xmlns="http://www.w3.org/2000/svg" xmlns:xlink="http://www.w3.org/1999/xlink" width="123" height="123" viewBox="0 0 123 123"><defs><filter id="a" x="0" y="0" width="123" height="123" filterUnits="userSpaceOnUse"><feOffset dy="6" input="SourceAlpha"/><feGaussianBlur stdDeviation="3" result="b"/><feFlood flood-color="#fff" flood-opacity="0.251"/><feComposite operator="in" in2="b"/><feComposite in="SourceGraphic"/></filter><filter id="c" x="0" y="0" width="123" height="123" filterUnits="userSpaceOnUse"><feOffset dy="8" input="SourceAlpha"/><feGaussianBlur stdDeviation="3" result="d"/><feFlood flood-opacity="0.251" result="e"/><feComposite operator="out" in="SourceGraphic" in2="d"/><feComposite operator="in" in="e"/><feComposite operator="in" in2="SourceGraphic"/></filter></defs><g transform="translate(9 3)"><g data-type="innerShadowGroup"><g transform="matrix(1, 0, 0, 1, -9, -3)" filter="url(#a)"><rect width="105" height="105" rx="20" transform="translate(9 3)"/></g><g transform="matrix(1, 0, 0, 1, -9, -3)" filter="url(#c)"><rect width="105" height="105" rx="20" transform="translate(9 3)" fill="#fff"/></g></g><g transform="translate(24 25.425)"><path d="M463.6,513.359h9.495l-2.671,2.858a1.381,1.381,0,0,0,2.019,1.886l4.842-5.182c.006-.008.009-.018.016-.026a1.39,1.39,0,0,0,.252-.394.215.215,0,0,1,.007-.025,1.39,1.39,0,0,0,.089-.43c0-.015,0-.029,0-.044s0-.016,0-.024a1.38,1.38,0,0,0-.067-.407c-.007-.022-.013-.043-.02-.064a1.373,1.373,0,0,0-.217-.386c-.007-.009-.009-.02-.017-.03l-4.841-5.783a1.381,1.381,0,0,0-2.118,1.772l2.943,3.516H463.6a1.381,1.381,0,1,0,0,2.762Z" transform="translate(-461.502 -502.733)" fill="#fff"/><path d="M516.372,510.118h-7.749v-6.183a1.382,1.382,0,0,0-1.381-1.381H482.46a1.381,1.381,0,0,0-1.381,1.381v15.728a1.381,1.381,0,0,0,1.381,1.381h24.783a1.382,1.382,0,0,0,1.381-1.381V512.88h6.368v41.459h-45v-26.8l2.859,2.671a1.381,1.381,0,0,0,1.886-2.019l-5.183-4.841c-.007-.007-.018-.009-.025-.017a1.372,1.372,0,0,0-.395-.251c-.008,0-.018,0-.026-.008a1.38,1.38,0,0,0-.429-.089c-.015,0-.029,0-.044,0l-.024,0a1.348,1.348,0,0,0-.407.068c-.022.006-.043.012-.065.019a1.376,1.376,0,0,0-.385.218c-.009.007-.021.009-.03.017l-5.782,4.842a1.381,1.381,0,1,0,1.772,2.118l3.516-2.944v28.4a1.382,1.382,0,0,0,1.381,1.381h47.767a1.382,1.382,0,0,0,1.381-1.381V511.5A1.381,1.381,0,0,0,516.372,510.118Zm-10.512,8.163h-22.02V505.316h22.02Z" transform="translate(-461.441 -502.554)" fill="#fff"/></g></g></svg>