<svg xmlns="http://www.w3.org/2000/svg" xmlns:xlink="http://www.w3.org/1999/xlink" width="123" height="123" viewBox="0 0 123 123"><defs><filter id="a" x="0" y="0" width="123" height="123" filterUnits="userSpaceOnUse"><feOffset dy="6" input="SourceAlpha"/><feGaussianBlur stdDeviation="3" result="b"/><feFlood flood-color="#fff" flood-opacity="0.251"/><feComposite operator="in" in2="b"/><feComposite in="SourceGraphic"/></filter><filter id="c" x="0" y="0" width="123" height="123" filterUnits="userSpaceOnUse"><feOffset dy="8" input="SourceAlpha"/><feGaussianBlur stdDeviation="3" result="d"/><feFlood flood-opacity="0.251" result="e"/><feComposite operator="out" in="SourceGraphic" in2="d"/><feComposite operator="in" in="e"/><feComposite operator="in" in2="SourceGraphic"/></filter></defs><g transform="translate(9 3)"><g data-type="innerShadowGroup"><g transform="matrix(1, 0, 0, 1, -9, -3)" filter="url(#a)"><rect width="105" height="105" rx="20" transform="translate(9 3)"/></g><g transform="matrix(1, 0, 0, 1, -9, -3)" filter="url(#c)"><rect width="105" height="105" rx="20" transform="translate(9 3)" fill="#fff"/></g></g><g transform="translate(33.063 24.647)"><path d="M511.035,773.711V761.283a1.381,1.381,0,0,0-1.381-1.381H476.66a1.382,1.382,0,0,0-1.381,1.381v52.062a1.381,1.381,0,0,0,2.358.977l15.2-15.2,15.949,15.949a1.381,1.381,0,0,0,2.358-.976V798.328a12.38,12.38,0,0,0-.108-24.618Zm-2.655,37.051-14.568-14.569a1.381,1.381,0,0,0-1.953,0l-13.818,13.818V762.664h30.232v11.08a12.375,12.375,0,0,0,.108,24.585Zm1.381-15.114a9.62,9.62,0,1,1,9.619-9.621A9.632,9.632,0,0,1,509.762,795.648Z" transform="translate(-475.279 -759.902)" fill="#fff"/><path d="M518.224,785.124l-3.337-.561a.733.733,0,0,1-.543-.413l-1.431-3.067a.733.733,0,0,0-1.315-.03l-1.564,3a.733.733,0,0,1-.561.389l-3.359.413a.733.733,0,0,0-.434,1.241l2.37,2.415a.733.733,0,0,1,.2.654l-.646,3.322a.734.734,0,0,0,1.047.8l3.029-1.508a.733.733,0,0,1,.682.015l2.96,1.641a.734.734,0,0,0,1.081-.75l-.5-3.347a.733.733,0,0,1,.226-.645l2.474-2.308A.733.733,0,0,0,518.224,785.124Z" transform="translate(-477.671 -761.547)" fill="#fff"/></g></g></svg>