<svg xmlns="http://www.w3.org/2000/svg" xmlns:xlink="http://www.w3.org/1999/xlink" width="123" height="123" viewBox="0 0 123 123"><defs><filter id="a" x="0" y="0" width="123" height="123" filterUnits="userSpaceOnUse"><feOffset dy="6" input="SourceAlpha"/><feGaussianBlur stdDeviation="3" result="b"/><feFlood flood-color="#fff" flood-opacity="0.251"/><feComposite operator="in" in2="b"/><feComposite in="SourceGraphic"/></filter><filter id="c" x="0" y="0" width="123" height="123" filterUnits="userSpaceOnUse"><feOffset dy="8" input="SourceAlpha"/><feGaussianBlur stdDeviation="3" result="d"/><feFlood flood-opacity="0.251" result="e"/><feComposite operator="out" in="SourceGraphic" in2="d"/><feComposite operator="in" in="e"/><feComposite operator="in" in2="SourceGraphic"/></filter></defs><g transform="translate(9 3)"><g data-type="innerShadowGroup"><g transform="matrix(1, 0, 0, 1, -9, -3)" filter="url(#a)"><rect width="105" height="105" rx="20" transform="translate(9 3)"/></g><g transform="matrix(1, 0, 0, 1, -9, -3)" filter="url(#c)"><rect width="105" height="105" rx="20" transform="translate(9 3)" fill="#fff"/></g></g><g transform="translate(25.435 24.338)"><path d="M520.881,656.257h-.006l-16.335.087-28.753-25.084a1.422,1.422,0,0,0-2.356,1.071v23.946l-4.923.069a1.422,1.422,0,0,0,.019,2.843h.021l4.883-.068v27.8a1.422,1.422,0,0,0,.878,1.313,1.4,1.4,0,0,0,.544.109,1.422,1.422,0,0,0,1.006-.417L504.6,659.187l16.286-.086a1.422,1.422,0,0,0-.007-2.843Zm-44.607,27.237V635.458l25.654,22.38Z" transform="translate(-467.106 -630.91)" fill="#fff"/><path d="M507.8,651.805h10.094a1.424,1.424,0,0,0,1.006-.417l4.714-4.714a1.422,1.422,0,0,0-2.01-2.011l-4.3,4.3h-8.084V643.91l2.887,2.887a1.421,1.421,0,0,0,2.01-2.01l-4.309-4.309,6.759-6.758a1.422,1.422,0,0,0-2.011-2.01l-7.762,7.763a1.411,1.411,0,0,0-.31.466l-.006.017a1.415,1.415,0,0,0-.1.521v9.906A1.422,1.422,0,0,0,507.8,651.805Z" transform="translate(-469.155 -630.93)" fill="#fff"/><path d="M480.449,652.976h1.381v1.381a1.422,1.422,0,1,0,2.843,0v-1.381h1.381a1.422,1.422,0,1,0,0-2.843h-1.381v-1.381a1.422,1.422,0,1,0-2.843,0v1.381h-1.381a1.422,1.422,0,0,0,0,2.843Z" transform="translate(-467.728 -631.767)" fill="#fff"/><path d="M480.449,671.987h5.605a1.422,1.422,0,1,0,0-2.843h-5.605a1.422,1.422,0,0,0,0,2.843Z" transform="translate(-467.728 -632.905)" fill="#fff"/></g></g></svg>