<svg xmlns="http://www.w3.org/2000/svg" xmlns:xlink="http://www.w3.org/1999/xlink" width="810" height="169" viewBox="0 0 810 169">
  <defs>
    <filter id="Ellipse_11" x="52" y="42" width="56" height="56" filterUnits="userSpaceOnUse">
      <feOffset dy="3" input="SourceAlpha"/>
      <feGaussianBlur stdDeviation="1" result="blur"/>
      <feFlood flood-color="#fff" flood-opacity="0.161"/>
      <feComposite operator="in" in2="blur"/>
      <feComposite in="SourceGraphic"/>
    </filter>
    <filter id="Ellipse_13" x="65" y="55" width="30" height="30" filterUnits="userSpaceOnUse">
      <feOffset dy="3" input="SourceAlpha"/>
      <feGaussianBlur stdDeviation="1" result="blur-2"/>
      <feFlood flood-color="#fff" flood-opacity="0.161"/>
      <feComposite operator="in" in2="blur-2"/>
      <feComposite in="SourceGraphic"/>
    </filter>
    <filter id="Ellipse_13-2" x="65" y="55" width="30" height="30" filterUnits="userSpaceOnUse">
      <feOffset dy="3" input="SourceAlpha"/>
      <feGaussianBlur stdDeviation="1" result="blur-3"/>
      <feFlood flood-opacity="0.251" result="color"/>
      <feComposite operator="out" in="SourceGraphic" in2="blur-3"/>
      <feComposite operator="in" in="color"/>
      <feComposite operator="in" in2="SourceGraphic"/>
    </filter>
    <filter id="Ellipse_11-2" x="142" y="42" width="56" height="56" filterUnits="userSpaceOnUse">
      <feOffset dy="3" input="SourceAlpha"/>
      <feGaussianBlur stdDeviation="1" result="blur-4"/>
      <feFlood flood-color="#fff" flood-opacity="0.161"/>
      <feComposite operator="in" in2="blur-4"/>
      <feComposite in="SourceGraphic"/>
    </filter>
    <filter id="Ellipse_13-3" x="155" y="55" width="30" height="30" filterUnits="userSpaceOnUse">
      <feOffset dy="3" input="SourceAlpha"/>
      <feGaussianBlur stdDeviation="1" result="blur-5"/>
      <feFlood flood-color="#fff" flood-opacity="0.161"/>
      <feComposite operator="in" in2="blur-5"/>
      <feComposite in="SourceGraphic"/>
    </filter>
    <filter id="Ellipse_13-4" x="155" y="55" width="30" height="30" filterUnits="userSpaceOnUse">
      <feOffset dy="3" input="SourceAlpha"/>
      <feGaussianBlur stdDeviation="1" result="blur-6"/>
      <feFlood flood-opacity="0.251" result="color-2"/>
      <feComposite operator="out" in="SourceGraphic" in2="blur-6"/>
      <feComposite operator="in" in="color-2"/>
      <feComposite operator="in" in2="SourceGraphic"/>
    </filter>
    <filter id="Ellipse_11-3" x="637" y="67" width="56" height="56" filterUnits="userSpaceOnUse">
      <feOffset dy="3" input="SourceAlpha"/>
      <feGaussianBlur stdDeviation="1" result="blur-7"/>
      <feFlood flood-color="#fff" flood-opacity="0.161"/>
      <feComposite operator="in" in2="blur-7"/>
      <feComposite in="SourceGraphic"/>
    </filter>
    <filter id="Ellipse_13-5" x="650" y="80" width="30" height="30" filterUnits="userSpaceOnUse">
      <feOffset dy="3" input="SourceAlpha"/>
      <feGaussianBlur stdDeviation="1" result="blur-8"/>
      <feFlood flood-color="#fff" flood-opacity="0.161"/>
      <feComposite operator="in" in2="blur-8"/>
      <feComposite in="SourceGraphic"/>
    </filter>
    <filter id="Ellipse_13-6" x="650" y="80" width="30" height="30" filterUnits="userSpaceOnUse">
      <feOffset dy="3" input="SourceAlpha"/>
      <feGaussianBlur stdDeviation="1" result="blur-9"/>
      <feFlood flood-opacity="0.251" result="color-3"/>
      <feComposite operator="out" in="SourceGraphic" in2="blur-9"/>
      <feComposite operator="in" in="color-3"/>
      <feComposite operator="in" in2="SourceGraphic"/>
    </filter>
  </defs>
  <g id="Group_185" data-name="Group 185" transform="translate(-1110 -2908)">
    <rect id="Rectangle_125" data-name="Rectangle 125" width="170" height="30" transform="translate(1110 2960)" fill="#41976d"/>
    <g id="Group_86" data-name="Group 86" transform="translate(6 1208)" style="isolation: isolate">
      <g transform="matrix(1, 0, 0, 1, 1104, 1700)" filter="url(#Ellipse_11)">
        <circle id="Ellipse_11-4" data-name="Ellipse 11" cx="25" cy="25" r="25" transform="translate(55 42)" fill="#41976d"/>
      </g>
      <g data-type="innerShadowGroup">
        <g transform="matrix(1, 0, 0, 1, 1104, 1700)" filter="url(#Ellipse_13)">
          <circle id="Ellipse_13-7" data-name="Ellipse 13" cx="12" cy="12" r="12" transform="translate(68 55)" fill="#41976d"/>
        </g>
        <g transform="matrix(1, 0, 0, 1, 1104, 1700)" filter="url(#Ellipse_13-2)">
          <circle id="Ellipse_13-8" data-name="Ellipse 13" cx="12" cy="12" r="12" transform="translate(68 55)" fill="#fff"/>
        </g>
      </g>
    </g>
    <g id="Group_87" data-name="Group 87" transform="translate(96 1208)" style="isolation: isolate">
      <g transform="matrix(1, 0, 0, 1, 1014, 1700)" filter="url(#Ellipse_11-2)">
        <circle id="Ellipse_11-5" data-name="Ellipse 11" cx="25" cy="25" r="25" transform="translate(145 42)" fill="#41976d"/>
      </g>
      <g data-type="innerShadowGroup">
        <g transform="matrix(1, 0, 0, 1, 1014, 1700)" filter="url(#Ellipse_13-3)">
          <circle id="Ellipse_13-9" data-name="Ellipse 13" cx="12" cy="12" r="12" transform="translate(158 55)" fill="#41976d"/>
        </g>
        <g transform="matrix(1, 0, 0, 1, 1014, 1700)" filter="url(#Ellipse_13-4)">
          <circle id="Ellipse_13-10" data-name="Ellipse 13" cx="12" cy="12" r="12" transform="translate(158 55)" fill="#fff"/>
        </g>
      </g>
    </g>
    <g id="Group_184" data-name="Group 184">
      <rect id="Rectangle_126" data-name="Rectangle 126" width="145" height="30" transform="translate(1775 2985)" fill="#41976d"/>
      <path id="Path_283" data-name="Path 283" d="M-490,2990h95l70,70H150" transform="translate(1770 -15)" fill="none" stroke="#41976d" stroke-width="8"/>
      <path id="Path_284" data-name="Path 284" d="M-490,2975h100l65,65h150l45-45h35l70-70H150" transform="translate(1770 -15)" fill="none" stroke="#41976d" stroke-width="4"/>
      <path id="Path_285" data-name="Path 285" d="M-490,3005h90l65,65h130l20,20H150" transform="translate(1770 -15)" fill="none" stroke="#41976d" stroke-width="4"/>
      <path id="Path_286" data-name="Path 286" d="M150,2960H-30l-75,75h-65" transform="translate(1770 -15)" fill="none" stroke="#41976d" stroke-width="4"/>
      <path id="Path_287" data-name="Path 287" d="M-320,3040l10,10H-95l80-80H150" transform="translate(1770 -15)" fill="none" stroke="#41976d" stroke-width="4"/>
      <g id="Group_90" data-name="Group 90" transform="translate(591 1233)" style="isolation: isolate">
        <g transform="matrix(1, 0, 0, 1, 519, 1675)" filter="url(#Ellipse_11-3)">
          <circle id="Ellipse_11-6" data-name="Ellipse 11" cx="25" cy="25" r="25" transform="translate(640 67)" fill="#41976d"/>
        </g>
        <g data-type="innerShadowGroup">
          <g transform="matrix(1, 0, 0, 1, 519, 1675)" filter="url(#Ellipse_13-5)">
            <circle id="Ellipse_13-11" data-name="Ellipse 13" cx="12" cy="12" r="12" transform="translate(653 80)" fill="#41976d"/>
          </g>
          <g transform="matrix(1, 0, 0, 1, 519, 1675)" filter="url(#Ellipse_13-6)">
            <circle id="Ellipse_13-12" data-name="Ellipse 13" cx="12" cy="12" r="12" transform="translate(653 80)" fill="#fff"/>
          </g>
        </g>
      </g>
    </g>
  </g>
</svg>
